<?xml version="1.0" encoding="utf-8"?>
<!-- Generator: Adobe Illustrator 19.0.0, SVG Export Plug-In . SVG Version: 6.00 Build 0)  -->
<svg version="1.1" xmlns="http://www.w3.org/2000/svg" xmlns:xlink="http://www.w3.org/1999/xlink" x="0px" y="0px"
	 viewBox="-7 -241 584 582" style="enable-background:new -7 -241 584 582;" xml:space="preserve">
<style type="text/css">
	.st0{fill:#FFFFFF;stroke:#000000;stroke-miterlimit:10;}
	.st1{opacity:0.63;fill:#5C5E60;enable-background:new    ;}
	.st2{opacity:0.98;fill:#9D9FA1;enable-background:new    ;}
	.st3{opacity:0.65;fill:#5F6163;enable-background:new    ;}
	.st4{fill:#BCBEBF;}
	.st5{fill:#DCDDDE;}
	.st6{fill:#89898A;}
	.st7{fill:#060606;}
	.st8{fill:#0F0F0F;}
	.st9{fill:#C5C6C7;}
	.st10{fill:#090909;}
	.st11{fill:#0C0C0C;}
	.st12{fill:#B2B3B4;}
	.st13{fill:#BDBEBF;}
	.st14{fill:#858687;}
	.st15{fill:#AAACAE;}
	.st16{fill:#C5C6C8;}
	.st17{opacity:0.74;fill:#747678;enable-background:new    ;}
	.st18{opacity:0.5;fill:#4F5051;enable-background:new    ;}
	.st19{opacity:0.75;fill:#757779;enable-background:new    ;}
	.st20{fill:#0A0A0A;}
	.st21{opacity:0.77;fill:#7A7C7E;enable-background:new    ;}
	.st22{fill:#C2C3C4;}
	.st23{fill:#BFC0C1;}
	.st24{opacity:0.35;fill:#000D00;enable-background:new    ;}
	.st25{opacity:0.87;fill:#002200;enable-background:new    ;}
	.st26{opacity:0.97;fill:#033903;enable-background:new    ;}
	.st27{opacity:0.95;enable-background:new    ;}
	.st28{fill:#C6C7C9;}
	.st29{fill:#005300;}
	.st30{fill:#D2D3D5;}
	.st31{fill:#006D00;}
	.st32{fill:#008500;}
	.st33{opacity:0.97;fill:#898A8A;enable-background:new    ;}
	.st34{opacity:0.96;fill:#585858;enable-background:new    ;}
	.st35{fill:#009800;}
	.st36{opacity:0.98;fill:#B7B8B9;enable-background:new    ;}
	.st37{opacity:0.93;fill:#303031;enable-background:new    ;}
	.st38{opacity:0.35;enable-background:new    ;}
	.st39{fill:#0B0B0B;}
	.st40{opacity:0.43;enable-background:new    ;}
	.st41{fill:#C8C9CA;}
	.st42{opacity:0.93;fill:#575758;enable-background:new    ;}
	.st43{opacity:0.67;enable-background:new    ;}
	.st44{opacity:0.98;fill:#6E6E6F;enable-background:new    ;}
	.st45{opacity:0.75;enable-background:new    ;}
	.st46{opacity:7.000000e-002;enable-background:new    ;}
	.st47{opacity:0.58;enable-background:new    ;}
	.st48{opacity:0.98;fill:#4A4A4A;enable-background:new    ;}
	.st49{fill:#3A3A3A;}
	.st50{opacity:0.98;fill:#29292A;enable-background:new    ;}
	.st51{fill:#C2C3C5;}
	.st52{fill:#1C1C1C;}
	.st53{opacity:0.98;fill:#101010;enable-background:new    ;}
	.st54{opacity:0.97;fill:#070707;enable-background:new    ;}
	.st55{opacity:0.82;enable-background:new    ;}
	.st56{opacity:0.95;fill:#A1A2A4;enable-background:new    ;}
	.st57{fill:#D8D9DA;}
	.st58{opacity:5.000000e-002;enable-background:new    ;}
	.st59{opacity:0.42;fill:#001000;enable-background:new    ;}
	.st60{opacity:0.98;fill:#093D09;enable-background:new    ;}
	.st61{fill:#005500;}
	.st62{fill:#006F00;}
	.st63{fill:#008600;}
	.st64{fill:#009900;}
	.st65{fill:#C2C4C6;}
	.st66{fill:#C1C2C4;}
	.st67{opacity:4.000000e-002;enable-background:new    ;}
	.st68{opacity:0.62;enable-background:new    ;}
	.st69{opacity:0.47;enable-background:new    ;}
	.st70{opacity:0.66;enable-background:new    ;}
	.st71{fill:#C1C3C4;}
	.st72{fill:#000600;}
	.st73{fill:#A3A8A3;}
	.st74{fill:#CACACA;}
	.st75{opacity:0.55;fill:#001600;enable-background:new    ;}
	.st76{fill:#0C0D0D;}
	.st77{fill:#646864;}
	.st78{fill:#909590;}
	.st79{fill:#FDF8AA;}
	.st80{opacity:0.96;fill:#053905;enable-background:new    ;}
	.st81{fill:#363A36;}
	.st82{fill:#BDC3BD;}
	.st83{fill:#848584;}
	.st84{fill:#636F63;}
	.st85{fill:#939393;}
	.st86{fill:#009700;}
	.st87{fill:#FDF697;}
	.st88{fill:#C4C5C7;}
	.st89{fill:#414141;}
	.st90{fill:#004000;}
	.st91{fill:#FEF8B9;}
	.st92{fill:#B8BABC;}
	.st93{fill:#D47E4A;}
	.st94{fill:#4E854E;}
	.st95{fill:#FAF27C;}
	.st96{fill:#FEFACB;}
	.st97{fill:#BFC7A2;}
	.st98{fill:#FAF166;}
	.st99{opacity:0.61;fill:#979136;enable-background:new    ;}
	.st100{fill:#FBF0B9;}
	.st101{fill:#D47D4B;}
	.st102{fill:#FFC858;}
	.st103{fill:#000B00;}
	.st104{fill:#D1743C;}
	.st105{fill:#FBF276;}
	.st106{fill:#002B00;}
	.st107{fill:#0D0D0D;}
	.st108{fill:#A2A8A2;}
	.st109{fill:#FEF8D7;}
	.st110{fill:#353535;}
	.st111{fill:#C9C9C9;}
	.st112{fill:#FEF7A9;}
	.st113{fill:#FDF38B;}
	.st114{fill:#D17442;}
	.st115{fill:#607859;}
	.st116{fill:#D27840;}
	.st117{fill:#FCF48C;}
	.st118{fill:#FEFCF9;}
	.st119{fill:#005D00;}
	.st120{fill:#FECD66;}
	.st121{fill:#005F00;}
	.st122{fill:#D17545;}
	.st123{fill:#FCF5A0;}
	.st124{fill:#C1C3C5;}
	.st125{fill:#CBCDCE;}
	.st126{fill:#FEFAE5;}
	.st127{fill:#FFF9B8;}
	.st128{fill:#D27842;}
	.st129{fill:#001200;}
	.st130{fill:#269926;}
	.st131{fill:#ECEA75;}
	.st132{fill:#236A23;}
	.st133{fill:#363636;}
	.st134{opacity:0.65;fill:#606264;enable-background:new    ;}
	.st135{fill:#656865;}
	.st136{fill:#616161;}
	.st137{fill:#FEF8B4;}
	.st138{fill:#D37A4C;}
	.st139{fill:#365738;}
	.st140{fill:#9EA1A3;}
	.st141{fill:#FEFACD;}
	.st142{fill:#FECF73;}
	.st143{fill:#F2DB65;}
	.st144{fill:#BCC2BC;}
	.st145{fill:#D47D49;}
	.st146{fill:#FFFAB9;}
	.st147{fill:#003C00;}
	.st148{fill:#124912;}
	.st149{fill:#ECC38B;}
	.st150{fill:#000400;}
	.st151{fill:#697A6C;}
	.st152{fill:#004100;}
	.st153{fill:#1A661A;}
	.st154{fill:#F7D057;}
	.st155{fill:#FFF2CF;}
	.st156{fill:#718553;}
	.st157{fill:#040404;}
	.st158{fill:#CC6633;}
	.st159{fill:#D98C65;}
	.st160{fill:#E7B496;}
	.st161{fill:#F2D8C0;}
	.st162{fill:#969798;}
	.st163{fill:#758279;}
	.st164{opacity:0.25;fill:#242525;enable-background:new    ;}
	.st165{fill:#E5B196;}
	.st166{fill:#D98B64;}
	.st167{fill:#F2D8C3;}
	.st168{fill:#F2D7A2;}
	.st169{fill:#939793;}
	.st170{fill:#1E6D1E;}
	.st171{fill:#FBC54B;}
	.st172{fill:#F2D7A6;}
	.st173{fill:#007400;}
	.st174{fill:#3E993E;}
	.st175{fill:#EECBB5;}
	.st176{fill:#FBF9EA;}
	.st177{fill:#D2784B;}
	.st178{fill:#D37C4A;}
	.st179{fill:#FEBD41;}
	.st180{fill:#196719;}
	.st181{fill:#C0C1C3;}
	.st182{fill:#AAABAC;}
	.st183{fill:#696A6B;}
	.st184{fill:#D37A4E;}
	.st185{fill:#FFE09C;}
	.st186{fill:#C8CACB;}
	.st187{fill:#D27948;}
	.st188{fill:#D2774A;}
	.st189{fill:#D27748;}
	.st190{opacity:0.61;fill:#595B5D;enable-background:new    ;}
	.st191{fill:#7F8982;}
	.st192{fill:#D17648;}
	.st193{opacity:0.76;fill:#C2C2C2;enable-background:new    ;}
	.st194{opacity:0.36;fill:#5C5C5C;enable-background:new    ;}
	.st195{fill:#CECFD0;}
	.st196{fill:#6A6B6C;}
	.st197{fill:#245326;}
	.st198{fill:#C5C7C8;}
	.st199{opacity:0.64;fill:#001A00;enable-background:new    ;}
	.st200{fill:#005800;}
	.st201{fill:#3B3C3C;}
	.st202{fill:#CCCDCF;}
	.st203{fill:#BCBDBF;}
	.st204{opacity:0.25;enable-background:new    ;}
	.st205{opacity:0.97;enable-background:new    ;}
	.st206{fill:#C9CACC;}
	.st207{fill:#CDCED0;}
	.st208{fill:#D3D4D6;}
	.st209{fill:#D5D6D8;}
	.st210{opacity:0.46;enable-background:new    ;}
	.st211{opacity:0.49;enable-background:new    ;}
	.st212{opacity:0.5;enable-background:new    ;}
	.st213{opacity:0.24;enable-background:new    ;}
	.st214{opacity:0.73;enable-background:new    ;}
	.st215{opacity:0.93;enable-background:new    ;}
	.st216{opacity:0.62;fill:#001800;enable-background:new    ;}
	.st217{opacity:0.41;fill:#001000;enable-background:new    ;}
	.st218{opacity:0.96;enable-background:new    ;}
	.st219{opacity:0.52;enable-background:new    ;}
	.st220{opacity:0.51;enable-background:new    ;}
	.st221{opacity:0.44;enable-background:new    ;}
	.st222{opacity:0.5;fill:#4E4F50;enable-background:new    ;}
	.st223{opacity:0.26;fill:#282829;enable-background:new    ;}
	.st224{opacity:0.86;fill:#87898B;enable-background:new    ;}
	.st225{fill:#3F4040;}
	.st226{fill:#424343;}
	.st227{fill:#D7D8D9;}
	.st228{fill:#3D3E3E;}
	.st229{fill:#D5D6D7;}
	.st230{fill:#C3C5C6;}
	.st231{fill:#3C3D3D;}
	.st232{fill:#8B8C8E;}
	.st233{fill:#404141;}
	.st234{fill:#D4D6D7;}
	.st235{fill:#88898B;}
	.st236{fill:#323333;}
	.st237{fill:#C6C8C9;}
	.st238{fill:#C7C8CA;}
	.st239{fill:#999A9B;}
	.st240{fill:#343434;}
	.st241{fill:#494949;}
	.st242{fill:#232323;}
	.st243{fill:#DADBDC;}
	.st244{fill:#D1D2D3;}
	.st245{fill:#DBDCDD;}
	.st246{fill:#020202;}
	.st247{fill:#5A5B5B;}
	.st248{fill:#2A2A2A;}
	.st249{fill:#707071;}
	.st250{fill:#4C4C4D;}
	.st251{fill:#343535;}
	.st252{fill:#ACACAD;}
	.st253{fill:#383939;}
	.st254{fill:#4C4C4C;}
	.st255{fill:#464647;}
	.st256{fill:#313232;}
	.st257{fill:#9FA0A1;}
	.st258{fill:#272727;}
	.st259{opacity:0.64;fill:#5F6062;enable-background:new    ;}
	.st260{opacity:0.62;fill:#5D5E60;enable-background:new    ;}
</style>
<g id="Layer_2">
	<circle class="st0" cx="281.9" cy="59.2" r="274.2"/>
</g>
<g id="Layer_1">
	<g id="_x23_5c5e60a1">
		<path class="st1" d="M266-241h11.4c-3.8,0.8-7.6,1.1-11.4,1L266-241z"/>
	</g>
	<g id="_x23_9d9fa1f9">
		<path class="st2" d="M277.4-241h17.2c3.4,0.7,6.9,1.1,10.4,1c19.3,0,38.3,4.4,57,9c51.4,13.7,98.7,42.1,135.7,80.3
			c41.5,44.2,70.1,101.1,77.5,161.6c0.6,3.5,0.3,7.3,1.8,10.6v57.1c-5.8,53.1-25.6,104.8-58.2,147.2
			C469.5,291.4,391.1,334.7,309,340c-2.9,0-5.9-0.5-8.5,1h-29.1c-2.8-0.5-5.6-1-8.4-1c-18.3,0.1-36.3-4.8-54-8.9
			c-38.8-10.4-75.3-29.3-106.7-54.4C55,238.7,20,185.5,4,127c-4.6-17.6-7.8-35.6-9.3-53.7c0-2.9,0.5-5.8-0.4-8.5
			c-0.1-1.7-0.2-5-0.3-6.7c0-5.3,0-10.7,0-16c0-1.9,0.1-3.9,0.2-5.8c0.4-2.8,0.7-5.6,0.6-8.4c5.7-84,50.7-164,119-212.9
			c44.2-32,97.6-52.2,152.2-54.9C269.8-239.9,273.6-240.2,277.4-241 M271.4-236.4c-63.4,2.9-125.4,27.8-173.5,69.2
			C37-115.3-0.4-36.9-2,43C-3,91.8,8.2,140.8,31,184c13.3,24.3,29.1,47.6,49.2,66.8C124.3,297,184.9,326.3,248,335
			c64.1,8.1,131-5.1,186.4-38.6c23.5-14.5,45.6-31.6,63.9-52.2C544.4,194.9,571.5,128.4,574,61c2.2-65.5-18.2-131.7-58.2-183.8
			C459.8-197.9,364.9-242.2,271.4-236.4z"/>
	</g>
	<g id="_x23_5f6163a6">
		<path class="st3" d="M294.6-241H305l0,1C301.5-239.9,298-240.3,294.6-241z"/>
	</g>
	<g id="_x23_bcbebfff">
		<path class="st4" d="M271.4-236.4c93.6-5.8,188.4,38.5,244.5,113.6C555.8-70.7,576.2-4.5,574,61c-2.5,67.4-29.7,133.9-75.8,183.2
			c-18.3,20.6-40.4,37.7-63.9,52.2C379,329.9,312.1,343.2,248,335c-63.1-8.7-123.7-38-167.7-84.3C60.1,231.6,44.4,208.2,31,184
			C8.2,140.8-3,91.8-2,43c1.6-79.9,39-158.3,99.8-210.2C145.9-208.6,207.9-233.5,271.4-236.4 M246.9-229.2
			c-48.1,6.3-94.3,25.9-132.9,55.2C45-122,1.9-36.6,3,50c-0.5,70.6,27,141.1,75.7,192.3c3.3,4.6,7.4,8.7,12,12.1
			c26.5,25.7,58.5,45.8,93,59.1c14.4,5.3,29.1,10.8,44.4,12.4l0-1c5.3,6.3,15.7,7.9,22.8,4.1c0.1,0.5,0.2,1.5,0.2,2
			c2.5-1.6,11.6,4.5,11.1-1.1c5.4,5,14.6,4.1,21,1.3c-1.3,3.6,4.3,1.5,6.8,1.9l0.7-0.4c3.8,0.5,7.5,0.3,11.3,0.3c5,0,9.9-1.3,15-1.1
			c0-0.5,0.1-1.5,0.1-2c0.9,1.3,2.5,1.1,4,1.1c3.6,0.1,7.3-0.3,10.9-1.2l-0.1-0.8c52.7-9.1,103.1-32.5,142.9-68.3
			c7-6.6,14.8-12.6,20.6-20.4c30.1-32.5,52-72.6,63.9-115.3c25.2-88.9,2.5-189.4-58.4-258.8C439.5-205.7,340.5-243.6,246.9-229.2z"
			/>
	</g>
	<g id="_x23_dcdddeff">
		<path class="st5" d="M246.9-229.2c93.6-14.4,192.6,23.5,253.8,95.4c60.9,69.4,83.6,169.9,58.4,258.8
			c-11.9,42.7-33.7,82.7-63.9,115.3c-5.8,7.9-13.5,13.8-20.6,20.4c-39.8,35.8-90.2,59.2-142.9,68.3c-0.5-3-1-5.9-0.7-8.9
			c4-1.6,9.4-0.9,12.2-4.9c1.4-2.1,1.9-4.8,1.4-7.2c4.9-2.3,10.1-3.9,15.4-5c76.8-22.2,142.6-80.6,171.7-155.3c1-2,1.3-4.5,3.5-5.4
			c2-0.8,3.5-2.4,4.9-4.1l1-0.1c-0.3,2-0.7,3.9-1,5.9c6.3,1.9,8.3-4.9,9.5-9.3c1.2-2.9-0.9-5.7-2.9-7.6c-7.3-2.7-8.8,6-13.6,9
			c-1.3-1.3-1.3-3.2-1.1-4.9c1.5-0.9,3.2-1.4,4.7-2.4c0.3-2,1.3-4.2,0.4-6.2c0.9-6.9,3.8-13.5,3.8-20.5c0.1-2.4,0.6-4.7,1-7
			c1.3-1.1,2.6-2.1,4.3-1.1c-0.3,2.3-0.7,4.5-1,6.8c1.7,2.6,8.5,1.5,5.1-3.7c0.5-2.4,0-6.3,3.6-5.1c0.1,4-0.5,8-0.9,12
			c1.3,0,2.5,0,3.8-0.1c1.3-5.8,2.5-11.8,3.2-17.7c-5.1-0.3-10-1.4-15-2.2c-1.1-4.4,0.4-9,0.5-13.4c0.6-3.2-0.2-7.1,2.3-9.6
			c2.1-2.7,0.9-5.4-1.3-7.4c-3.2-6.6,3.8-5.8,7.6-5.6c2.5-0.5,3.1,2.3,4,4c-1.4,2.5-5.1,6.5-1.8,8.9c6.1-0.1,7.4-8.5,6-13
			c-1.2-6.9-9.6-7.6-15.3-6.7c-1.1-7.7-1.4-15.5-1.9-23.3c4.8-1.5,10.7-0.4,15-3.1c2.4-9.3-7.4-4.4-12-3.9c3-3.7,6.6-6.9,10.2-10
			c-0.1-2-0.8-3.9-1.3-5.8c-5,0.2-9.9,1.6-14.8,2.3c-3.5-7-2.6-15.6-6.6-22.4c-1.4-3.3-5.7-9.1-0.5-11c2.5,2.4,2.6,6.1,4.3,9
			c1.3-0.2,2.6-0.7,3.8-1.2c-0.7-3-2.6-5.7-2.9-8.8c-0.1-1.4,1.5-2.3,2.7-1.9c1.3,3.2,2.1,6.6,3.5,9.8c1.6,0.2,3.5,0.4,4.7-1
			c-2.2-5.6-3.6-11.4-6-16.8c-5.2,1.7-10.2,3.9-15.6,5.2c-2.5-7.5-6.3-14.5-8.4-22.1c4.2-2.3,8.6-4.2,12.9-6.4c0.7-2.1-0.9-4-2-5.6
			c-5.4,0.4-9.8,4.4-14.8,6.4c-3.5-6.7-8.7-12.8-11-20c2.9-3.6-1.2-8.9-5.8-6.6c-3.5-4.5,1.9-8.4,5.9-9.7c2.8-0.2,5.3,2.4,4.4,5.3
			c-0.5,2.4,3.6,6.5,5.5,3.5c2.5-7.7-4.7-16.8-12.9-14.7c-3.3,1.2-6.3,3.1-8.3,6c-4.4-6.1-11-10.8-13.9-17.8c2.7-2.7,2.6-6.8,1-10.1
			c0.3-0.3,0.8-1,1-1.3c1.2,1.5,2.4,3,4,4.2c6.2-6.6-5.1-18.2-12.1-13.3c-4.1,4.6,0.8,10.5,2.3,15.1c-2.1,2.8-8-1-4.4-4.5
			c0.2-2.7-3.6-3.3-5.5-4.4c-12.9-11.1-25.8-22.7-40.8-30.9c-2.8-1.3,1-3.2,1.6-4.8c-1.4-1.3-2.8-3.4-4.9-2.5
			c-1.9,0.6-0.6-2.4-0.8-3.4c3.1,0.1,8.6-2.9,6-6.3c-2-4.3-10-7.9-12.6-2.6c1.8,7.2-7.6,3-8.7,8.6c-14.7-9.2-31.6-14.1-47.8-20
			c2.4-3.8-1.2-7.2-4.1-9.2c1.1-0.3,2.2-0.5,3.3-0.7c4.9,1.4,2.4-4.6,0.1-6.2c-4.4-3.2-13.7-4.4-15.2,2.3c-0.8,5.9,6.3,7.4,9.9,10.1
			c0.5,2.8-2.8,3.2-4.8,2.7c-1.2-3.3-3.6-6.6-8-4.9c0,0.4-0.1,1.3-0.1,1.8c-0.1,0.8-0.2,2.4-0.3,3.2c-8.3-0.2-16.5-2.4-24.8-3.1
			c-2.6-0.2-2-3.3-2.3-5.1c0.1-2.9,0.1-5.8,0.4-8.6c2.1-2.1,5.8-0.2,7.8-2.4c0-1.6,0.7-3.8-1.2-4.6c-6.6-0.1-13.1-1.3-19.7-1.3
			c-3,6.4,3.7,5.1,6.9,6.3c-0.2,3.5-0.8,7-1.2,10.5c-0.4,1.4-0.6,2.8-1,4.1c-8.2-0.6-16.4-1.5-24.6-0.5c-2-2.8-4.1-5.6-6.1-8.4
			c2.9-2.7,4.3-7.3,1.7-10.6c-3.1-2.1-7.1-1.1-10.6-1.2c-3.6-1.6-6-1.3-7,0.9c-0.1,4-0.1,7.9,0,11.9c-1.1,2.9-0.9,5.3,0.7,7.3
			l-0.1,1c-6.8,0.9-13.6,1.9-20.4,2.9c-4.6-5.7-8.4-12-12.5-18.1c-2.5,0.6-6.4,0.3-7.1,3.5c-1.2,6.5-1.8,13.1-3,19.6
			c-16.6,5.7-33.1,11.7-48.7,19.8c-1.9,1-4,2.3-6.2,1.3c-0.9-1.6-1.9-3.3-2.5-5c2.5-2.1,8.9-2.9,5.6-7.2c-3.3-0.6-5.3,3.7-8.6,2.8
			c-2.7-3.5,2.7-4.2,4.8-5.9c3.5,0.2,2.2-6.4-0.7-4.6c-4.5,2-8.9,4.2-13.1,6.9c2.8,5.7,6.1,11.1,8.9,16.7c-0.8,1.2-1.4,2.7-2.8,3.4
			c-5.5,3.5-11,7-16.4,10.6c-0.7-0.6-1.3-1.3-1.7-2.2c-1.3-5.9-6.7-12-13.3-10.8c-5.2,2-11.3,6.5-10,13c0.3,3.8,4.1,6.2,6.3,9
			c-12.7,12.3-26.4,24-36.4,38.7c-1.5,2.8-3.4,5.4-5.2,7.9c-1.3-0.4-2.5-1.1-3.6-1.8c1.5-3.2,3.9-5.8,5.8-8.8c-1-1-2-2.3-3.6-2.2
			c-1.9,2.6-3.8,5.2-5.6,7.8c-0.9-0.6-1.7-1.3-2.5-1.9c1.4-3.3,4-5.9,5.8-8.9c-0.5-1.5-2.5-2-3.7-2.9c-3.2,5-7.1,9.5-10,14.6
			c4.1,3,8.3,6,12.3,9.1c-2.9,6.6-7.3,12.5-11,18.8c-0.4,0.2-1.2,0.6-1.6,0.8c-1.9-0.9-3.5-2.6-5.8-2.4c-1.4,2.9-3.6,5.6-4.1,8.8
			c3.5,5.5,9.2-9.7,6.9,3.1c-2.5,6.3-14.6,1-11.8-5.7c2.9-2.1,5.8-4.3,5.9-8.3c-5.8-1.9-8.7,4.1-10.7,8.3
			c-3.5,6.9,3.1,13.9,9.7,14.8c-0.5,8.1-6,15-8,22.8c-1.4,3.6-0.3,11-6.1,9c-0.2-3.8,2.3-7.1,2.1-11c-5.6-1.6-5.3,5.4-6.3,9
			c-1.2-0.2-2.3-0.7-3.4-1.1c0.9-3.6,2-7.1,2.7-10.7c-1.3-0.3-2.5-0.7-3.8-0.9c-2,5.4-4.1,10.9-5.1,16.6c5.1,2.2,10.8,3.2,15.9,5.4
			c-1.3,7.2-1.6,15.6-5.8,21.8c-2.3,2.4,0.1,6.6-2.4,8.9c-5.3,0.4-10.5-0.9-15.7-1.8c-0.4,2.2-0.7,4.4-1,6.7
			c4.9,0.8,9.8,1.4,14.7,2.3c-0.9,10.6-2,21.2-1.9,31.9c-5,0.2-9.9-0.2-14.9,0.1c0,0.8-0.1,2.3-0.1,3c0,1.3,0,2.6,0,3.9l0.1,1
			c2.7,0,8.2,0,10.9,0c1.3,0,2.6,0,4,0c0.9,7.2,1.6,14.5,1.9,21.7c-1,0.3-2.1,0.6-3.1,0.9C15.4,81,9.3,89,12.8,96.1
			c2.1,7.4,10.8,8.4,17.1,5.7c1.3,7.3,5.8,14.8,4.3,22.2c-1.5,3.5-1,5.4,1.6,5.9c3.1,0.1,5.1,3,4.2,5.9c-3,1.6-7.7,5.1-10.8,1.9
			c-2.9-2.3,1.2-6.2-1.1-8.9c-0.5-2.5-3.6-2.5-4.1,0c-5.5,8.3,4.9,21.1,14,15.6c1.8,2.6,2.8,5.6,4,8.4c13.8,32.4,34.2,62,59.3,86.7
			c18.4,16.4,38,31.7,60,43c19.1,10.5,39.7,17.9,60.6,23.5c2.1,0.6,4.2,0.8,6.4,0.9c-0.8,5.8-2.5,12.1-0.1,17.7l0,1
			c-15.4-1.6-30-7.1-44.4-12.4c-34.5-13.3-66.5-33.4-93-59.1c-4.6-3.4-8.7-7.4-12-12.1C30,191.1,2.4,120.6,3,50
			c-1-86.6,42-172,111-224C152.6-203.3,198.8-222.9,246.9-229.2z"/>
	</g>
	<g id="_x23_89898aff">
		<path class="st6" d="M258.1-225c1-2.2,3.3-2.5,7-0.9C263.1-224.4,260.8-224.1,258.1-225z"/>
	</g>
	<g id="_x23_060606ff">
		<path class="st7" d="M265.1-225.9c3.5,0.1,7.5-0.9,10.6,1.2c2.6,3.4,1.2,7.9-1.7,10.6c2,2.8,4.1,5.6,6.1,8.4
			c-2.7,0.3-5.3,0.8-7.9,0.5c-2.2-2.7-3.2-7.5-7.2-8.1c-0.3,3.1,0.1,6.2,0.6,9.3c-2.4,0.3-4.7,0-6.9-0.9l0.1-1
			c1.4-3,1.1-5.5-0.7-7.3c-0.1-4-0.1-7.9,0-11.9C260.8-224.1,263.1-224.4,265.1-225.9 M266.3-221.7c-3,0.2-1.5,2.7-1.1,4.6
			c2,0.4,3.9-0.3,5.7-1.1C271.2-220.4,268.5-222.9,266.3-221.7z"/>
		<path class="st7" d="M121-170.9c6.6-1.2,12,4.9,13.3,10.8c0.3,5.5-4.4,9-8.3,12c-2.9,0-5.9,0.1-8.7-0.8c-2.2-2.9-6-5.2-6.3-9
			C109.7-164.5,115.8-169,121-170.9 M119.3-164.8c-4,2.3-1.9,7.3,0.9,9.6c2.5,3.6,9,0.4,7.8-3.7
			C126.7-162.4,123.7-166.8,119.3-164.8z"/>
	</g>
	<g id="_x23_0f0f0fff">
		<path class="st8" d="M300-226c6.6,0,13.1,1.2,19.7,1.3c2,0.7,1.3,2.9,1.2,4.6c-2,2.2-5.7,0.3-7.8,2.4c-0.3,2.9-0.3,5.8-0.4,8.6
			c0.6,5.1-1.6,6.8-6.6,5.2c-0.2-1.7-0.3-3.5-0.4-5.2c0.4-3.5,1-7,1.2-10.5C303.7-220.9,297-219.6,300-226z"/>
	</g>
	<g id="_x23_c5c6c7ff">
		<path class="st9" d="M266.3-221.7c2.2-1.2,4.9,1.3,4.6,3.5c-1.8,0.8-3.7,1.5-5.7,1.1C264.8-219,263.3-221.5,266.3-221.7z"/>
	</g>
	<g id="_x23_090909ff">
		<path class="st10" d="M218.7-216.3c0.7-3.2,4.6-2.9,7.1-3.5c4.1,6,7.9,12.4,12.5,18.1c-1.8,1.6-6,3.9-7.4,0.8
			c-1.7-2.2-5.4-0.1-7.7,0.2c-1.1,3.2-4.1,6.3-7.6,4.1C216.8-203.3,217.4-209.9,218.7-216.3 M223.1-213.1c0,1.8,0,5.3,0,7.1
			c1.3,0.1,2.7,0.1,4,0C227.2-208.9,225.1-211.4,223.1-213.1z"/>
		<path class="st10" d="M38.3-73.6c2-4.2,4.9-10.3,10.7-8.3c-0.1,3.9-3,6.2-5.9,8.3c-2.8,6.7,9.3,12,11.8,5.7
			c2.3-12.8-3.4,2.4-6.9-3.1c0.5-3.2,2.7-6,4.1-8.8c2.2-0.2,3.9,1.5,5.8,2.4c3.4,1.1,3.7,4.1,2.9,7.5c-1.5,3.1-2.9,6.2-4.8,9.1
			c-2.4,1.6-5.1,2.3-8,2.3C41.5-59.8,34.8-66.7,38.3-73.6z"/>
		<path class="st10" d="M12.8,96.1C9.3,89,15.4,81,22.8,80.6c3,0.1,6,0.8,8.5,2.6c1.1,1.8,2.2,3.7,3,5.6c0,1.8-0.1,5.5-0.1,7.3
			c0,0.4,0,1.1,0,1.5c-1.5,1.4-2.9,2.8-4.2,4.3C23.5,104.5,14.9,103.5,12.8,96.1 M23.3,87.4c-1.9,0.6-4.6,0.2-5.4,2.6
			c-3,3.7,2.7,8.9,6.4,6.5c1.4-0.9,4.5-0.6,4.6-2.5C31.8,89.1,26.5,87.3,23.3,87.4z"/>
	</g>
	<g id="_x23_0c0c0cff">
		<path class="st11" d="M343-213.9c1.5-6.7,10.8-5.6,15.2-2.3c2.3,1.6,4.8,7.6-0.1,6.2c-3.1-1-5.7-6.9-9.1-3.8
			c1.1,2.3,3.8,3.3,5.8,4.6c2.9,2,6.5,5.5,4.1,9.2c-1.6,3.3-5.4,4.3-8.8,3.8c-4.5-0.9-9.2-2.8-10-7.9c0-0.5,0.1-1.4,0.1-1.8
			c4.4-1.6,6.8,1.7,8,4.9c2,0.5,5.3,0.1,4.8-2.7C349.3-206.5,342.3-208.1,343-213.9z"/>
		<path class="st11" d="M517-69.6c5-1.9,9.4-5.9,14.8-6.4c1.1,1.6,2.7,3.5,2,5.6c-4.3,2.2-8.7,4.1-12.9,6.4c-1.9,0.9-3.8,2-5.8,2.8
			c-0.9-1.5-2.1-3-2.1-4.9C512.5-68.4,515.6-68.5,517-69.6z"/>
		<path class="st11" d="M546.9,41.2c5.7-0.9,14.2-0.2,15.3,6.7c1.4,4.5,0.1,12.9-6,13c-3.3-2.4,0.4-6.4,1.8-8.9
			c-0.9-1.7-1.5-4.6-4-4c-3.9-0.2-10.8-1-7.6,5.6c2.2,2,3.5,4.7,1.3,7.4c-3.4,0.2-5.9-2.1-6.8-5.1c0-2.6,0-5.1-0.1-7.7
			C541.4,44.9,544.7,43.4,546.9,41.2z"/>
	</g>
	<g id="_x23_b2b3b4ff">
		<path class="st12" d="M349-213.9c3.4-3.1,6,2.8,9.1,3.8c-1.1,0.2-2.2,0.5-3.3,0.7C352.8-210.6,350.1-211.6,349-213.9z"/>
	</g>
	<g id="_x23_bdbebfff">
		<path class="st13" d="M223.1-213.1c2,1.7,4.2,4.3,4,7.1c-1.3,0.1-2.7,0.1-4,0C223-207.8,223-211.4,223.1-213.1z"/>
	</g>
	<g id="_x23_858687ff">
		<path class="st14" d="M258.1-213.1c1.9,1.9,2.1,4.3,0.7,7.3C257.2-207.8,256.9-210.2,258.1-213.1z"/>
	</g>
	<g id="_x23_aaacaefe">
		<path class="st15" d="M265-213.2c4,0.5,5,5.4,7.2,8.1c2.7,0.3,5.2-0.3,7.9-0.5c8.2-1,16.4,0,24.6,0.5c0.3-1.4,0.6-2.8,1-4.1
			c0.1,1.7,0.2,3.5,0.4,5.2c5,1.6,7.2-0.1,6.6-5.2c0.3,1.8-0.2,4.9,2.3,5.1c8.3,0.7,16.5,2.8,24.8,3.1c0.1-0.8,0.2-2.4,0.3-3.2
			c0.8,5.1,5.5,7,10,7.9c-0.3,0.3-0.9,0.8-1.1,1c19.1,5.4,37.8,12.4,55.3,21.9c1.5,0.9,3.1,1.5,4.8,0.8c4.3,2.3,10.3,2.2,12.9,6.8
			c-0.2,0.4-0.6,1.3-0.8,1.7c15.9,9.7,29.8,22,43.7,34.2c0.3-0.3,0.9-0.8,1.3-1.1c1.9,3,4.1,5.8,6.9,7.9c-0.5,0.1-1.6,0.2-2.2,0.2
			c7.9,8.5,14.9,17.8,22,27c0.4-0.3,1-0.8,1.4-1.1c1.1,1.9,2.3,3.9,3.5,5.8c-1.2,1.3-0.1,2.7,0.6,3.9C504.1-78.5,509-69.2,514-60
			c4.3,7.8,6.4,16.5,10.8,24.2c0.1-0.6,0.3-1.8,0.3-2.4c2.1,5.1,3.6,10.5,5.8,15.6c-0.4,0.2-1.2,0.7-1.6,0.9
			c2.1,7.9,3.5,16.2,6.5,23.7c2.5,4.3,8.7,0.2,12.3,1.2c-3.8,3.9-11.4,7-9.6,13.6c-1.1,10.3,0.9,20.5,0.5,30.8
			c0.4,0.1,1.2,0.4,1.6,0.5c0,2.6,0.1,5.1,0.1,7.7c-0.4,0.1-1.3,0.4-1.7,0.5c0.9,11-3.2,22.1-1.5,32.9c-0.1,3.3-0.1,6.9-2,9.7
			c-3.4,8.6-4.8,18-7.7,26.9c0.5,0,1.3,0.1,1.8,0.2c-1.3,2.9-3,5.7-2.9,9c-2.5-2-3.7,1.9-4.3,3.7c-16.4,45.3-47.3,84.5-85.6,113.4
			c-29.3,21.5-63.1,37-98.7,44.3c-2.3,0.3-4.1,1.6-5.4,3.5c-4.9,1.6-10.3,1.1-15.1,2.8c-0.9,0.3-1.7,0.7-2.5,1.1c-1-0.4-2-0.7-2.9-1
			c-0.2-0.4-0.6-1.2-0.7-1.6c-21.4,0.5-43,0.4-64.3-2.5c-19-3.4-37.7-8.2-55.6-15.4C139.5,262.6,94.8,223.7,67.1,175
			C33.6,117.4,24.9,46.1,42.9-17.9c-1.3-0.5-2.7-0.5-4-0.8c2.4-1.7,2.5-4.9,3.7-7.3c0.3,0.2,0.9,0.7,1.2,0.9
			c4-12.2,9.2-23.9,14-35.8c-0.4,0-1.4-0.1-1.8-0.2c1.8-2.9,3.3-6,4.8-9.1c0.1,0.6,0.3,1.8,0.4,2.3C66.8-76,71.7-84.6,77-92.9
			c-0.3-0.3-0.8-0.8-1-1.1c2.9-4,4.9-9.1,9.1-11.9c3.5-1.1,5-5.1,7.6-7.4c9.1-11.8,20-22,31.5-31.5c0.1-0.6,4.2-2.9,1.8-3.3
			c3.9-3.1,8.6-6.5,8.3-12c0.4,0.9,0.9,1.6,1.7,2.2c5.4-3.6,10.9-7.1,16.4-10.6c1.4-0.7,2-2.2,2.8-3.4c1.6,3.7,4.5,0.2,6.6-1.2
			c-0.3-0.8-0.6-1.7-1-2.5c2.2,1,4.3-0.3,6.2-1.3c15.6-8.1,32.1-14,48.7-19.8c3.5,2.3,6.5-0.9,7.6-4.1c2.3-0.3,6-2.4,7.7-0.2
			c1.4,3,5.6,0.8,7.4-0.8c6.8-1,13.6-2,20.4-2.9c2.2,0.8,4.5,1.1,6.9,0.9C265.1-206.9,264.7-210,265-213.2 M274.2-196.1
			c-26.6,1.3-53.1,6.5-77.9,16.4c-33,12.4-62.6,32.8-87.6,57.4c-11.4,13-23.4,26-31.8,41.2c-3,2.2-3.6,6.3-6,8.9
			C53.1-40.8,42.1-5.7,39,30.1c-1.9,1-1.3,4.9-0.6,6.8C37.6,47.2,38.1,57.6,38,68l1,0c-0.1,1.4,0.1,2.7,0.5,4
			c-0.9,1.8-1.7,6,0.5,6.9c0.5,16,5.9,31.3,9.5,46.8C61.6,160,79.7,192.6,105,219c4.3,5,9,10.5,14.7,13.6c1.6,3.4,5.4,5.2,8,7.8
			c39.6,32.9,89.6,52.7,140.9,56.3c1.8,0.2,3.7,0.7,5.4-0.1c2.1,0.9,4.8,1.2,6.9,0.1c3.3,0.7,6.8,0.5,10.2,0c2.1,0.8,4.7,0.8,6.8,0
			c2.4,0,7.2,1.5,8.1-0.6c45.6-4,90.4-20.2,127.2-47.8c4.2-1.1,7.2-4.8,10.9-7.1c29.1-26.4,55-57.5,69.8-94.2
			c1.5-4.1,4-7.9,4.4-12.3l0.6,0.3c3.9-11.1,7.3-22.4,9.3-34c2,0.7,0.3-2.7,0.4-3.7c3.8-12.3,4.6-25.4,4.4-38.3l1,0c0.2-6,0-12,0-18
			l-1,0c-0.1-1.7,0.2-3.5-0.5-5.1c0.5-1.9,1.3-5.5-0.4-6.7C529.3-9.5,516.4-47.1,496-80c-12.5-21.2-29.6-38.9-47.3-55.6
			c-11.3-9.1-22.7-18.6-35.6-25.3c-2.1-2.3-5.6-3.2-8.1-5c-27.8-15.2-58.5-25.1-90-28.8l0.1-1.1c-3.1-0.2-6.2,0-9.3,0.2
			c-2.6-0.3-5.3-0.4-7.9-0.3c-1-1.9-4.9-1.3-6.8-0.6c-3.3-0.6-6.9-0.6-10.2,0C279-197.3,275.2-197.9,274.2-196.1z"/>
	</g>
	<g id="_x23_c5c6c8ff">
		<path class="st16" d="M350.2-196.3c3.4,0.5,7.1-0.6,8.8-3.8c16.1,6,33,10.9,47.8,20c-0.6,2.7,0.8,5.4,2.4,7.5
			c-1.7,0.7-3.3,0.1-4.8-0.8c-17.4-9.6-36.2-16.5-55.3-21.9C349.3-195.5,349.9-196,350.2-196.3z"/>
		<path class="st16" d="M117.3-148.9c2.8,0.9,5.8,0.8,8.7,0.8c2.4,0.4-1.7,2.8-1.8,3.3c-11.5,9.5-22.4,19.7-31.5,31.5
			c-2.6,2.3-4.1,6.3-7.6,7.4c2.5-2.9-1.5-5.5-4.2-4.3C90.9-124.9,104.6-136.6,117.3-148.9z"/>
	</g>
	<g id="_x23_747678bd">
		<path class="st17" d="M274.2-196.1c1-1.9,4.9-1.3,6.7-0.6l0,0.6C279.2-196,275.8-196.1,274.2-196.1z"/>
	</g>
	<g id="_x23_4f505180">
		<path class="st18" d="M280.9-196.6c3.3-0.6,6.9-0.6,10.2,0l0,0.6c-3.4,0-6.8,0-10.3,0L280.9-196.6z"/>
	</g>
	<g id="_x23_757779bf">
		<path class="st19" d="M291.1-196.6c1.9-0.7,5.7-1.3,6.8,0.6c-1.7,0-5,0-6.7,0L291.1-196.6z"/>
	</g>
	<g id="_x23_0a0a0aff">
		<path class="st20" d="M159.3-195.6c2.9-1.8,4.1,4.8,0.7,4.6c-2.1,1.8-7.5,2.4-4.8,5.9c3.3,0.8,5.3-3.4,8.6-2.8
			c3.4,4.3-3,5.1-5.6,7.2c0.7,1.8,1.6,3.4,2.5,5c0.4,0.8,0.7,1.6,1,2.5c-2.2,1.3-5,4.9-6.6,1.2c-2.8-5.6-6.1-11-8.9-16.7
			C150.4-191.4,154.8-193.6,159.3-195.6z"/>
		<path class="st20" d="M415.4-188.7c2.7-5.3,10.6-1.6,12.6,2.6c2.7,3.5-2.9,6.5-6,6.3c0.2,1-1,4,0.8,3.4c2.2-0.9,3.5,1.2,4.9,2.5
			c-0.6,1.7-4.4,3.6-1.6,4.8c-0.1,2.2-2.6,2.4-4.2,3.2c-2.7-4.5-8.6-4.5-12.9-6.8c-1.6-2.1-2.9-4.8-2.4-7.5
			C407.8-185.6,417.2-181.5,415.4-188.7 M420-187c-0.1,1.3-0.1,2.7,0,4.1c1.6-0.6,4.6-0.6,4-3.1C424.4-188.1,421.2-186.6,420-187
			 M414.2-179.8c-4.3,2,0,7.4,3.7,5.8C416.7-175.8,417.1-180.5,414.2-179.8z"/>
		<path class="st20" d="M503-111.9c8.2-2.1,15.4,7.1,12.9,14.7c-1.9,3.1-6-1.1-5.5-3.5c1-2.8-1.5-5.5-4.4-5.3
			c-3.9,1.3-9.4,5.2-5.9,9.7c4.6-2.2,8.7,3.1,5.8,6.6c-2.8-0.5-5.5-0.9-8.2-1.6c-1.2-1.9-2.4-3.8-3.5-5.8c-2-2.9-1.2-6.1,0.4-8.9
			C496.7-108.9,499.7-110.8,503-111.9z"/>
		<path class="st20" d="M542-2.6c4.9-0.7,9.8-2.1,14.8-2.3c0.5,1.9,1.2,3.8,1.3,5.8c-3.6,3.1-7.2,6.3-10.2,10
			c4.6-0.5,14.5-5.4,12,3.9c-4.3,2.7-10.2,1.7-15,3.1c-2.1-0.5-6.3,2.3-6.3-1.1c-1.8-6.6,5.8-9.7,9.6-13.6c-3.7-1-9.9,3.1-12.3-1.2
			C535.2-2,537.6-3.4,542-2.6z"/>
		<path class="st20" d="M34.8,124.1C37,124,39,124.4,41,125c2.5,3.5,4.6,7.3,4.3,11.8c-0.5,1.4-0.9,2.7-1.4,4.1
			c-1.3,1-2.6,1.9-4,2.8c-0.5,0.2-1.5,0.7-2,0.9c-9.1,5.5-19.5-7.3-14-15.6c0.5-2.6,3.6-2.5,4.1,0c2.3,2.6-1.8,6.6,1.1,8.9
			c3.1,3.2,7.8-0.3,10.8-1.9c0.8-3-1.1-5.8-4.2-5.9C35.4,128,35.2,126,34.8,124.1z"/>
	</g>
	<g id="_x23_7a7c7ec4">
		<path class="st21" d="M305.8-195.8c3.1-0.2,6.2-0.4,9.3-0.2l-0.1,1.1C311.9-195,308.8-195.4,305.8-195.8z"/>
	</g>
	<g id="_x23_c2c3c4ff">
		<path class="st22" d="M420-187c1.2,0.4,4.4-1.1,4,1c0.7,2.5-2.3,2.5-4,3.1C420-184.3,420-185.6,420-187z"/>
	</g>
	<g id="_x23_bfc0c1ff">
		<path class="st23" d="M414.2-179.8c2.9-0.7,2.5,4,3.7,5.8C414.2-172.4,410-177.8,414.2-179.8z"/>
		<path class="st23" d="M541.9,95.1c-0.3-2.6,1.2-4.9,4.1-4.1c2.1-0.5,0.1,2,0.2,3C544.6,92.9,543.2,94,541.9,95.1z"/>
	</g>
	<g id="_x23_000d005a">
		<path class="st24" d="M342.6-172.1c-2.6-3.8,4.9-0.8,6.6-1.3C347.6-173,344.3-172.4,342.6-172.1z"/>
	</g>
	<g id="_x23_002200df">
		<path class="st25" d="M342.6-172.1c1.6-0.3,4.9-0.9,6.6-1.3c2.7,0.3,5.3,0.7,8,1c-4.2,0.6-10.1-1.4-12.5,3.3
			C344-170,343.3-171,342.6-172.1z"/>
	</g>
	<g id="_x23_033903f8">
		<path class="st26" d="M344.7-169c2.4-4.7,8.3-2.7,12.5-3.3c19,1.6,37.5,6.2,55.9,11.3c12.9,6.7,24.3,16.2,35.6,25.3
			c17.7,16.8,34.8,34.5,47.3,55.6c20.4,32.9,33.3,70.5,36.2,109.2c-0.2,1.3-0.4,2.6-0.6,3.9c-2.8-25.3-8.2-50.4-17.8-74
			C497.4-80,472.1-116.2,438-142c-14.5-12.9-33-20.1-51.9-23.3c-8.6-1.6-17.3-3.3-26-2.6c-2.4,0.7-6.1,2.6-4.8,5.6
			c2.3,6.9,7.7,12.2,12.4,17.6c10.4,9.6,21.3,18.6,30.9,29c11,13.1,17.6,29.2,24.4,44.7c3.1,10.3,8.3,21.3,5.3,32.2
			c-0.3-2.9-0.3-5.7-1-8.5c-4.8-22.2-14.3-43.4-26.7-62.4c-11.2-11.8-23-23-35.4-33.6C357-150.6,350.7-159.8,344.7-169z"/>
	</g>
	<g id="_x23_000000f2">
		<path class="st27" d="M282.9-168.1c4.6-3.1,9.8-0.6,13.9,2.3c8,7.3,13.2,16.9,17.4,26.7c9.1-4.1,18.6-10.1,28.9-10.9
			c1.7,0,5,0,6.7,0c4.1-0.4,8,3.2,8.2,7.2c0,1.7,0,5,0,6.7c-2,10.7-9.3,19.1-15,28c9.1,6.3,18.4,13.8,22.9,24.3
			c2.7,7.6-4.9,14.2-12,14c-5.3,0-10.7-0.1-16,0c-1.6,0-3.2-0.1-4.8-0.5c-1.1-0.3-2.1-0.5-3.2-0.6C330-67,330-63,330-59
			c-0.2,7.4-1.8,15.5-6.7,21.3c-4.7,5.4-13,1.8-17.1-2.4c-6.4-7-11.4-15.1-15.4-23.7c-7.8,2.6-15.1,7.9-23.6,9.1
			c-5.7,1.4-12.8,1.4-16.8-3.5c-1.4-4.1-2-8.7-0.2-12.7c3-9.7,9.2-17.8,14.9-26.1c-6.3-5.7-14.9-9.7-20-17
			c-3.4-4.5-7.8-9.5-6.6-15.7c0.7-5.8,7.4-8.4,12.6-8.4c5.3,0,10.7,0.1,16,0c1.7,0,5.2,0,6.9-0.1
			C274.5-148.3,274.4-160.8,282.9-168.1 M285.3-159.7c-1.1,0.5-2.3,0.9-3,2c-4,5.9-6,13.3-5.3,20.5c3.6,2.5,8.7,1.6,12.8,3.4
			c4.3,0.6,9.6,6.3,13.5,2.2c1.9-2.4,8.3-3.1,6.4-7.1c-4.1-6.2-7.1-13.2-12.9-18.1C293.5-159.1,289.6-161.3,285.3-159.7
			 M335.3-144.5c-6.9,1.3-13.3,4.2-19.4,7.7c1.3,5.4,3.9,10.3,5.4,15.6c5.9,3.3,11.9,6.4,17.5,10.2c6.1-7.9,12.1-17.2,11.9-27.6
			C348.5-144.8,341.2-146.5,335.3-144.5 M260-133c-6.5-0.4-15.8,3.7-13.6,11.7c2.6,9.1,11,15.2,17.9,21c1.1,0.4,2.1,1.8,3.4,1.1
			c2.3-3.9,5.9-6.6,9-9.9c-1.4-7.5-2.3-15-2.9-22.6c-1.1-2.1-3.9-1-5.8-1.3l0-0.9C265.6-133.5,260.8-135.2,260-133 M310.3-133.7
			c-2.1,1.4-5,2.4-6.4,4.6c3.9,1.9,7.9,3.7,12,5.2c-1.2-3.4-2.6-6.7-4.1-10C311.4-133.9,310.6-133.8,310.3-133.7 M276-122h1
			c-0.3,3.8,1.5,7.3,1.2,11.1c0.9-0.8,1.8-1.6,2.7-2.4c0.4,0.4,1.1,1.1,1.5,1.4c-1.5,1.6-4.1,3.1-3.1,5.8c1.8,5.6,2,12.2,4.6,17.4
			c7.1,3.4,14.4,7.5,22.2,8.7c6.5-3.1,11.1-9.1,16.9-13.2c0.5-8.5-2.8-16.6-5-24.6c-5.9-3.3-12.4-5.9-18.9-8.1
			c-4.6,2.9-8.8,6.6-12.8,10.2c-0.4-0.3-1-1-1.4-1.3c3.9-2.8,7.1-6.4,11.2-9.1c0-1.8-2.5-1.7-3.8-2.1c-5-1.5-10-2.8-15.1-3.8
			C276.8-129.5,276.3-124.5,276-122 M324-114.1c0.2,5.5,2.6,10.7,3.2,16.1c3.4-2.7,6.3-6.1,8.6-9.7
			C331.9-109.8,328.4-112.9,324-114.1 M276.2-105.7c-2.8,2.5-5.1,5.4-7.1,8.5c3.9,2.7,8,4.8,12,7.2c-0.3-3.4-2-6.4-2.4-9.7
			C278-101.5,278.6-106,276.2-105.7 M339.3-103.8c-3.7,3.5-7.3,7.3-10.9,10.9c2.3,6.3,0.3,13.9,2.8,19.8c8,0.3,16.9,1.2,23.6-4
			c1.5-2.2,2.8-5.4,1.3-8C353.2-93,346.8-100.8,339.3-103.8 M267.2-94.8c-5.4,5.8-8.8,13.3-11.1,20.9c-0.4,2.9-0.4,6.1,1.1,8.8
			c9.3,7.4,21.2,0.8,30.7-3.1c-0.5-6.8-5.1-12.7-6.1-19.5C276.6-89.4,272.3-93.6,267.2-94.8 M323.8-87.9c-4.1,2.8-7.8,6.1-11.7,9.1
			c0,0.4,0,1.2,0,1.6c4.3,1.1,8.6,2.1,12.9,3.1C324.6-78.6,326.4-84.1,323.8-87.9 M284.1-86.1c1.8,5.4,4.3,10.6,6.1,16
			c4.5-1.5,8.4-5,12.7-7c0-0.4,0-1.2,0-1.6C296.3-80.3,290.4-83.8,284.1-86.1 M293-65.8c0.3,3,2.8,5.2,4.1,7.8c4,6.1,9.1,13,16.9,14
			c9-2.6,10.8-13.2,11.1-21.1c1.8-0.8,1.8-6-0.1-6.6c-5.3-1.3-10.6-3-16-4.3C303.8-72.5,298.5-69,293-65.8z"/>
		<path class="st27" d="M262.2,154.1l4.9-0.1c-4.4,16.8-9.8,33.2-13.9,50.1c-0.3,2.7-3,5.1-6.2,2.9c4.2-13.9,7.8-28.1,11.9-42
			C260.4,161.5,259.8,157.1,262.2,154.1z"/>
	</g>
	<g id="_x23_c6c7c9ff">
		<path class="st28" d="M426.2-169c15,8.2,27.9,19.8,40.8,30.9c-0.7,2.3-1.1,4.7-0.8,7c-0.3,0.3-0.9,0.8-1.3,1.1
			c-14-12.1-27.9-24.5-43.7-34.2c0.2-0.4,0.6-1.3,0.8-1.7C423.6-166.5,426.1-166.8,426.2-169z"/>
	</g>
	<g id="_x23_005300ff">
		<path class="st29" d="M355.3-162.3c-1.4-3,2.4-4.9,4.8-5.6c8.8-0.6,17.5,1.1,26,2.6c18.9,3.2,37.4,10.4,51.9,23.3
			c34.1,25.8,59.3,62,75.8,101.2c9.6,23.6,15,48.7,17.8,74l0,0.8c-1.4,8.6,1.5,17.1,0.1,25.7c-0.4,10.8-2.1,21.5-4,32.1
			c-0.1,1.5-0.4,4.5-0.5,6c-3.9,14.9-7.3,30.8-17.5,43c-11.3,14.7-28,24.5-45.4,30.7c-20.2,7.3-43,3.8-61.7-6.1
			c-11.9-6.9-20.8-17.6-27.7-29.4C357.7,110.9,352.7,79.8,351,50c-2.1-23,9.1-44.5,23.3-61.8c11.9-12.6,29.1-17.1,45.1-21.9
			c3.2-1.1,7.4-1.8,9-5.1c3-10.9-2.2-21.9-5.3-32.2c-6.8-15.5-13.4-31.6-24.4-44.7c-9.6-10.4-20.5-19.5-30.9-29
			C363-150.1,357.6-155.4,355.3-162.3 M367.3-164.6c-4.4,0.1-7.2,4.9-4.3,8.6c12.2,19.6,34.9,30.4,45.9,51c6.2,9.4,10,20,14.9,30.1
			c3.1,10.1,8.3,20,7.2,30.9c1.2,5-2.6,9.4-7,11c-8.8,3.7-18.3,5.1-27,9.1c-17.4,6.7-29.8,22.2-37,39c-7.2,14.2-8.6,30.5-6.3,46.1
			c1.5,13.5,4.1,26.8,7.2,40c6,19.1,16.3,36.6,29.2,51.7c8.1,7.6,18,13.2,28.5,16.7c9.9,4.2,20.8,2.1,31.3,2.5
			c18.1-1.7,34.6-11.1,48.3-22.7c11.1-9.8,19-23,22.7-37.3c3.9-14.7,7.1-29.8,8-45c2.8-49.5-8.6-100.4-35.5-142.4
			c-18.1-31.7-44.5-58.4-75.4-77.6C402.1-159.8,384.8-165.8,367.3-164.6z"/>
		<path class="st29" d="M485-23l1,0c-0.2,2.5-0.7,7.5-1,10C485-16.3,485-19.7,485-23z"/>
	</g>
	<g id="_x23_d2d3d5ff">
		<path class="st30" d="M119.3-164.8c4.5-1.9,7.4,2.5,8.7,5.9c1.2,4.1-5.3,7.3-7.8,3.7C117.3-157.5,115.2-162.6,119.3-164.8z"/>
	</g>
	<g id="_x23_006d00ff">
		<path class="st31" d="M367.3-164.6c17.5-1.2,34.8,4.8,50.7,11.6c30.9,19.3,57.4,45.9,75.4,77.6c26.9,42,38.3,92.9,35.5,142.4
			c-0.8,15.2-4.1,30.3-8,45c-3.7,14.3-11.6,27.5-22.7,37.3c-13.6,11.6-30.2,21-48.3,22.7c-10.4-0.4-21.3,1.7-31.3-2.5
			c-10.6-3.5-20.4-9.1-28.5-16.7C377.3,137.6,367,120.1,361,101c-3.1-13.2-5.7-26.5-7.2-40c-2.3-15.5-0.9-31.9,6.3-46.1
			c7.2-16.8,19.5-32.3,37-39c8.7-3.9,18.2-5.4,27-9.1c4.4-1.5,8.2-6,7-11c1.1-10.9-4-20.8-7.2-30.9c-4.9-10.1-8.7-20.7-14.9-30.1
			c-11-20.6-33.8-31.4-45.9-51C360.1-159.7,362.9-164.5,367.3-164.6 M374.3-161.6c-3.5,0.4-8.6,2.4-6,7.3c2.8,4.7,6,9.4,10.4,12.7
			c13.9,12.4,28.6,25.2,36.4,42.6c8.6,16.4,16.5,33.5,18.9,52c0,6.3-2.2,13.8-9,16c-10.4,4.1-21.5,6.7-31.7,11.4
			c-17.7,9.1-28.6,27-34.7,45.3c-4.5,14.2-2.8,29.4-1,44c2.9,23.5,9.2,47.1,23.4,66.3c8.9,16.3,24.9,28.1,42.9,32.3
			c30.4,7.4,62.4-7.3,81.8-30.6c8.2-10.7,13-23.5,15.5-36.6c6.7-27.6,7.7-56.4,3.2-84.4c-2.1-12.8-4-25.8-9-37.9
			c-3.6-14-9.6-27.2-16.3-39.8c-18.7-36-46.6-67.3-80.9-89C404.5-156.6,389.4-161.3,374.3-161.6z"/>
	</g>
	<g id="_x23_008500ff">
		<path class="st32" d="M374.3-161.6c15.1,0.3,30.2,5,43.7,11.6c34.4,21.7,62.2,53,80.9,89c6.8,12.7,12.7,25.9,16.3,39.8
			c5,12,6.9,25.1,9,37.9c4.5,28,3.6,56.8-3.2,84.4c-2.5,13.1-7.3,26-15.5,36.6c-19.4,23.2-51.4,38-81.8,30.6
			c-18-4.2-34-16-42.9-32.3c-14.2-19.3-20.6-42.9-23.4-66.3c-1.8-14.6-3.5-29.8,1-44c6.1-18.3,17.1-36.2,34.7-45.3
			c10.2-4.7,21.2-7.3,31.7-11.4c6.8-2.2,8.9-9.6,9-16c-2.5-18.5-10.3-35.6-18.9-52c-7.8-17.4-22.5-30.1-36.4-42.6
			c-4.3-3.3-7.6-8.1-10.4-12.7C365.7-159.3,370.8-161.2,374.3-161.6 M376.3-157.8c-1.5,1.2-2.8,2.7-2.2,4.8
			c2.3,6.7,8.4,11,13.7,15.3c8.3,8.6,17.9,16.4,24.2,26.8c10.7,19.3,21.7,39.3,24.7,61.6c1,8.6-2.4,18.4-11.3,21.6
			c-11.8,4.5-24.3,7.2-35.2,13.8C377.7-6.1,369.7,6.9,364,20c-8.9,21-4.7,44.7-0.4,66.3c3.1,20.2,12.8,38.8,24.9,55.1
			c9.5,12.8,23.9,21.7,39.5,24.5c19.9,3.7,40.7-2.3,56.9-13.9c16.7-10.2,28-28,32-47c3.2-13.1,5.5-26.5,6.9-40
			c1.8-48.4-9.7-97.9-36.1-138.8c-12.6-21.3-28.6-40.6-47.8-56.2c-11.2-8.9-22.4-18.4-36.2-22.7
			C394.7-154.8,385.7-159.1,376.3-157.8z"/>
	</g>
	<g id="_x23_898a8af7">
		<path class="st33" d="M194.3-159.8c2.5-2.1,5.7-1.2,6.9,1.8c-4.1,3.4-6.5,9.3-12.4,9.8c-3.6,1.9-6.7,4.9-8.1,8.8
			c-0.2,0.3-0.6,0.9-0.8,1.2c-3.6,3.3-7,6.9-10.6,10.1c-0.4-1.1-0.7-2.2-1-3.3c0.2-1.4,0.5-4.3,0.7-5.7c0.1,0.8,0.2,2.3,0.2,3.1
			c7.4-7.2,14.9-14.3,21.9-21.9c-0.5-0.1-1.5-0.2-2-0.3C188.3-158.9,195.4-155.3,194.3-159.8z"/>
	</g>
	<g id="_x23_585858f4">
		<path class="st34" d="M201.2-158c2,1.3,3.7,3.1,5,5.1c-2,2-4,4.1-6.1,6c-3.7-0.9-7.5-1.1-11.3-1.2
			C194.8-148.6,197.1-154.6,201.2-158z"/>
	</g>
	<g id="_x23_009800ff">
		<path class="st35" d="M376.3-157.8c9.5-1.3,18.5,3,27.5,5.2c13.9,4.3,25.1,13.8,36.2,22.7c19.2,15.5,35.3,34.9,47.8,56.2
			c26.4,40.9,37.9,90.4,36.1,138.8c-1.3,13.5-3.6,26.8-6.9,40c-4,19-15.3,36.8-32,47c-16.3,11.6-37.1,17.5-56.9,13.9
			c-15.7-2.8-30-11.7-39.5-24.5c-12.1-16.3-21.8-34.9-24.9-55.1C359.3,64.7,355.1,41,364,20c5.7-13.1,13.8-26.1,26.1-33.9
			c10.9-6.6,23.5-9.3,35.2-13.8c8.9-3.2,12.3-13,11.3-21.6c-3-22.2-14-42.3-24.7-61.6c-6.3-10.4-15.8-18.2-24.2-26.8
			c-5.3-4.3-11.4-8.6-13.7-15.3C373.4-155.1,374.7-156.7,376.3-157.8 M465.3-58.7c-4.4,2.9-3.3,8.9-3,13.4c3,5.2,6.9,9.7,10.7,14.2
			c-3.2,2.1-7.3,1.8-10.7,3.5c-10.3,3.3-19,12-21.3,22.7c-1.3,8,0.9,18.8,10.1,21c17.2,3.1,32.3-12.8,34-28.9c0.3-2.5,0.7-7.5,1-10
			l-1,0c-1-12.3-14.4-17.4-19.7-27.2c-0.2-4.5,4.3-10.1,9.5-7.6c3.8,2.8,5.5,9.5,11.2,8.8c4.3-0.9,3.8-7.6,0-9
			C479.8-61.8,471.7-62.1,465.3-58.7 M402,6c0.9,3.1,3.4,5.1,6,6.8c-4.2,0.4-8.7,4.2-6.9,9c3.7,5.3,10.7,5.9,16.6,4.9
			c2.9-1.4,6.4-3.9,5.2-7.6c-1.8-1.3-4.9-0.9-5.1,1.8c-0.4,5.2-9.5,6-10.8,1c0-2.8-1.3-6.6,1.7-8.2c2.5-0.3,7.4,1.5,8.3-0.8l1,0
			c-0.3-0.2-0.9-0.7-1.2-1c-0.9-2.1-5-1.3-6.8-0.5c-4-2.6-3.4-7.7,0.2-10.3c4.7-2.6,6,2.2,8,4.8c2.4,0.9,4.7-1.3,3.6-3.7
			C416.5-3.9,404.4-2.2,402,6 M484.9,29.1c2.7-1.9,4.3-6.2,8.9-4c3.3,3.4,2.3,8.7-0.9,11.8c-1.5,1.6-2.8,3.4-4.2,5.1
			c-1.5,1.1-2.8,2.5-3.9,4l0.2,1c4.7,0.3,9.3,0,14,0l-0.2-1c0.6-1.8,2.3-5.3-0.6-2.8c-2.8-0.2-5.6-0.3-8.4-0.3
			c0.9-1.7,3.9-2.9,3.8-4.8c4.4-3.4,8.4-12.5,1.8-15.5C490.4,19.5,485.5,24.4,484.9,29.1 M415,35c-6.6,0.2-10.9,7-12,13
			c2.2,0.2,4.6,0.1,5.8-2.2c6.1-7.7,20.3-4,23.9,4.5c1.4,6.8,3.5,13.5,3.3,20.5C423.5,79.1,411.3,87.5,399,96c-2.3,1.9-5.6,3-7,5.8
			c5.6,0.8,11,3.7,16.8,2.9c10-6.9,20-13.9,30.1-20.7c2.5,7.4,1.7,15.8,5.2,23c2.6,6.9,10.1,10.1,17,11l0,0.9c2.4-0.7,8.8,2.3,9-1
			c6.3-0.7,12.4-6.4,12-13c-2.8-0.8-4.1,1.6-5.5,3.6c-5.6,4.6-13.6,1.8-19.6-0.5c-5.4-1.7-7.6-7.1-8.8-12.1c-0.4-5.6-3-11-2.1-16.7
			c13.6-9,27-18.5,40.8-27.4c0-0.4,0.1-1.2,0.1-1.6c-5.4-0.6-10.5-3.1-15.9-3.2c-9.6,5.9-18.6,12.7-28,18.9
			c-2.7-8.4-2.1-18.2-7.5-25.6c-3.4-3.1-7.9-5.5-12.6-5.4l0-0.9C420.6,34.5,415.9,32.8,415,35z"/>
	</g>
	<g id="_x23_b7b8b9f9">
		<path class="st36" d="M168.9-137c1-9.9,10.6-18,20.2-19.1c0.5,0.1,1.5,0.2,2,0.3c-7,7.6-14.5,14.8-21.9,21.9
			C169.1-134.7,169-136.2,168.9-137z"/>
	</g>
	<g id="_x23_303031ed">
		<path class="st37" d="M206.2-152.9c2,1.1,3.6,2.7,4.8,4.9c-1.5,1.5-3.6,6.6-6.3,4.2c-1.3-1.4-4-1.5-4.6-3.1
			C202.3-148.8,204.3-150.8,206.2-152.9z"/>
	</g>
	<g id="_x23_000000fb">
		<path d="M224.3-150.7c0.4-0.1,1.2-0.2,1.5-0.3c2.4,3.3,5,6.5,7.2,9.9c-3.5,4.8-11.9,6.3-12.7,12.9c5,7.8,11.4,14.6,16.7,22.2
			c-6.7,7.5-16.3,13.2-24.1,19.9c-1.3,1-2.7,2.9-4.5,1.9c-4.7-6.9-10.4-13.1-15.1-19.9c-0.6-1.5-3.4-0.1-3.4-2
			c3.4-3.3,6.3-7.3,10.4-9.6c3.7-1.3,7.1-3.3,9.6-6.5c-1.7-4.2-8.2-6.7-7.5-11.4C209.7-139.2,217.1-144.9,224.3-150.7z"/>
	</g>
	<g id="_x23_00000058">
		<path class="st38" d="M343.1-150.1c0.8-1.8,5.9-1.8,6.7,0C348.2-150.1,344.8-150.1,343.1-150.1z"/>
	</g>
	<g id="_x23_0b0b0bff">
		<path class="st39" d="M474.8-144.2c7-4.8,18.3,6.7,12.1,13.3c-1.6-1.1-2.9-2.6-4-4.2c0.9-2.8-0.5-5.8-3.9-4.9
			c-0.3,2.5,1.6,4.3,2.9,6.2c1.7,3.2,1.7,7.4-1,10.1c-2.6,0.3-5.1,0.5-7.7,0.7c-2.9-2.1-5.1-4.9-6.9-7.9c-0.3-2.4,0.1-4.8,0.8-7
			c1.9,1.1,5.8,1.7,5.5,4.4c-3.6,3.5,2.3,7.3,4.4,4.5C475.5-133.7,470.6-139.6,474.8-144.2z"/>
		<path class="st39" d="M68.2-120.9c1.2,0.9,3.2,1.3,3.7,2.9c-1.8,3-4.4,5.6-5.8,8.9c0.8,0.7,1.6,1.4,2.5,1.9
			c1.8-2.7,3.6-5.3,5.6-7.8c1.6-0.2,2.6,1.2,3.6,2.2c-1.8,3-4.3,5.6-5.8,8.8c1.1,0.7,2.3,1.4,3.6,1.8c1.9-2.6,3.8-5.1,5.2-7.9
			c2.7-1.2,6.7,1.4,4.2,4.3c-4.3,2.8-6.2,7.9-9.1,11.9c-2.1-0.6-3.7-2.1-5.5-3.2c-4.1-3.1-8.2-6.1-12.3-9.1
			C61-111.4,65-115.9,68.2-120.9z"/>
		<path class="st39" d="M25.2-41.7c1.3,0.2,2.5,0.6,3.8,0.9c-0.6,3.6-1.8,7.1-2.7,10.7c1.1,0.4,2.2,0.9,3.4,1.1
			c1.1-3.6,0.8-10.6,6.3-9c0.2,3.8-2.3,7.2-2.1,11c5.8,1.9,4.7-5.4,6.1-9c1.5-1.2,3.3-0.6,4.8,0.3c0.5,3.5-1,6.6-2.2,9.7
			c-1.2,2.5-1.3,5.6-3.7,7.3c-1-0.3-2-0.7-3-1c-5.2-2.2-10.8-3.2-15.9-5.4C21.1-30.8,23.2-36.3,25.2-41.7z"/>
	</g>
	<g id="_x23_0000006e">
		<path class="st40" d="M358-142.9c1.8,0.8,1.8,5.9,0,6.7C358-137.8,358-141.2,358-142.9z"/>
	</g>
	<g id="_x23_c8c9caff">
		<path class="st41" d="M478.9-140c3.4-0.9,4.7,2.1,3.9,4.9c-0.3,0.3-0.8,1-1,1.3C480.6-135.8,478.7-137.5,478.9-140z"/>
	</g>
	<g id="_x23_575758ee">
		<path class="st42" d="M179.9-138.1c0.2-0.3,0.6-0.9,0.8-1.2c0.4,2.7,0.4,5.4,0.2,8.1c-3.5,3.1-6.5,7-10.6,9.4
			c-0.8-0.9-1.2-1.9-1.2-3.1c0.5,0.2,1.4,0.5,1.8,0.6C174.3-128.6,181.4-131.6,179.9-138.1z"/>
	</g>
	<g id="_x23_000000ab">
		<path class="st43" d="M251-139c5.3-0.1,10.6-0.1,16,0l0,1c-5.3,0.1-10.7,0-16,0L251-139z"/>
	</g>
	<g id="_x23_6e6e6ffa">
		<path class="st44" d="M169.3-128c3.7-3.2,7-6.8,10.6-10.1c1.5,6.5-5.7,9.5-9.1,13.8c-0.5-0.2-1.4-0.5-1.8-0.6
			c-0.8-2-1.3-4.2-0.8-6.3C168.6-130.2,168.9-129.1,169.3-128z"/>
	</g>
	<g id="_x23_000000bf">
		<path class="st45" d="M260-133c0.8-2.2,5.6-0.5,8-0.9l0,0.9C265.3-133,262.7-133,260-133z"/>
		<path class="st45" d="M341.1,138l1,0c0,1.6,0,3.3-0.1,5c-33,0.1-66,0-99,0l0.2-0.9c32.6-0.3,65.1,0.1,97.7-0.2
			C341,140.6,341,139.3,341.1,138z"/>
		<path class="st45" d="M308.1,164.1l0.9-0.3c0.3,6.7,0,13.4,0.1,20.1l-1,0C308,177.4,307.8,170.8,308.1,164.1z"/>
		<path class="st45" d="M272,177l1,0.1c0.1,5.3,0.1,10.6,0,15.9l-1-0.1C272,187.6,271.9,182.3,272,177z"/>
		<path class="st45" d="M258,196c2.8,0,8.2,0,11,0.1l0,1c-2.7,0-8.2,0-11,0L258,196z"/>
	</g>
	<g id="_x23_00000011">
		<path class="st46" d="M310.3-133.7c0.4-0.1,1.2-0.2,1.5-0.2c1.5,3.3,2.9,6.6,4.1,10c-4.1-1.5-8.1-3.3-12-5.2
			C305.3-131.3,308.1-132.3,310.3-133.7z"/>
	</g>
	<g id="_x23_00000095">
		<path class="st47" d="M276-122c0.3-2.5,0.8-7.5,1-10c0,3.3,0,6.7,0,10H276z"/>
	</g>
	<g id="_x23_4a4a4afa">
		<path class="st48" d="M170.2-121.8c4.1-2.4,7.1-6.2,10.6-9.4c1.2,0.4,1.6,1.5,1.2,3.3c-3.5,2.8-6.7,6-10,9.1
			C170.7-119,170.8-120.8,170.2-121.8z"/>
	</g>
	<g id="_x23_3a3a3afc">
		<path class="st49" d="M182.1-127.9c1.4-0.4,1.1,1.9,1.7,2.7c-3.3,3.1-6.4,6.4-9.8,9.4c-1.2-0.6-2.6-1.5-2-3
			C175.4-121.9,178.6-125.1,182.1-127.9z"/>
	</g>
	<g id="_x23_29292af9">
		<path class="st50" d="M174.1-115.8c3.3-3.1,6.5-6.3,9.8-9.4c1.5,0.1,1.4,2,2.1,3c-3.3,3.1-6.4,6.4-9.8,9.4
			C174.9-113.3,173.6-114.2,174.1-115.8z"/>
	</g>
	<g id="_x23_c2c3c5ff">
		<path class="st51" d="M473.1-123.1c2.6-0.1,5.1-0.3,7.7-0.7c2.9,7,9.5,11.7,13.9,17.8c-1.6,2.8-2.4,6.1-0.4,8.9
			c-0.3,0.3-1,0.8-1.4,1.1c-7.1-9.2-14.1-18.4-22-27C471.5-122.9,472.6-123,473.1-123.1z"/>
	</g>
	<g id="_x23_1c1c1cfb">
		<path class="st52" d="M176.1-112.8c3.4-3.1,6.5-6.3,9.8-9.4c1.2,0.7,2.6,1.7,3.1,3c-3.2,2.9-6.3,5.9-9.2,9.1
			C178.6-110.9,176.2-111.2,176.1-112.8z"/>
	</g>
	<g id="_x23_101010fa">
		<path class="st53" d="M179.8-110.1c2.9-3.2,6-6.2,9.2-9.1c1.2,0.7,4,0.5,3.9,2.1c-2.9,3.4-5.6,7.1-9.5,9.5
			C182.2-108.5,180.3-108.6,179.8-110.1z"/>
	</g>
	<g id="_x23_070707f8">
		<path class="st54" d="M183.4-107.6c3.9-2.4,6.6-6,9.5-9.5c2.4,0.7,4.8,1.2,7.3,1.4c-4.2,2.3-7.1,6.3-10.4,9.6
			C188-105.8,183.2-106.7,183.4-107.6z"/>
	</g>
	<g id="_x23_000000d2">
		<path class="st55" d="M280.8-113.3c1.2-1.3,2.5-2.6,3.9-3.8c0.3,0.3,1,1,1.4,1.3c-1.3,1.3-2.5,2.6-3.9,3.9
			C281.9-112.2,281.2-112.9,280.8-113.3z"/>
	</g>
	<g id="_x23_a1a2a4f2">
		<path class="st56" d="M300.2-115.5c4.4-0.3,9.2,2.1,10.8,6.5c3.9,6.7-1.7,17.6-10,16c-8,1.5-14.5-8-11.1-15.1
			C291.2-112.6,295.8-115.2,300.2-115.5 M298.3-113.7c-1.9,1-4.1,1.7-5.6,3.4c-4.5,5.5-1.1,15.5,6.2,16.3
			c7.1,1.2,13.9-5.6,11.8-12.7C308.6-111.1,303.7-115.7,298.3-113.7z"/>
	</g>
	<g id="_x23_d8d9daff">
		<path class="st57" d="M298.3-113.7c5.4-2,10.3,2.5,12.4,7c2.2,7.1-4.7,13.9-11.8,12.7c-7.3-0.7-10.7-10.8-6.2-16.3
			C294.2-112,296.4-112.7,298.3-113.7z"/>
	</g>
	<g id="_x23_0000000e">
		<path class="st58" d="M324-114.1c4.4,1.1,7.9,4.3,11.8,6.4c-2.4,3.6-5.2,7-8.6,9.7C326.6-103.4,324.2-108.6,324-114.1z"/>
	</g>
	<g id="_x23_0010006b">
		<path class="st59" d="M136.8-109.3c5.1-0.9,10.4-1.1,15.5,0C147.1-109.1,141.9-108.9,136.8-109.3z"/>
	</g>
	<g id="_x23_093d09f9">
		<path class="st60" d="M84.3-87.7c14.9-12.2,33.5-19.2,52.5-21.5c5.1,0.4,10.3,0.1,15.5,0c17.4,2.9,34.8,9.8,47.1,23
			c9.5,8.8,14.4,21.2,18.9,33.1c1.9,4,2.3,9,5.5,12.3c-1.3,7,2.7,14,2.8,21.1c0.2,3.2,0.4,6.4,0.6,9.6l0.1,0.9
			c-0.1,4.2-0.1,8.4,0,12.6c-0.1,1.7-0.3,5.1-0.4,6.8c-0.5,2.7-0.8,5.5-0.7,8.2c0.3,24-8.8,48-26.4,64.6c-4.8,4.8-9.8,9.7-15.9,13
			c-12.1,7.6-27,8.2-40.9,9.3c-2.9-1.3-5.3-1.1-7.2,0.7c-2.5,0.1-5.3-0.1-6.7,2.5c-2.8,13-0.4,26.3,2.4,39
			C135,162,138,177.5,147,190c12,19.3,28.9,35.6,36.7,57.3c1.2,2.7,2.4,5.5,2.4,8.5c-20.1-4.3-39.5-11.3-58.1-19.9
			c-2.7-1.1-5.2-3.9-8.4-3.3c-5.7-3.1-10.4-8.5-14.7-13.6c-25.3-26.4-43.4-59-55.6-93.3c-3.5-15.5-8.9-30.8-9.5-46.8
			c0.5-2.4,0.3-4.7-0.5-6.9c-0.4-1.3-0.6-2.6-0.5-4c0-10.4,0.1-20.7,0-31.1c0-1.7,0-5.1,0-6.7c3.1-35.9,14.1-70.9,32-102.2
			c2.4-2.7,3-6.8,6-8.9C79.7-82.9,81.8-85.5,84.3-87.7 M136.3-106.5c-17.7,2.2-34.9,9-49.1,19.7C73.8-75.8,66.9-59.5,59.9-44
			c-13,30.9-20.2,64.5-19.9,98c1.8,17.4,3.1,34.9,7,52c10.6,43.9,33.4,84.7,65.3,116.7c13.1,10.1,28.6,16.3,44,21.9
			c6.3,1.2,13.9,4.8,19.6,0.2c0.2-7.7-4-14.5-7.9-20.8c-12.4-18.2-28.6-35-34-57c-5-17.6-9.3-35.9-7.5-54.4
			c-0.3-5.5,4.5-10.2,10.1-9.2c16.9-1.3,35.2-2,49.4-12.4c16.9-12.8,31.1-30.8,35.1-52c2.5-8.5,2.7-17.3,2.9-26.1
			c2.6-20.9-0.2-42.2-6.9-62.1c-4.8-11.9-9.6-24.1-18.1-34c-6.3-5-12-11-19.4-14.5C166.3-104,151.4-109.1,136.3-106.5z"/>
	</g>
	<g id="_x23_005500ff">
		<path class="st61" d="M136.3-106.5c15-2.6,30,2.4,43.3,8.8c7.4,3.6,13.1,9.5,19.4,14.5c8.4,9.9,13.3,22.1,18.1,34
			c6.7,19.9,9.6,41.2,6.9,62.1c-0.3,8.7-0.5,17.6-2.9,26.1c-4,21.2-18.2,39.2-35.1,52c-14.2,10.4-32.6,11.1-49.4,12.4
			c-5.6-1-10.4,3.8-10.1,9.2c-1.8,18.4,2.5,36.7,7.5,54.4c5.4,22,21.5,38.8,34,57c3.9,6.3,8.1,13.1,7.9,20.8
			c-5.7,4.6-13.3,1-19.6-0.2c-15.4-5.6-31-11.8-44-21.9C80.4,190.7,57.6,149.9,47,106c-3.9-17.1-5.1-34.6-7-52
			c-0.3-33.6,6.8-67.1,19.9-98c6.9-15.5,13.8-31.7,27.3-42.7C101.5-97.5,118.6-104.3,136.3-106.5 M141.4-104.4
			c-24.7,1.9-50.8,12.4-65.3,33.5C54.5-34.4,43,7.7,42,50c1.8,17.5,2.4,35.1,6.6,52.3c7.6,36.3,24.9,70.3,47.8,99.4
			c6.8,7.5,12.3,16.4,20.9,22c9.9,6.6,20.8,11.7,31.9,15.9c6.1,2.1,12.7,4.6,19.1,2.8c3.8-1.5,2.5-6.3,1.4-9.3
			c-6-14.6-18.2-25.4-25.8-39.1c-11.5-16.8-15-37.4-18.9-57c-0.2-9-0.1-18,0-27c1.3-3.1,2.7-7.2,6.6-7.5c13.4-2.2,27.2-2.5,40.3-6.6
			c17.9-7,31.1-22.3,40.3-38.6c8.5-16.3,10-35,10.1-53.1c1-20.8-2.6-42.3-10.9-61.6C206.6-68.9,200.3-80.4,190-88
			C176.2-98.4,158.8-105.4,141.4-104.4z"/>
	</g>
	<g id="_x23_0000000c">
		<path class="st58" d="M276.2-105.7c2.4-0.3,1.8,4.2,2.4,6c0.4,3.3,2.2,6.4,2.4,9.7c-4-2.3-8.2-4.5-12-7.2
			C271.1-100.3,273.4-103.3,276.2-105.7z"/>
	</g>
	<g id="_x23_006f00ff">
		<path class="st62" d="M141.4-104.4c17.5-1,34.8,6,48.6,16.4c10.3,7.5,16.6,19.1,21.5,30.6c8.3,19.3,11.9,40.7,10.9,61.6
			c-0.1,18-1.6,36.8-10.1,53.1c-9.3,16.4-22.4,31.6-40.3,38.6c-13.1,4.1-26.9,4.4-40.3,6.6c-3.9,0.3-5.3,4.4-6.6,7.5
			c-0.1,9-0.2,18,0,27c3.9,19.6,7.4,40.2,18.9,57c7.6,13.7,19.8,24.5,25.8,39.1c1.1,3,2.4,7.7-1.4,9.3c-6.5,1.8-13.1-0.7-19.1-2.8
			c-11.1-4.3-22-9.3-31.9-15.9c-8.6-5.7-14.2-14.5-20.9-22c-22.8-29.1-40.2-63-47.8-99.4C44.4,85.1,43.9,67.5,42,50
			C43,7.7,54.5-34.4,76.1-70.9C90.6-92,116.6-102.5,141.4-104.4 M136.3-101.6C114.1-98.3,90.8-88.4,78.1-69C58-35.2,46.6,3.7,45,43
			c-0.4,20.7,2.6,41.4,6.5,61.6c5.7,20,11.8,40.3,22.5,58.3c8.7,16.6,19.7,31.9,32,46.1c11.3,14.7,28.9,22.2,45.8,28.5
			c3.6,2.4,8.1,1.4,12.1,1.4c1.2-1.7,2.6-3.6,2.1-5.8c-1.4-4.8-3.8-9.2-6.9-13c-8.6-12.8-18.9-24.7-24.9-39.1
			c-7.9-20-12.6-41.4-12-63c0.6-5.3,0.6-12,5.3-15.7c14.7-6.9,32.1-2.7,46.7-10.4c22.6-10.7,38.4-33.4,43.6-57.6
			c4.3-29.4,4.3-60.5-7.5-88.4c-5.3-12.9-12-26.2-24.2-33.8C171.5-97.6,153.9-104.1,136.3-101.6z"/>
	</g>
	<g id="_x23_008600ff">
		<path class="st63" d="M136.3-101.6c17.5-2.5,35.2,4,49.5,13.8C198-80.2,204.8-66.9,210-54c11.8,27.8,11.8,58.9,7.5,88.4
			c-5.2,24.2-21,46.9-43.6,57.6c-14.5,7.7-32,3.4-46.7,10.4c-4.6,3.7-4.6,10.3-5.3,15.7c-0.6,21.6,4.2,43,12,63
			c6,14.4,16.3,26.3,24.9,39.1c3.1,3.8,5.6,8.3,6.9,13c0.6,2.2-0.9,4.1-2.1,5.8c-4-0.1-8.4,0.9-12.1-1.4
			c-16.9-6.3-34.5-13.8-45.8-28.5c-12.3-14.1-23.2-29.5-32-46.1c-10.7-18-16.8-38.3-22.5-58.3C47.6,84.4,44.6,63.7,45,43
			C46.6,3.7,58-35.2,78.1-69C90.8-88.4,114.1-98.3,136.3-101.6 M137.3-98.5c-23.5,3.4-48,14.4-59.7,36.2
			C55.6-21.2,43.5,26.4,49.9,73c1.5,18.1,5.2,36.1,11.7,53.2c3.7,10.9,7.3,22,13.3,31.8c12.7,22.9,27.3,45.6,47.8,62.2
			c10,5.8,20.2,11.8,31.6,14.3c4,3,5.6-0.9,6.6-3.5c-3.6-12.3-14.7-20.4-20.3-31.6c-10.5-15-15.3-33-19.2-50.6
			c-2.2-13.8-3.9-28.1-0.5-41.8c1.9-6.5,8.9-9.6,15.1-10.9c17-1.8,35.8-2.7,49.3-14.8c18.7-15.4,30.6-38.9,30.9-63.3
			c3.4-30.9-2-63.7-19.1-90c-3.6-7.2-10.8-11.3-17.1-15.9C167.1-95,152.3-100.8,137.3-98.5z"/>
	</g>
	<g id="_x23_009900ff">
		<path class="st64" d="M137.3-98.5c15-2.3,29.7,3.5,42.6,10.6c6.3,4.6,13.4,8.7,17.1,15.9c17.1,26.3,22.5,59.1,19.1,90
			c-0.3,24.3-12.2,47.9-30.9,63.3C171.8,93.3,153,94.2,136,96c-6.2,1.3-13.2,4.4-15.1,10.9c-3.4,13.7-1.7,28,0.5,41.8
			c3.9,17.7,8.8,35.6,19.2,50.6c5.6,11.3,16.7,19.3,20.3,31.6c-0.9,2.6-2.5,6.6-6.6,3.5c-11.3-2.5-21.6-8.6-31.6-14.3
			c-20.5-16.7-35.2-39.3-47.8-62.2c-6.1-9.8-9.7-20.9-13.3-31.8c-6.5-17-10.2-35.1-11.7-53.2c-6.4-46.6,5.8-94.3,27.8-135.3
			C89.4-84.1,113.8-95.1,137.3-98.5 M156.4-48.4c-11.9,1.7-23.8,2.7-35.6,4.1c-2.6,0.5-5.7-0.5-7.7,1.5c-1.4-0.1-2.9-0.2-4.3,0
			c-4.2-0.1-5.8,4.5-6.7,7.9c-2.6-0.6-4.7,1.3-4,3.9c1.3,0.1,2.7,0.1,4,0.1c-0.2,4.6,4.1,9.4,9,8c2.6-0.7,5.5-0.3,7.7-1.9
			c0.2,0.5,0.6,1.4,0.8,1.9C116-13.3,109-3.7,111.9,7c1.6,7.7,9.1,12.4,11,20c-0.4,0.1-1.2,0.3-1.7,0.3c-2.8,0.2-9.6-2.3-10.3,0.6
			c-2.9,1.1-4.3,4.2-5,7c-2.1-0.4-4.3,0.7-5,2.8c1.2,1.5,3.2,0.9,4.9,1.2c0.5,3.1,2.2,8,5.8,7.7c1.1,1.1,2.7,1.5,4.2,1.3l0,0.9
			c2.4-0.7,8.8,2.3,9-0.9c4.5-0.4,8.6-2.5,13-3.5c2.6,1.6-1.5,8,2.1,7.4c0.1,1.2,0.8,1.9,2,2l0,1c7.3,0.2,14.7,0,22,0l0-1
			c1.2-0.1,1.9-0.8,2-2l1,0c0.2-4.7,0.1-9.3,0-14l-1,0.1c-0.3-0.5-0.8-1.4-1.1-1.9c8.3-1.4,17-2.1,25.1,0.7c0-0.4,0-1.3,0-1.8
			c3.1-1.5-0.2-8.9,1-12l-1,0c1.4-9.6-7.8-15.3-14.3-20.3c0.8-3.2,2.5-7-0.6-9.5c1.4-1,4.9-0.4,4.9-2.4c2.3-0.7,1.4-4.9,0.6-6.8
			c0.4-1.7,1.3-4.6-1.5-4.3c3.4-2.6,1-6.4-0.3-9.5c-1-0.4-3.3,0.1-2.2-1.6c1.6-4.1-5.4-0.4-4.8-3.7C173.2-42.9,164.6-52,156.4-48.4z
			"/>
	</g>
	<g id="_x23_c2c4c6ff">
		<path class="st65" d="M70.5-97.2c1.8,1.1,3.4,2.6,5.5,3.2c0.3,0.3,0.8,0.8,1,1.1c-5.3,8.3-10.2,17-15.8,25.1
			c-0.1-0.6-0.3-1.8-0.4-2.3c0.8-3.4,0.4-6.4-2.9-7.5c0.4-0.2,1.2-0.6,1.6-0.8C63.2-84.7,67.6-90.6,70.5-97.2z"/>
	</g>
	<g id="_x23_c1c2c4ff">
		<path class="st66" d="M498.4-87.4c-0.7-1.2-1.8-2.6-0.6-3.9c2.7,0.7,5.4,1.1,8.2,1.6c2.3,7.2,7.6,13.3,11,20
			c-1.5,1.1-4.5,1.2-4.1,3.6c0,1.8,1.2,3.4,2.1,4.9c2-0.8,3.9-1.9,5.8-2.8c2.1,7.6,5.9,14.6,8.4,22.1c-1.6,0.8-4.6,1.1-4.2,3.6
			c-0.1,0.6-0.3,1.8-0.3,2.4c-4.4-7.7-6.5-16.4-10.8-24.2C509-69.2,504.1-78.5,498.4-87.4z"/>
	</g>
	<g id="_x23_0000000b">
		<path class="st67" d="M284.1-86.1c6.3,2.3,12.2,5.8,18.8,7.4c0,0.4,0,1.2,0,1.6c-4.4,2-8.3,5.6-12.7,7
			C288.4-75.5,285.9-80.7,284.1-86.1z"/>
	</g>
	<g id="_x23_0000009d">
		<path class="st68" d="M325-71.7c1.9,0.6,1.8,5.8,0.1,6.6C325-66.8,325-70.1,325-71.7z"/>
	</g>
	<g id="_x23_00000077">
		<path class="st69" d="M330.1-71.1c1.1,0.2,2.1,0.4,3.2,0.6c-6,0.1,1,10.6-3.2,11.5C330-63,330-67,330.1-71.1z"/>
	</g>
	<g id="_x23_000000a8">
		<path class="st70" d="M338-70c5.3-0.1,10.7,0,16,0l0,1c-5.3,0.1-10.6,0.1-16,0L338-70z"/>
	</g>
	<g id="_x23_c1c3c4ff">
		<path class="st71" d="M48.1-58.8c2.8,0,5.6-0.7,8-2.3c0.4,0,1.3,0.1,1.8,0.2c-4.8,11.9-10,23.6-14,35.8c-0.3-0.2-0.9-0.7-1.2-0.9
			c1.2-3.1,2.7-6.3,2.2-9.7c-1.6-0.8-3.3-1.5-4.8-0.3C42-43.8,47.6-50.7,48.1-58.8z"/>
	</g>
	<g id="_x23_000600ff">
		<path class="st72" d="M465.3-58.7c6.4-3.4,14.5-3,20.7,0.7c3.7,1.4,4.3,8.1,0,9c-5.7,0.7-7.4-6.1-11.2-8.8
			c-5.2-2.5-9.7,3.1-9.5,7.6c5.3,9.8,18.8,15,19.7,27.2c0,3.3,0,6.7,0,10c-1.7,16.1-16.7,32.1-34,28.9C441.9,13.7,439.7,3,441-5
			c2.3-10.7,11-19.4,21.3-22.7c3.4-1.7,7.5-1.3,10.7-3.5c-3.9-4.4-7.8-9-10.7-14.2C461.9-49.8,460.9-55.8,465.3-58.7 M470.3-27.6
			c-11.9,3.8-19.2,15.9-20.4,27.8c-1.8,0.8-1.8,5.9,0,6.7c0.5,8.8,13.8,7.6,17.1,1.2c4.1-6.8,8.2-14,8.9-22c0.3-2.5,0.7-7.5,1-10
			l-1,0C475.6-26.5,474.5-30.9,470.3-27.6z"/>
	</g>
	<g id="_x23_a3a8a3ff">
		<path class="st73" d="M156.4-48.4c8.2-3.6,16.9,5.5,15.5,13.5c-0.4,0-1.2,0-1.6,0c-0.9-4.5-2.6-10.6-7.9-11.4
			c-11.7-0.8-23.2,1.6-34.8,2.8c-3.3,0.2-6.9,0.5-9.5,2.8c-0.5,4.9,4.1,8.7,2.9,13.8c0.8,10.2-7.7,18-7.9,28.1
			C112.3,12.9,125.8,19.3,125,31c1.6,5.1-3.5,8.9-2.9,13.8c4.5,2.3,9.4-0.9,14.1-1.6c2.8-0.2,2.8-3.4,3.7-5.4c0.1,2,0.1,4,0.1,6.1
			c-0.5,0.2-1.5,0.5-2,0.7c-4.3,1-8.5,3.1-13,3.5c-2.7,0-5.4,0-8,0c0-1.4-0.1-2.7-0.1-4.1c1-0.8,2.2-1.5,3-2.6
			c1.5-1.8,2.4-4.1,3.4-6.2c1.4-2.3,2.1-5.5-0.1-7.3L123,27c-1.9-7.6-9.4-12.3-11-20c-3-10.7,4-20.3,7.5-30c1.2-2.2,1.3-5-0.1-7.1
			c-0.7-3.2-2.5-5.9-4.6-8.3c-0.5-0.6-1.1-1.2-1.6-1.8c0-0.7-0.1-2-0.2-2.7c2.1-1.9,5.1-0.9,7.7-1.5
			C132.6-45.7,144.5-46.8,156.4-48.4z"/>
	</g>
	<g id="_x23_cacacaff">
		<path class="st74" d="M127.6-43.6c11.6-1.2,23.1-3.6,34.8-2.8c5.4,0.9,7,6.9,7.9,11.4c-2.5,3.4-7.9,5.6-7.1,10.5
			c-3.3,3-4.5,7.6-5,11.9c-2.9,5.1-3.5,11-5.2,16.6c-1.2,2.6,1.2,5.1-0.2,7.7c-1.9,5.7,0.1,11.5,1.2,17.1c-3.5,0.7-10.2-0.3-8.4,5.9
			c-1.4,2-4.9,0.7-5.9,3.1c-0.9,2-0.9,5.2-3.7,5.4c-4.6,0.7-9.5,3.9-14.1,1.6c-0.6-4.9,4.5-8.7,2.9-13.8
			c0.8-11.7-12.7-18.2-11.9-29.9C113.3-9,121.8-16.8,121-27c1.1-5.1-3.5-8.9-2.9-13.8C120.7-43.1,124.3-43.4,127.6-43.6z"/>
	</g>
	<g id="_x23_0016008b">
		<path class="st75" d="M427.4-47.3c0.7,2.8,0.7,5.6,1,8.5l-1.1,0.1C427.2-41.5,427.3-44.4,427.4-47.3z"/>
	</g>
	<g id="_x23_0c0d0dff">
		<path class="st76" d="M529.3-41.8c5.3-1.2,10.4-3.4,15.6-5.2c2.5,5.4,3.8,11.3,6,16.8c-1.1,1.4-3.1,1.2-4.7,1
			c-1.4-3.2-2.1-6.6-3.5-9.8c-1.3-0.4-2.9,0.5-2.7,1.9c0.3,3.1,2.2,5.8,2.9,8.8c-1.3,0.5-2.5,1-3.8,1.2c-1.7-2.9-1.7-6.6-4.3-9
			c-5.2,1.9-0.9,7.7,0.5,11c-1.4,0.9-2.9,1.7-4.4,2.4c-2.2-5.1-3.7-10.5-5.8-15.6C524.7-40.7,527.7-41,529.3-41.8z"/>
	</g>
	<g id="_x23_646864ff">
		<path class="st77" d="M101.9-35c0.9-3.4,2.5-8,6.7-7.9c0.5,2.1,2.9,2,4.5,2.7c0.6,0.6,1.1,1.1,1.6,1.8c-0.8,2.7,0.2,5.5,0.1,8.3
			c-0.9,2.6-2.4,4.8-3.9,7.1c-4.8,1.4-9.2-3.4-9-8c2.4-0.6,4.2,0.8,5.4,2.8c4.9,1.8,5.1-6.4,2.4-8.6C107-37.2,104.9-34.3,101.9-35z"
			/>
	</g>
	<g id="_x23_909590ff">
		<path class="st78" d="M108.7-42.9c1.4-0.1,2.9-0.1,4.3,0c0,0.7,0.1,2,0.2,2.7C111.5-40.9,109.2-40.8,108.7-42.9z"/>
	</g>
	<g id="_x23_fdf8aafe">
		<path class="st79" d="M223.7-40.9c10.7,4.4,20.3,10.9,31.1,15c8,7,18.5,10.1,27.3,15.9c3,2,6.8,3.3,8.5,6.7c-1,2.6-2,5.2-3.1,7.6
			c-16.3-8.5-32.3-17.6-48.7-25.8c-3.7,0.8-11-4.6-12.1,1.6C226.4-26.9,222.4-33.9,223.7-40.9z"/>
	</g>
	<g id="_x23_053905f6">
		<path class="st80" d="M427.3-38.6l1.1-0.1c-1.6,3.3-5.8,4.1-9,5.1c-16,4.7-33.3,9.2-45.1,21.9C360.1,5.5,348.9,27,351,50
			c1.8,29.8,6.8,60.8,24.1,85.9c6.8,11.8,15.8,22.5,27.7,29.4c18.7,9.9,41.4,13.4,61.7,6.1c17.3-6.1,34-15.9,45.4-30.7
			c10.2-12.2,13.5-28,17.5-43c0.3,1,0.7,2.1,1,3.1c-2.1,11.5-5.4,22.9-9.3,34l-0.6-0.3l-0.6-0.4c-14,23.2-39.4,37.6-65.5,43.1
			c-1.8,0-5.3-0.1-7.1-0.2c-3.5-0.1-6.8-0.1-10.3,0.2c-17.3-1.3-34.4-7.8-47-20c-13.6-15.2-23.5-33.2-30.6-52.2
			c-2.7-11.2-4.4-22.7-7.1-33.9c-0.2-5.7-0.8-11.3-1.3-16.9c0.1-5.1,0.3-10.2,0.3-15.3c-0.4-5.5,1.1-10.7,2.4-16
			c1.3-3.3,2.6-6.7,4-10c1.7-3.3,3.3-6.5,4.9-9.8c1.9-3,3.8-6.1,5.8-9c0.2-0.3,0.7-0.9,1-1.1c3.9-5,8.7-9.3,13.2-13.8
			C394.2-30.5,411.5-32.9,427.3-38.6z"/>
	</g>
	<g id="_x23_363a36ff">
		<path class="st81" d="M114.9-30.1c0.1-2.8-0.8-5.6-0.1-8.3c2.2,2.4,3.9,5.1,4.6,8.3c-0.5,1.7-0.7,3.5-0.7,5.2
			c-2.2,1.5-5.2,1.2-7.7,1.9C112.4-25.3,113.9-27.5,114.9-30.1z"/>
	</g>
	<g id="_x23_bdc3bdff">
		<path class="st82" d="M101.9-35c3,0.7,5-2.2,7.8-1.9c2.7,2.3,2.5,10.5-2.4,8.6c-1.2-1.9-2.9-3.4-5.4-2.8c-1.3,0-2.7,0-4-0.1
			C97.3-33.7,99.3-35.6,101.9-35z"/>
	</g>
	<g id="_x23_848584ff">
		<path class="st83" d="M170.3-35c0.4,0,1.2,0,1.6,0c-0.6,3.3,6.3-0.5,4.8,3.7c-1.1,1.7,1.2,1.2,2.2,1.6c1.3,3.1,3.7,6.9,0.3,9.5
			c2.8-0.3,1.9,2.6,1.5,4.3c-0.7,2.2-0.9,4.5-0.6,6.8c0,2-3.5,1.3-4.9,2.4c3.1,2.6,1.4,6.3,0.6,9.5c-0.2,0.5-0.5,1.6-0.7,2.2
			c-2.2,1.3-4.6,2.3-6.7,3.7c0.4,0.4,1.3,1.1,1.8,1.5c-1.7,2.9-3.2,6.1-6.6,7.4c0.4,2.5,0.4,5-0.7,7.3c-1.6,1.7-4,2.2-6.1,3.1
			c0.3-1.7,0.6-3.3,1-5c3.3,0.5,2.9-3.9,4.4-5.8c1.9-2.6,3.9-5.3,4.3-8.7c3.2-3.8,9.4-6,7.5-12.3c-0.4-5.1,6.2-8.1,4.7-13.4
			c0.7-5.5-2.5-14-9.4-12.4c-4.6,5.2-9.6,12.3-7.6,19.6c-1.1,2.4-3.4,4.1-4.2,6.6c0.4,4-3,7.4-2.1,11.3c0.6,4.5-3.1,9.8,0.6,13.6
			c-1,2.1,1,7.3-1.9,7.5c-1.1-5.6-3.2-11.4-1.2-17.1c1.3-2.6-1.1-5.1,0.2-7.7c1.7-5.5,2.3-11.5,5.2-16.6c0.5-4.3,1.7-8.9,5-11.9
			C162.4-29.3,167.8-31.6,170.3-35z"/>
	</g>
	<g id="_x23_636f63ff">
		<path class="st84" d="M119.4-30.1c1.4,2.1,1.3,4.9,0.1,7.1c-0.2-0.5-0.6-1.4-0.8-1.9C118.8-26.6,119-28.4,119.4-30.1z"/>
	</g>
	<g id="_x23_939393ff">
		<path class="st85" d="M169.3-29.8c6.9-1.6,10.1,6.9,9.4,12.4c1.4,5.3-5.1,8.3-4.7,13.4c1.9,6.3-4.3,8.6-7.5,12.3
			c-0.4,3.4-2.4,6.1-4.3,8.7c-1.5,2-1.1,6.3-4.4,5.8c1-5.6,2.5-11.1,3.7-16.6c2.8-10.3,8-20,9.6-30.5c-6.1,8.6-8.2,19.1-10.7,29.1
			c-1.4,5.5-2.5,11-4.3,16.4c-3.7-3.8,0-9.1-0.6-13.6c-0.9-4,2.5-7.3,2.1-11.3c0.8-2.5,3.1-4.2,4.2-6.6
			C159.7-17.5,164.7-24.6,169.3-29.8z"/>
	</g>
	<g id="_x23_009700ff">
		<path class="st86" d="M470.3-27.6c4.2-3.2,5.3,1.1,5.7,3.6c0,3.3,0,6.7,0,10c-0.8,8.1-4.9,15.2-8.9,22c-3.4,6.4-16.6,7.7-17.1-1.2
			c0-1.7,0-5,0-6.7C451.1-11.7,458.4-23.9,470.3-27.6z"/>
	</g>
	<g id="_x23_fdf697fd">
		<path class="st87" d="M254.8-25.9c2.7,0.5,5.3,1.3,7.9,2.3c13.6,5.5,27.8,8.9,42.2,11.7c8.8,5.6,18.5,9.9,27,16
			c-0.2,0.5-0.6,1.4-0.8,1.9c-5.4,1.4-10.5,3.7-15.9,5c0.2-3.5-3.9-4.2-6.3-5.8c-3.9,0.4-5.9,5.2-9,7.4l-0.5-0.6
			c-2.4-5.4-5.3-10.5-8.9-15.2C288.8-6.7,285-8,282-10C273.2-15.8,262.8-18.9,254.8-25.9z"/>
	</g>
	<g id="_x23_c4c5c7ff">
		<path class="st88" d="M535.3-25c4,6.8,3.1,15.4,6.6,22.4c-4.4-0.8-6.8,0.6-6.1,4.6c-3-7.5-4.3-15.8-6.5-23.7
			c0.4-0.2,1.2-0.7,1.6-0.9C532.5-23.3,533.9-24.1,535.3-25z"/>
		<path class="st88" d="M528,125.8c2.9-8.8,4.3-18.3,7.7-26.9c0.2,2.6,3.4,2.3,5.3,3.1c0.1,7-2.8,13.6-3.8,20.5
			c-2.7,0.3-5.8,0.9-7.4,3.4C529.4,125.9,528.5,125.9,528,125.8z"/>
		<path class="st88" d="M45.3,136.8c5.8,11.3,9.3,23.8,16.2,34.6c19.4,36.5,48.5,67.3,82.7,90.4c26.1,17.4,55.7,29.4,86.1,36.9
			c-0.3,0.6-1,1.8-1.3,2.4C153.2,284.4,85.9,231.5,53,161c-3.7-6.4-5.9-13.5-9.1-20.1C44.4,139.5,44.9,138.2,45.3,136.8z"/>
	</g>
	<g id="_x23_414141ff">
		<path class="st89" d="M160.3,4.9c2.5-10.1,4.6-20.5,10.7-29.1c-1.6,10.5-6.8,20.2-9.6,30.5C161.1,5.9,160.6,5.3,160.3,4.9z"/>
	</g>
	<g id="_x23_004000ff">
		<path class="st90" d="M476-24l1,0c-0.3,2.5-0.7,7.5-1,10C476-17.3,476-20.7,476-24z"/>
	</g>
	<g id="_x23_fef8b9ff">
		<path class="st91" d="M226.5-19.9c1.1-6.2,8.4-0.9,12.1-1.6c16.4,8.3,32.4,17.3,48.7,25.8c-1.3,3.6-2.7,7.2-4,10.8
			c-1.4-4.1-5.3-5.5-9.4-5.9c1.8,0.4,3-1.5,1.4-2.6C262-1.7,248.8-10,235.6-18.6c-1.5-0.9-3.5-0.8-2.5,1.4
			c4.8,4.3,11.7,6.2,15.9,11.2c-6.9-2.4-14.3-5.9-21.8-4.3C226.9-13.4,226.8-16.7,226.5-19.9z"/>
	</g>
	<g id="_x23_b8babcff">
		<path class="st92" d="M36-19.7c1,0.4,2,0.7,3,1c1.3,0.3,2.7,0.3,4,0.8C24.9,46.1,33.6,117.4,67.1,175
			c27.7,48.8,72.5,87.7,124.6,108.3c17.9,7.2,36.6,12,55.6,15.4c21.3,2.9,42.8,3,64.3,2.5c0.2,0.4,0.5,1.2,0.7,1.6
			c-3.8,0.1-7.5,0.2-11.3,0.2c-2.7,0-8,0.1-10.7,0.1l-0.2,0.9l-0.2,0.9c-1.7,0-5.2,0.1-7,0.1c-6.6-2.5-15.3-3.8-20.6,1.8
			c-1.6-0.8-3.4-0.8-5.2-1c-0.1-1.3-0.1-2.6-0.3-3.9c-3.3-0.1-6.8-0.4-9.9,0.9c-2.6-0.4-5.1-0.7-7.7-1c-0.9-3.7-6.2-1.9-9-3.2
			c-30.4-7.5-60-19.4-86.1-36.9c-34.1-23.1-63.3-53.9-82.7-90.4c-6.9-10.8-10.4-23.3-16.2-34.6c0.3-4.5-1.8-8.3-4.3-11.8
			c0-5.4-2.3-10.4-3.4-15.7c-1.1-3.9-1.2-8.2-3.5-11.7c0-0.4,0-1.1,0-1.5c1.8-2,2.1-5.5,0.1-7.3c-0.8-2-1.9-3.8-3-5.6
			c1.3-8.3-0.8-16.6-1.1-25c0.2-0.3,0.6-1,0.8-1.3c0.3-5.2,0.2-10.3-0.1-15.5c-1-0.4-2-0.9-3-1.3c0.5-0.1,1.5-0.3,2-0.3
			c0.4-6.8,1.3-13.6,1.3-20.5c0.4-0.2,1.2-0.5,1.6-0.7c0.6-5.5,1.8-11,2.3-16.5c-1.6-0.1-3.2-0.1-4.8,0C34.4-4.2,34.7-12.5,36-19.7z
			"/>
	</g>
	<g id="_x23_d47e4aff">
		<path class="st93" d="M233.1-17.1c-1-2.2,1.1-2.3,2.5-1.4C248.8-10,262-1.7,275.3,6.7c1.6,1.1,0.4,3-1.4,2.6
			c-5.6-3.4-11.8-5.9-16.6-10.4c-2.4-2.2-5-4.2-8.2-4.9C244.8-10.9,237.9-12.8,233.1-17.1z"/>
	</g>
	<g id="_x23_4e854eff">
		<path class="st94" d="M180-9.2c-0.3-2.3-0.1-4.5,0.6-6.8C181.4-14.2,182.3-9.9,180-9.2z"/>
	</g>
	<g id="_x23_faf27cfb">
		<path class="st95" d="M304.8-11.9c11.6,1.8,23.2,3.4,34.9,3.9c1.6,4.1,6.7,5.1,9.7,7.9c-6.1,2-12.2,4.4-18.5,6
			c0.2-0.5,0.6-1.4,0.8-1.9C323.3-2,313.6-6.3,304.8-11.9z"/>
	</g>
	<g id="_x23_fefacbff">
		<path class="st96" d="M227.2-10.3c7.6-1.6,14.9,1.9,21.8,4.3c2.1,2.4,4.9,4.4,8.2,4.9c4.8,4.5,11.1,6.9,16.6,10.4
			c4.1,0.4,8.1,1.8,9.4,5.9c-1,2.6-2,5.3-3,8c-2.3-0.8-5.5-2.9-7.3-0.3c0.1-2.3-2.3-2.8-4-3.5c0.2-0.3,0.6-0.9,0.7-1.2
			c-2.2-2.6-5.8-3.4-8-5.9c4.3,0.8,7.9,3.7,12.1,4.7c0.3-0.5,1-1.4,1.3-1.8C262,8.4,248.8,1.7,235.2-4c-0.3,0.5-1,1.4-1.3,1.9
			c4.6,2.6,9.5,4.6,14.3,7c-5,0-10,0.2-15-0.3c-2.1,1.8-4.1,3.7-6.3,5.4c0.1-1.7,0.3-5.1,0.4-6.8c0.3-4.1,1.6-8.6,0-12.6L227.2-10.3
			z"/>
	</g>
	<g id="_x23_bfc7a2ff">
		<path class="st97" d="M227.2-9.4c1.7,4,0.4,8.5,0,12.6C227.2-1,227.2-5.2,227.2-9.4z"/>
	</g>
	<g id="_x23_faf166fc">
		<path class="st98" d="M339.7-7.9c4.7,0,9.3,1.4,14,1.2c4.1,0.5,8.2,0.7,12.3,0.9c-2,2.9-3.9,6-5.8,9c-2.3-1.1-4.7-2.2-7.2-2.6
			c-1.2-0.2-2.4-0.5-3.6-0.6C346.5-2.9,341.3-3.8,339.7-7.9z"/>
	</g>
	<g id="_x23_9791369b">
		<path class="st99" d="M353.8-6.7c4.4-0.1,8.8-0.2,13.3-0.2c-0.2,0.3-0.7,0.9-1,1.1C362-6,357.9-6.2,353.8-6.7z"/>
	</g>
	<g id="_x23_fbf0b9ff">
		<path class="st100" d="M249-6c3.2,0.7,5.9,2.7,8.2,4.9C253.9-1.5,251.1-3.5,249-6z"/>
	</g>
	<g id="_x23_d47d4bff">
		<path class="st101" d="M235.2-4c13.6,5.7,26.8,12.4,39.9,19.1c-0.3,0.4-1,1.3-1.3,1.8c-4.2-1-7.8-3.9-12.1-4.7
			c-4.7-2.1-9-4.9-13.6-7.3c-4.7-2.4-9.6-4.4-14.3-7C234.2-2.6,234.9-3.5,235.2-4z"/>
	</g>
	<g id="_x23_ffc858ff">
		<path class="st102" d="M290.5-3.3c3.7,4.6,6.5,9.8,8.9,15.2c-4.3,8.6-12.7,14.5-19.4,21.2c-0.3-0.2-0.9-0.6-1.3-0.9
			c0.2-3.1,0.9-6,1.5-9c1-2.7,2-5.4,3-8c1.3-3.6,2.8-7.2,4-10.8C288.5,1.9,289.5-0.7,290.5-3.3z"/>
	</g>
	<g id="_x23_000b00ff">
		<path class="st103" d="M402,6c2.3-8.2,14.5-9.9,19.8-3.8c1,2.4-1.2,4.6-3.6,3.7c-2-2.6-3.3-7.3-8-4.8c-3.6,2.6-4.2,7.7-0.2,10.3
			c2.1,0.7,4.4,0.9,6.8,0.5c0.3,0.2,0.9,0.7,1.2,1l-1,0c-2.8,0.2-5.9-0.8-8.3,0.8c-3,1.6-1.7,5.3-1.7,8.2c1.2,5,10.4,4.1,10.8-1
			c0.2-2.7,3.2-3.1,5.1-1.8c1.2,3.7-2.3,6.2-5.2,7.6c-5.9,1-12.8,0.4-16.6-4.9c-1.8-4.9,2.7-8.6,6.9-9C405.5,11.1,402.9,9.1,402,6z"
			/>
	</g>
	<g id="_x23_d1743cff">
		<path class="st104" d="M349.5,0c1.2,0.2,2.4,0.4,3.6,0.6c-2.9,3.7-8.2,3.2-12.3,4.9c-5.6,2-11.4,3.5-17.1,5.4
			c-4.6,1.5-9.1,3-13.8,3.9c-0.9-3.5,2.9-3.2,5.3-4c5.4-1.3,10.5-3.5,15.9-5C337.3,4.4,343.4,2,349.5,0z"/>
	</g>
	<g id="_x23_fbf276ff">
		<path class="st105" d="M353.1,0.6c2.5,0.4,4.9,1.5,7.2,2.6c-1.6,3.3-3.2,6.6-4.9,9.8c-1.9-1.3-4-2.4-6.1-3.3
			c-2.7-1.6-5.3-3.7-8.5-4.2C344.8,3.8,350.1,4.3,353.1,0.6z"/>
	</g>
	<g id="_x23_002b00ff">
		<path class="st106" d="M450,6.9c-1.8-0.8-1.8-5.9,0-6.7C450,1.8,450,5.2,450,6.9z"/>
	</g>
	<g id="_x23_0d0d0dff">
		<path class="st107" d="M30.2,2.1C31.8,2,33.4,2,35,2.1c-0.5,5.5-1.6,11-2.3,16.5c-0.4,0.2-1.2,0.5-1.6,0.7
			c-1.8-0.4-3.5-0.9-5.3-1.2c-4.9-0.9-9.8-1.5-14.7-2.3c0.2-2.2,0.6-4.5,1-6.7c5.2,0.9,10.4,2.2,15.7,1.8
			C30.3,8.6,27.9,4.5,30.2,2.1z"/>
		<path class="st107" d="M539.2,83.2c1.9,0.2,3.8,0.6,5.7,0.8c5,0.8,10,1.9,15,2.2c-0.6,5.9-1.9,11.9-3.2,17.7
			c-1.3,0.1-2.5,0.1-3.8,0.1c0.4-4,1-8,0.9-12c-3.7-1.1-3.2,2.7-3.6,5.1c3.4,5.2-3.4,6.3-5.1,3.7c0.3-2.3,0.8-4.6,1-6.8
			c-0.1-0.9,1.8-3.5-0.2-3c-2.8-0.9-4.3,1.5-4.1,4.1c-0.3,2.3-0.8,4.7-1,7c-1.8-0.9-5-0.5-5.3-3.1c1.9-2.8,1.8-6.4,2-9.7
			C538.1,87.2,538.6,85.2,539.2,83.2z"/>
		<path class="st107" d="M529.8,126c1.6-2.5,4.7-3,7.4-3.4c0.9,2-0.1,4.1-0.4,6.2c-1.5,1-3.2,1.5-4.7,2.4c-0.2,1.7-0.2,3.6,1.1,4.9
			c4.8-3,6.3-11.6,13.6-9c2,1.9,4.1,4.7,2.9,7.6c-1.2,4.5-3.2,11.2-9.5,9.3c0.3-2,0.7-3.9,1-5.9c3.3,0.4,4.6-2.3,3.9-5.2
			c-2.9-0.1-4,3.1-4.9,5.3c-1.4,1.6-2.9,3.2-4.9,4.1c-1.4-0.2-2.8-0.3-4.2-0.5c-1.2-0.9-2.4-1.8-3.5-2.8c-0.2-1.3-0.5-2.7-0.7-4
			C526.8,131.7,528.5,128.9,529.8,126z"/>
	</g>
	<g id="_x23_a2a8a2ff">
		<path class="st108" d="M175,4.8c0.2-0.5,0.5-1.6,0.7-2.2c6.5,5,15.7,10.8,14.3,20.3c0,4,0,8,0,12c0,0.5,0,1.4,0,1.8
			c-8.1-2.8-16.9-2.1-25.1-0.7c-1.1-0.5-3.9,0.7-3.8-1.1c8.4-2.1,17.1-2.1,25.7-2.2c0.3-0.3,0.8-0.8,1.1-1.1
			c-0.1-5.8,1.5-12.4-2.1-17.5C182.5,10.7,178.9,7.6,175,4.8z"/>
	</g>
	<g id="_x23_fef8d7ff">
		<path class="st109" d="M233.2,4.6c5,0.5,10,0.3,15,0.3c4.6,2.4,8.9,5.2,13.6,7.3c2.3,2.5,5.8,3.3,8,5.9c-0.2,0.3-0.6,0.9-0.7,1.2
			c-11.4-4-22.5-8.9-34.1-12.4c0.1,0.7,0.2,2,0.2,2.7c12.1,4,23.9,9,35.9,13.2c0.5,0,1.4,0,1.9,0c1.8-2.6,5-0.4,7.3,0.3
			c-0.7,3-1.4,6-1.5,9l-0.6-0.4c-1.7-1.5-3.6-3-5.7-3.8c-12.4-4.7-25.2-8.1-38.1-11c0.1-3.6-5-4.2-7.4-6l0-0.9
			C229.1,8.3,231.1,6.4,233.2,4.6z"/>
	</g>
	<g id="_x23_353535ff">
		<path class="st110" d="M160.3,4.9c0.3,0.3,0.8,1,1,1.3c-1.2,5.5-2.6,11-3.7,16.6c-0.4,1.6-0.7,3.3-1,5c-0.8,2.1,2.9,1.6,4.1,2.5
			c0.2,1.6,0.2,3.1,0.4,4.7c-0.2,1.8,2.7,0.6,3.8,1.1c0.3,0.5,0.8,1.4,1.1,1.9c0,4.6,0,9.3,0,13.9c-0.1,1.2-0.8,1.9-2,2
			c-7.3,0-14.6,0-21.9,0c-1.2-0.1-1.9-0.8-2-2c0-2.7,0-5.4-0.1-8.1c0-2-0.1-4.1-0.1-6.1c1-2.4,4.4-1.1,5.9-3.1
			c-1.8-6.2,4.9-5.2,8.4-5.9c2.9-0.2,0.9-5.4,1.9-7.5C157.8,16,158.9,10.4,160.3,4.9z"/>
	</g>
	<g id="_x23_c9c9c9ff">
		<path class="st111" d="M168.2,8.5c2.2-1.3,4.5-2.4,6.7-3.7c3.9,2.8,7.6,5.8,10.8,9.4c3.6,5.2,2,11.7,2.1,17.5
			c-0.3,0.3-0.8,0.8-1.1,1.1c-8.6,0.1-17.3,0-25.7,2.2c-0.1-1.6-0.1-3.1-0.4-4.7c-1.2-0.9-5-0.4-4.1-2.5c2.1-0.9,4.5-1.4,6.1-3.1
			c1.1-2.3,1.1-4.8,0.7-7.3c3.4-1.3,4.9-4.5,6.6-7.4C169.6,9.6,168.7,8.9,168.2,8.5z"/>
	</g>
	<g id="_x23_fef7a9ff">
		<path class="st112" d="M299.9,12.5c3.1-2.2,5.1-7,9-7.4c2.4,1.6,6.4,2.3,6.3,5.8c-2.3,0.8-6.1,0.5-5.3,4c4.7-1,9.3-2.5,13.8-3.9
			c2.2,1.1,4.5,2,6.4,3.6c-6.8,2.1-14.1,3.2-20.5,6.2c-2,1.9-3.9,3.8-5,6.3C303.2,22.2,302.3,17.1,299.9,12.5z"/>
	</g>
	<g id="_x23_fdf38bff">
		<path class="st113" d="M323.7,11c5.7-1.9,11.4-3.5,17.1-5.4c3.2,0.4,5.8,2.5,8.5,4.2c-6.3,2-12.8,3.3-19.2,4.9
			C328.3,13,326,12.1,323.7,11z"/>
	</g>
	<g id="_x23_d17442ff">
		<path class="st114" d="M235,7c11.6,3.5,22.6,8.4,34.1,12.4c1.7,0.7,4.1,1.2,4,3.5c-0.5,0-1.4,0-1.9,0
			c-12.1-4.2-23.8-9.2-35.9-13.2C235.1,9,235,7.6,235,7z"/>
	</g>
	<g id="_x23_607859ff">
		<path class="st115" d="M226.2,18.2c-0.1-2.8,0.3-5.5,0.7-8.2l0,0.9C226.8,13.3,226.5,15.8,226.2,18.2z"/>
	</g>
	<g id="_x23_d27840ff">
		<path class="st116" d="M330.1,14.6c6.4-1.6,12.9-2.9,19.2-4.9c-0.1,0.7-0.5,2.2-0.6,2.9c-5,1.2-10,2.5-15,4
			c-6.3,1.7-12.8,3.1-19,5.2c-1.9,0.6-5.4,2.6-5.2-1C316,17.9,323.3,16.8,330.1,14.6z"/>
	</g>
	<g id="_x23_fcf48cff">
		<path class="st117" d="M349.3,9.8c2.1,0.9,4.2,2,6.1,3.3c-1.4,3.3-2.7,6.6-4,10c-5.9-2.1-11.1-6.5-17.6-6.4c5-1.4,9.9-2.7,15-4
			C348.9,11.9,349.2,10.5,349.3,9.8z"/>
	</g>
	<g id="_x23_fefcf9ff">
		<path class="st118" d="M226.9,10.9c2.4,1.9,7.5,2.4,7.4,6c-0.3,1.4,0.6,2.3,1.5,3.1c3.9,5.1,11.3,6,15.1,11.2
			c-5.8,0-11.3-1.8-16.9-2.3c0,0.7,0,2.1,0.1,2.9c10.4,1.3,20.9,2.5,31,5c0.6,1.1,1.3,2.1,2,3.1c-0.8,0-2.3,0-3.1,0.1
			c-3.4,0-6.7,0-10,0c-3.1,0-6.1,0.1-9.2,0.2C240.8,40,236.9,40,233,40c-0.3,1.5,0.3,2.3,1.8,2.2c3.4,0.6,6.8,0.9,10.2,0.8
			c3.1-0.1,6.1-0.1,9.2-0.3c2.8,0.1,5.7,0.2,8.6,0.5c2.4-0.6,7.8,2.5,9.3-0.3l0.3-1c1.2,1.3,2.7,2.1,4.4,2.2c0.2,4,0.2,8.1,0.8,12.1
			c0.1,0.4,0.2,1.3,0.2,1.8c0.1,10.1,4.7,20.5,14.3,24.8c-0.8,0.1-2.5,0.4-3.4,0.5c-4.5-0.3-9-0.4-13.5-0.6
			c-5.1-0.9-10.3-1-15.4-0.6c-4.9-0.2-9.7-0.1-14.6-0.4c-4.1-0.5-8.5-1.6-12.5-0.1c-4.8,0.3-9.7,0.2-14.5,0.5
			c-4.4,0.4-9.2-1.2-13.5,0.6c-1.6,0.1-3.3,0.1-4.9,0.1c17.6-16.6,26.6-40.6,26.4-64.6C226.5,15.8,226.8,13.3,226.9,10.9 M266.2,50
			c-11.4,0.7-22.8,0.7-34.1,2.2c0,0.5,0,1.4-0.1,1.8c13.7,0.1,27.4-1.3,41-2.1c0-0.5-0.2-1.4-0.2-1.9
			C272.1,48.1,266.9,48.2,266.2,50 M267.4,57.5c-14.2,2.3-28.6,4.9-42.7,7.2c-2.5,1.6,5,5,5,1.8c14.1-2.5,28.4-4.5,42.4-7.4
			C275.7,57.4,268.8,54.8,267.4,57.5 M272.3,64.3c-17.4,4.1-35,7.6-52.4,11.8c0.7,1.8,2.3,2.3,4.1,1.8c16.6-3.8,33.3-7.5,50-11
			C274.1,65.3,274.5,63.1,272.3,64.3z"/>
	</g>
	<g id="_x23_005d00ff">
		<path class="st119" d="M410,11.4c1.8-0.8,5.9-1.5,6.8,0.5C414.4,12.4,412.1,12.2,410,11.4z"/>
	</g>
	<g id="_x23_fecd66ff">
		<path class="st120" d="M299.4,11.9l0.5,0.6c2.4,4.6,3.3,9.7,4.7,14.7c0.1,1.2,0.2,2.4,0.3,3.6c-5.2,4.7-2.5,11.9-3.9,17.8
			c-0.5-1.5-0.9-3.1-1.3-4.6c-0.5-2-1.2-4-1.9-6c-0.6-2.1-0.9-4.3-2.3-6.1c-1.3-2-2.5-4.1-4.1-5.8c-1.5,4.4-3,8.8-4.9,13.1
			c-1.9,3-1.2,6.7-1.5,10.2c-0.5,2.7-0.7,5.3-1,8l-0.1,0.9c-1.6-2.6-4-1.3-6-0.1c-0.1-0.4-0.2-1.3-0.2-1.8c0.3-5.8,0.3-11.7,0-17.5
			c0.1-1.8,0.4-5.2,0.5-7l0.6,0.4c0.3,0.2,0.9,0.6,1.3,0.9C286.7,26.3,295.1,20.5,299.4,11.9z"/>
	</g>
	<g id="_x23_005f00ff">
		<path class="st121" d="M408.7,13.8c2.4-1.6,5.5-0.6,8.3-0.8C416.1,15.3,411.2,13.5,408.7,13.8z"/>
	</g>
	<g id="_x23_d17545ff">
		<path class="st122" d="M234.4,16.9c12.9,3,25.8,6.4,38.1,11c-5.5,1.7-10.6-1.3-15.8-2.5c-6.9-1.8-13.7-4.4-20.8-5.5
			C235,19.2,234,18.3,234.4,16.9z"/>
	</g>
	<g id="_x23_fcf5a0ff">
		<path class="st123" d="M314.8,21.8c6.2-2,12.6-3.5,19-5.2c6.5-0.1,11.7,4.3,17.6,6.4c-1.2,5.3-2.8,10.5-2.4,16l-0.9,0
			c-0.1-1.9,0.2-4.3-2.2-4.6c-1.7-1,0.1,3.2-1.9,2.6c0-0.7-0.1-2.2-0.1-2.9c-2.6-3.2-7.6-6-12.1-6.4c4.7-1,9.4-2,14.1-2.9
			c0-0.7,0.1-2.1,0.1-2.8c-6.7,0.9-13.3,2.8-20,4c0.4-0.9,0.7-1.8,1-2.8C323,22.2,318.9,22,314.8,21.8z"/>
	</g>
	<g id="_x23_c1c3c5ff">
		<path class="st124" d="M539.2,47.6c0.3-10.3-1.7-20.6-0.5-30.8c0,3.4,4.2,0.6,6.3,1.1c0.5,7.8,0.8,15.6,1.9,23.3
			c-2.1,2.1-5.5,3.7-6.1,6.9C540.4,48,539.6,47.8,539.2,47.6z"/>
	</g>
	<g id="_x23_cbcdceff">
		<path class="st125" d="M25.8,18.1c1.8,0.3,3.5,0.8,5.3,1.2c0,6.9-0.9,13.7-1.3,20.5c-0.5,0.1-1.5,0.3-2,0.3
			c-0.5,0.2-1.5,0.6-2,0.7c-2.7,1.7,1,8.2-1.9,9.1C23.8,39.3,24.9,28.7,25.8,18.1z"/>
	</g>
	<g id="_x23_fefae5ff">
		<path class="st126" d="M235.9,20c7.1,1,13.8,3.6,20.8,5.5c5.2,1.2,10.3,4.2,15.8,2.5c2.1,0.9,4,2.3,5.7,3.8
			c-0.1,1.8-0.4,5.2-0.5,7c-0.5,1.8-0.7,3.6-0.9,5.4c-1.8-0.1-3.3-0.9-4.4-2.2L272,41c-0.7-1.8-3.4-0.7-4.9-1.1
			c-0.7-1-1.3-2.1-2-3.1c2.1-0.8,8.7,2.3,7.8-1.6c-7.2-1.8-14.8-1.8-21.9-3.9C247.2,26,239.8,25.1,235.9,20z"/>
	</g>
	<g id="_x23_fff9b8ff">
		<path class="st127" d="M304.6,27.1c1.1-2.5,3.1-4.4,5-6.3c-0.2,3.5,3.3,1.5,5.2,1c4.1,0.2,8.2,0.4,12.2,1.4
			c-0.3,0.9-0.6,1.9-1,2.8c-5.2,1.2-10.8,1.2-15.5,3.9c-1.7,0.9-3.1,2.2-4.6,3.4c-0.3-0.6-0.8-1.8-1.1-2.5
			C304.8,29.5,304.7,28.3,304.6,27.1z"/>
	</g>
	<g id="_x23_d27842ff">
		<path class="st128" d="M326,25.9c6.7-1.1,13.2-3.1,20-4c0,0.7-0.1,2.1-0.1,2.8c-4.7,0.9-9.4,1.9-14.1,2.9
			c-7,0.9-13.8,3.4-20.9,3.2l-0.4-1C315.2,27.1,320.9,27.1,326,25.9z"/>
	</g>
	<g id="_x23_001200ff">
		<path class="st129" d="M484.9,29.1c0.5-4.7,5.5-9.6,10.4-6.5c6.6,3.1,2.6,12.1-1.8,15.5c-0.2-0.3-0.5-0.9-0.6-1.2
			c3.2-3.2,4.2-8.4,0.9-11.8C489.2,22.9,487.6,27.2,484.9,29.1z"/>
	</g>
	<g id="_x23_269926ff">
		<path class="st130" d="M190,23l1,0c-1.2,3.1,2.1,10.5-1,12C190,31,190,27,190,23z"/>
	</g>
	<g id="_x23_ecea75ff">
		<path class="st131" d="M291.4,26c1.6,1.8,2.9,3.8,4.1,5.8c-2,2.7-5,8.7-9,7.2C288.4,34.8,289.9,30.4,291.4,26z"/>
	</g>
	<g id="_x23_236a23ff">
		<path class="st132" d="M111.1,28c0.7-2.9,7.4-0.4,10.3-0.6c-1.7,0.5-3.5,0.6-5.3,0.7C114.3,28,112.7,28,111.1,28z"/>
	</g>
	<g id="_x23_363636ff">
		<path class="st133" d="M121.3,27.4c0.4-0.1,1.2-0.3,1.7-0.3l0.3,0.8c0,1.8,0.1,5.5,0.1,7.3c-1,2.1-1.9,4.4-3.4,6.2
			c-0.3-4.7-1.4-9.3-4-13.3C117.8,28,119.6,27.8,121.3,27.4z"/>
		<path class="st133" d="M299,320.2c1.6-0.2,3.1-0.3,4.7-0.5l0.3,1.1c-3.1-0.7-3.4,1.6-3,4.1c2.7,0,8-0.1,10.7-0.1l0.3,1
			c-3.9,0.1-7.8,0.1-11.8,0C299.7,324,299.1,322.1,299,320.2z"/>
	</g>
	<g id="_x23_606264a7">
		<path class="st134" d="M-5.8,36.2c0-2.8,0.3-5.6,0.6-8.4C-5.1,30.6-5.5,33.4-5.8,36.2z"/>
	</g>
	<g id="_x23_656865ff">
		<path class="st135" d="M106.1,35c0.7-2.8,2.1-6,5-7c1.6,0,3.3,0,4.9,0.1c2.6,4,3.7,8.6,4,13.3c-0.9,1-2,1.7-3,2.6
			c-1.7,1-3.4,1.9-5.1,2.8c-3.6,0.3-5.3-4.6-5.8-7.7c2.6-0.5,4.2,1.8,6.1,3.1c3.8-1.5,3.3-5.9,1.8-9C110.8,32.1,109.1,35.8,106.1,35
			z"/>
	</g>
	<g id="_x23_616161ff">
		<path class="st136" d="M123.2,27.8c2.2,1.8,1.5,5.1,0.1,7.3C123.3,33.3,123.2,29.7,123.2,27.8z"/>
	</g>
	<g id="_x23_fef8b4ff">
		<path class="st137" d="M310.9,30.8c7.1,0.1,13.9-2.3,20.9-3.2c4.5,0.4,9.5,3.1,12.1,6.4c-5.3,0.4-10.5,1-15.8,1.1
			c-1.8,0-5.3,0-7,0C318.6,31.7,313.1,33.3,310.9,30.8z"/>
	</g>
	<g id="_x23_d37a4cff">
		<path class="st138" d="M234,29c5.7,0.4,11.2,2.3,16.9,2.3c7.1,2.2,14.7,2.2,21.9,3.9c1,3.9-5.7,0.8-7.8,1.6
			c-10.2-2.4-20.7-3.7-31-5C234.1,31.1,234,29.7,234,29z"/>
	</g>
	<g id="_x23_365738ff">
		<path class="st139" d="M532.2,29.2c1.7,1.2,0.9,4.8,0.4,6.7c-0.2-0.5-0.7-1.4-1-1.9l0-0.8C531.8,31.8,532,30.5,532.2,29.2z"/>
	</g>
	<g id="_x23_9ea1a3ff">
		<path class="st140" d="M38.3,36.9C37.7,35,37,31.2,39,30.1c0,1.7,0,5.1,0,6.7L38.3,36.9z"/>
	</g>
	<g id="_x23_fefacdff">
		<path class="st141" d="M306,33.2c1.5-1.2,2.9-2.5,4.6-3.4l0.4,1c2.2,2.5,7.7,0.9,10.1,4.3l0,0.8c-3,0-8.1-1.2-8.2,3.1
			c4.7,0.1,9.4,0.2,14-0.7c2.4,1.2,4.7,2.6,6.4,4.6c-6.1,0.1-12.1,0-18.2,0.2l-0.1,1c0,0.5,0,1.5,0,2l0,1c9,0.1,18,0,27,0
			c1.9,1.1,3.8,2.3,5.7,3.3c0.3,1.3,0.5,2.7,0.9,4c0.5,5.6,1.1,11.3,1.3,16.9c-2.2-0.7-4.1-1.8-6-3c-0.1-0.7-0.2-2.1-0.3-2.8
			c-5-1.2-10.1-2.3-14.8-4.1c-2-2.1-4-4.1-6.1-6.1c6.4-0.2,12.6,2,19,1.8c0.3-0.5,1-1.4,1.3-1.8c-7.3-1.7-14.8-1.8-22.1-3.3
			c-2.1-0.3-4.5-1.4-6.5,0c-1.6-1.3-6.1-5-5.8-0.7C308.2,45.1,307.2,39.1,306,33.2z"/>
	</g>
	<g id="_x23_fecf73fe">
		<path class="st142" d="M301,48.5c1.4-5.9-1.3-13.1,3.9-17.8c0.3,0.6,0.8,1.8,1.1,2.5c1.2,5.9,2.3,11.9,2.8,18
			c0.1,1.9,0.2,3.8,0.1,5.8c-1.7,2.3-1.8,4.7-0.5,7.1c-1.3,6.2-2.4,13.5-7.7,17.6c-2.5,1.3-5.3,1.4-7.9,2.1c-1.3-0.1-2.7-0.2-4-0.4
			c0.9-0.1,2.5-0.4,3.4-0.5c-9.6-4.4-14.2-14.7-14.3-24.8c2.1-1.3,4.4-2.5,6,0.1c0.1,2.8,0,5.7,0.8,8.4c0.6,5.8,5.8,11.7,12.1,10.4
			c6.7-5.3,6.2-15.2,5.2-22.8C301.8,52.2,301.3,50.4,301,48.5z"/>
	</g>
	<g id="_x23_f2db65ff">
		<path class="st143" d="M295.5,31.8c1.3,1.8,1.6,4,2.3,6.1c-5,2.8-8.3,7.8-12.8,11.3c0.3-3.4-0.3-7.1,1.5-10.2
			C290.6,40.5,293.6,34.5,295.5,31.8z"/>
	</g>
	<g id="_x23_bcc2bcff">
		<path class="st144" d="M106.1,35c3.1,0.8,4.7-2.9,7.8-2c1.5,3.1,2.1,7.6-1.8,9c-1.9-1.3-3.5-3.6-6.1-3.1c-1.7-0.2-3.7,0.4-4.9-1.2
			C101.7,35.7,103.9,34.6,106.1,35z"/>
	</g>
	<g id="_x23_d47d49ff">
		<path class="st145" d="M328.1,35.1c5.3-0.2,10.5-0.7,15.8-1.1c0,0.7,0.1,2.2,0.1,2.9c-5.8,0-11.4,0.6-17.1,1.4
			c-4.6,0.9-9.3,0.8-14,0.7c0.1-4.3,5.2-3.1,8.2-3.1C323.8,37.1,326.2,36.9,328.1,35.1z"/>
	</g>
	<g id="_x23_fffab9ff">
		<path class="st146" d="M344,36.9c2,0.7,0.2-3.6,1.9-2.6c2.5,0.3,2.1,2.7,2.2,4.6c-0.1,3.7-0.1,7.5-0.3,11.3c-2-1-3.8-2.2-5.7-3.3
			l-0.1-1c0-0.5-0.1-1.5-0.1-2c-0.3-3.2-6.3-0.2-8.7-1.2c-1.7-2-4-3.4-6.4-4.6C332.5,37.5,338.2,36.9,344,36.9z"/>
	</g>
	<g id="_x23_003c00ff">
		<path class="st147" d="M415,35c0.9-2.2,5.6-0.5,8-0.9l0,0.9C420.3,35,417.6,35,415,35z"/>
	</g>
	<g id="_x23_124912ff">
		<path class="st148" d="M531.7,59.7c1.4-8.6-1.5-17.2-0.1-25.7c0.2,0.5,0.7,1.5,1,1.9c0.6,1.6,0.4,3.4,0.5,5.1c-0.1,6-0.1,12,0,18
			c0.2,12.8-0.6,26-4.4,38.3c-0.5-1.8-0.7-3.6-0.9-5.4C529.7,81.2,531.3,70.5,531.7,59.7z"/>
	</g>
	<g id="_x23_ecc38bff">
		<path class="st149" d="M321,35.1c1.8,0,5.3,0,7,0c-1.9,1.7-4.3,2-7,0.7L321,35.1z"/>
	</g>
	<g id="_x23_000400ff">
		<path class="st150" d="M402.9,48c1.1-6,5.5-12.8,12-13c2.7,0,5.3,0,8,0c4.7-0.2,9.2,2.2,12.6,5.4c5.4,7.4,4.8,17.2,7.5,25.6
			c9.4-6.2,18.3-13.1,28-18.9c5.4,0,10.5,2.6,15.9,3.2c0,0.4-0.1,1.2-0.1,1.6c-13.8,8.9-27.1,18.3-40.8,27.4
			c-0.9,5.7,1.7,11.1,2.1,16.7c1.2,5,3.4,10.5,8.8,12.1c6,2.3,14,5.1,19.6,0.5c1.3-1.9,2.7-4.4,5.5-3.6c0.4,6.6-5.7,12.3-12,13
			c-3.1,0-6,0-9,0c-6.9-0.9-14.4-4.1-17-11c-3.5-7.2-2.6-15.5-5.2-23c-10.1,6.7-20.1,13.8-30.1,20.7c-5.8,0.8-11.1-2.1-16.8-2.9
			c1.4-2.8,4.7-3.9,7-5.8c12.3-8.5,24.5-16.9,36.9-25.2c0.3-7-1.9-13.7-3.3-20.5c-3.5-8.5-17.7-12.2-23.9-4.5
			C407.6,48.1,405.2,48.2,402.9,48z"/>
		<path class="st150" d="M484.8,46c1.1-1.5,2.4-2.9,3.9-4c0.3,4.2,7.4,1.1,9.5,1.2c2.9-2.5,1.3,1,0.6,2.8
			C494.1,46,489.5,46,484.8,46z"/>
	</g>
	<g id="_x23_697a6cff">
		<path class="st151" d="M38.3,36.9l0.6,0C39,47.3,39,57.6,39,68l-1,0C38.1,57.6,37.6,47.2,38.3,36.9z"/>
	</g>
	<g id="_x23_004100ff">
		<path class="st152" d="M488.7,42c1.4-1.7,2.7-3.4,4.2-5.1c0.2,0.3,0.5,0.9,0.6,1.2c0.1,1.9-2.8,3-3.8,4.8c2.8,0,5.6,0.1,8.4,0.3
			C496.1,43.1,489,46.1,488.7,42z"/>
	</g>
	<g id="_x23_1a661aff">
		<path class="st153" d="M166,38l1-0.1c0,4.7,0.2,9.3,0,14l-1,0C166,47.3,166,42.7,166,38z"/>
	</g>
	<g id="_x23_f7d057ff">
		<path class="st154" d="M285,49.2c4.5-3.5,7.8-8.5,12.8-11.3c0.6,2,1.4,4,1.9,6C293,46.2,289.5,53,284,57.2
			C284.3,54.5,284.5,51.8,285,49.2z"/>
	</g>
	<g id="_x23_fff2cfff">
		<path class="st155" d="M276.8,44.2c0.2-1.8,0.4-3.7,0.9-5.4c0.3,5.8,0.3,11.7,0,17.5C277,52.3,277,48.2,276.8,44.2z"/>
	</g>
	<g id="_x23_718553ff">
		<path class="st156" d="M348.1,39l0.9,0c0,5.1-0.1,10.2-0.3,15.3c-0.4-1.3-0.6-2.7-0.9-4C348,46.5,348,42.7,348.1,39z"/>
	</g>
	<g id="_x23_040404ff">
		<path class="st157" d="M25.8,40.8c0.5-0.2,1.5-0.5,2-0.7c1,0.4,2,0.9,3,1.3c0.3,5.2,0.4,10.3,0.1,15.5C27.3,57,23.6,57,20,57
			c-3.7,0-7.3,0-11,0c-0.1-1.3-0.1-2.6,0-3.9c3.7-4.8,11.8-0.6,17-2.2C26.1,47.5,26,44.2,25.8,40.8z"/>
	</g>
	<g id="_x23_cc6633ff">
		<path class="st158" d="M233,40c3.9,0,7.9,0,11.8,0.2c3,0.4,6.1,0.9,9.2,0.8c3.3,0,6.7,0,10,0c2.7,0,5.3,0,8,0.1l0.4,0.9l-0.3,1
			c-3.1,0.1-6.2,0.2-9.3,0.3c-2.9-0.2-5.7-0.3-8.6-0.5c-3.1-0.4-6.1-0.8-9.2-0.8c-3.4,0-6.8,0.1-10.2,0.3
			C233.2,42.3,232.6,41.6,233,40z"/>
		<path class="st158" d="M315,44c9,0,18,0,26.9,0c0,0.5,0.1,1.5,0.1,2c-9,0-18,0-27,0C315,45.5,315,44.5,315,44z"/>
	</g>
	<g id="_x23_d98c65ff">
		<path class="st159" d="M244.8,40.2c3.1-0.1,6.1-0.2,9.2-0.2v1C250.9,41.1,247.8,40.6,244.8,40.2z"/>
	</g>
	<g id="_x23_e7b496ff">
		<path class="st160" d="M254,40c3.3-0.1,6.6,0,10,0l0,1c-3.3,0-6.7,0-10,0V40z"/>
	</g>
	<g id="_x23_f2d8c0ff">
		<path class="st161" d="M264,40c0.8,0,2.3,0,3.1-0.1c1.5,0.4,4.3-0.7,4.9,1.1c-2.7,0-5.4-0.1-8-0.1L264,40z"/>
	</g>
	<g id="_x23_969798ff">
		<path class="st162" d="M24,50c2.9-0.9-0.9-7.5,1.9-9.1c0.2,3.4,0.2,6.7,0.1,10.1c-5.2,1.6-13.3-2.6-17,2.2c0-0.8,0.1-2.3,0.1-3
			C14,49.8,19,50.1,24,50z"/>
	</g>
	<g id="_x23_758279ff">
		<path class="st163" d="M533,41l1,0c0,6,0.2,12,0,18l-1,0C532.9,53,533,47,533,41z"/>
	</g>
	<g id="_x23_2425253f">
		<path class="st164" d="M-7,42l1,0c0,5.4,0,10.7,0,16l-1,0V42z"/>
	</g>
	<g id="_x23_e5b196ff">
		<path class="st165" d="M234.8,42.2c3.4-0.2,6.8-0.3,10.2-0.3v1C241.6,43.1,238.1,42.8,234.8,42.2z"/>
	</g>
	<g id="_x23_d98b64ff">
		<path class="st166" d="M245,42c3.1,0,6.1,0.4,9.2,0.8c-3.1,0.2-6.2,0.2-9.2,0.3V42z"/>
	</g>
	<g id="_x23_f2d8c3ff">
		<path class="st167" d="M262.8,43.2c3.1-0.1,6.2-0.2,9.3-0.3C270.6,45.7,265.1,42.6,262.8,43.2z"/>
	</g>
	<g id="_x23_f2d7a2ff">
		<path class="st168" d="M315,43.1c6-0.2,12.1,0,18.2-0.2c2.4,1,8.4-2.1,8.7,1.2c-9,0-18,0-26.9,0L315,43.1z"/>
	</g>
	<g id="_x23_939793ff">
		<path class="st169" d="M111.8,46.7c1.7-0.9,3.4-1.8,5.1-2.8c0,1.4,0,2.7,0.1,4.1l-1,0C114.4,48.2,112.9,47.8,111.8,46.7z"/>
	</g>
	<g id="_x23_1e6d1eff">
		<path class="st170" d="M138,44.5c0.5-0.2,1.5-0.5,2-0.7c0,2.7,0.1,5.4,0.1,8.1C136.5,52.6,140.5,46.1,138,44.5z"/>
	</g>
	<g id="_x23_fbc54bff">
		<path class="st171" d="M284,57.2c5.5-4.2,9-11,15.7-13.3c0.4,1.6,0.8,3.1,1.3,4.6c0.4,1.8,0.8,3.7,1,5.5c-1-0.8-2-1.5-3.1-2.2
			c-5.3,4.3-9.8,9.5-14.3,14.6c-0.8-2.7-0.7-5.6-0.8-8.4L284,57.2z"/>
	</g>
	<g id="_x23_f2d7a6ff">
		<path class="st172" d="M315,46c9,0,18,0,27,0l0.1,1c-9,0-18,0.2-27,0L315,46z"/>
	</g>
	<g id="_x23_007400ff">
		<path class="st173" d="M484.8,46c4.6,0,9.3,0,14,0l0.2,1c-4.7,0-9.3,0.3-14,0L484.8,46z"/>
	</g>
	<g id="_x23_3e993eff">
		<path class="st174" d="M116,48l1,0c2.7,0,5.3,0,8,0c-0.2,3.2-6.6,0.2-9,0.9L116,48z"/>
	</g>
	<g id="_x23_eecbb5ff">
		<path class="st175" d="M266.2,50c0.8-1.8,5.9-1.8,6.6,0C271.1,50,267.8,50,266.2,50z"/>
	</g>
	<g id="_x23_fbf9eafd">
		<path class="st176" d="M308.7,51.2c-0.3-4.3,4.2-0.6,5.8,0.7c0.8,3.6,5.5,2.2,8.3,3.2c2.1,2,4.1,4,6.1,6.1
			c-4.6-1-9.2-2.5-13.9-3.2c0,0.7,0.1,2.1,0.2,2.8c9.7,2.3,19.3,4.9,28.9,7.3c1.9,1.3,3.8,2.4,6,3c2.6,11.2,4.4,22.7,7.1,33.9
			c-8-4.1-15.6-9-24.1-12c-12.8-5.3-26.5-7.7-40.2-9.2c2.6-0.7,5.5-0.8,7.9-2.1c5.3-4.2,6.4-11.4,7.7-17.6c1.3-2.4,1.4-4.8,0.5-7.1
			C308.9,55,308.9,53.1,308.7,51.2 M314.1,64.2c-0.9,0.5-1.8,2.7-0.2,2.9c10.4,5.2,20.5,11,31.1,15.9c1.6,0.2,2.8-2.3,0.7-2.6
			C335,75.4,324.7,69.4,314.1,64.2 M311,73c-0.3,3.2,3.6,4,5.7,5.4c8.7,5.6,17.8,10.7,26.5,16.4c1.2,1.3,5,2.2,3.7-0.7
			c-9.3-6.5-19.4-11.8-28.9-18.1C315.7,74.9,313.8,72.5,311,73z"/>
	</g>
	<g id="_x23_d2784bff">
		<path class="st177" d="M232.1,52.1c11.3-1.5,22.7-1.5,34.1-2.2c1.7,0,5,0,6.6,0c0.1,0.5,0.2,1.4,0.2,1.9
			c-13.7,0.8-27.3,2.1-41,2.1C232,53.5,232,52.6,232.1,52.1z"/>
	</g>
	<g id="_x23_d37c4aff">
		<path class="st178" d="M314.5,51.9c2-1.4,4.3-0.3,6.5,0c7.3,1.4,14.8,1.6,22.1,3.3c-0.3,0.5-1,1.4-1.3,1.8c-6.4,0.1-12.6-2-19-1.8
			C320.1,54.1,315.4,55.5,314.5,51.9z"/>
	</g>
	<g id="_x23_febd41ff">
		<path class="st179" d="M284.7,66.5c4.5-5.1,9-10.3,14.3-14.6c1.1,0.6,2,1.4,3.1,2.2c1,7.6,1.5,17.5-5.2,22.8
			C290.5,78.2,285.2,72.3,284.7,66.5z"/>
	</g>
	<g id="_x23_196719ff">
		<path class="st180" d="M142,54c7.3,0,14.6,0,21.9,0l0,1c-7.3,0-14.7,0.2-22,0L142,54z"/>
	</g>
	<g id="_x23_c0c1c3ff">
		<path class="st181" d="M539.2,56.4c0.4-0.1,1.3-0.4,1.7-0.5c1,3.1,3.5,5.4,6.8,5.1c-2.5,2.6-1.7,6.4-2.3,9.6
			c-0.1,4.4-1.6,9-0.5,13.4c-1.9-0.2-3.8-0.5-5.7-0.8c-0.6,2-1.1,4-1.5,6C536,78.4,540.1,67.4,539.2,56.4z"/>
	</g>
	<g id="_x23_aaabacff">
		<path class="st182" d="M9,57c3.7,0,7.3,0,11,0v1c-2.7,0-8.2,0-10.9,0L9,57z"/>
	</g>
	<g id="_x23_696a6bff">
		<path class="st183" d="M20,57c3.6,0,7.3-0.1,10.9-0.1c-0.2,0.3-0.6,1-0.8,1.3C28.1,58.1,26,58,24,58c-1.3,0-2.6,0-4,0V57z"/>
	</g>
	<g id="_x23_d37a4eff">
		<path class="st184" d="M267.4,57.5c1.5-2.8,8.4-0.2,4.7,1.6c-14,2.9-28.3,4.9-42.4,7.4c0,3.2-7.5-0.2-5-1.8
			C238.7,62.4,253.1,59.9,267.4,57.5z"/>
	</g>
	<g id="_x23_ffe09cff">
		<path class="st185" d="M308.4,64.1c-1.4-2.4-1.2-4.8,0.5-7.1C309.8,59.3,309.6,61.6,308.4,64.1z"/>
	</g>
	<g id="_x23_c8cacbff">
		<path class="st186" d="M24,58c2.1,0,4.1,0.1,6.2,0.2c0.4,8.3,2.4,16.7,1.1,25c-2.5-1.7-5.5-2.5-8.5-2.6c1-0.3,2.1-0.6,3.1-0.9
			C25.6,72.5,24.8,65.2,24,58z"/>
	</g>
	<g id="_x23_d27948ff">
		<path class="st187" d="M315,58c4.7,0.7,9.3,2.2,13.9,3.2c4.8,1.8,9.9,2.9,14.8,4.1c0.1,0.7,0.2,2.1,0.3,2.8
			c-9.6-2.4-19.3-5-28.9-7.3C315.1,60.1,315,58.7,315,58z"/>
	</g>
	<g id="_x23_d2774aff">
		<path class="st188" d="M272.3,64.3c2.2-1.2,1.8,1,1.6,2.5c-16.7,3.5-33.4,7.2-50,11c-1.8,0.6-3.4,0-4.1-1.8
			C237.3,71.9,254.8,68.4,272.3,64.3z"/>
	</g>
	<g id="_x23_d27748ff">
		<path class="st189" d="M314.1,64.2c10.6,5.2,20.8,11.2,31.6,16.1c2.1,0.4,0.9,2.8-0.7,2.6c-10.6-4.8-20.7-10.6-31.1-15.9
			C312.3,66.8,313.2,64.7,314.1,64.2z"/>
	</g>
	<g id="_x23_595b5d9b">
		<path class="st190" d="M-5.7,64.7c0.9,2.8,0.4,5.6,0.4,8.5C-6.2,70.5-5.7,67.6-5.7,64.7z"/>
	</g>
	<g id="_x23_7f8982ff">
		<path class="st191" d="M39.5,72c0.8,2.2,1,4.4,0.5,6.9C37.8,78,38.7,73.8,39.5,72z"/>
	</g>
	<g id="_x23_d17648ff">
		<path class="st192" d="M311,73c2.8-0.5,4.7,1.9,7,3.1c9.5,6.3,19.6,11.6,28.9,18.1c1.3,2.9-2.5,1.9-3.7,0.7
			c-8.7-5.7-17.8-10.8-26.5-16.4C314.5,77,310.7,76.1,311,73z"/>
	</g>
	<g id="_x23_c2c2c2c2">
		<path class="st193" d="M232.7,81.7c4-1.5,8.4-0.4,12.5,0.1C241.1,81.8,236.9,81.8,232.7,81.7z"/>
	</g>
	<g id="_x23_5c5c5c5c">
		<path class="st194" d="M204.7,82.8c4.3-1.8,9.1-0.2,13.5-0.6C213.8,83,209.2,83,204.7,82.8z"/>
		<path class="st194" d="M259.8,82.2c5.1-0.4,10.3-0.3,15.4,0.6C270.1,83.1,264.9,83,259.8,82.2z"/>
	</g>
	<g id="_x23_cecfd0ff">
		<path class="st195" d="M23.3,87.4c3.2-0.1,8.5,1.7,5.6,6.5c-0.1,1.9-3.2,1.6-4.6,2.5c-3.7,2.4-9.4-2.8-6.4-6.5
			C18.7,87.6,21.4,88,23.3,87.4z"/>
		<path class="st195" d="M239.3,301.9c2.5,0.3,5.1,0.7,7.7,1c0.9,6.5-1.5,12.9-1.3,19.3c-0.7,3.1-5.6,1.8-7.5,1.2
			c-0.2-2.8-0.9-5.6-1.2-8.3C238.6,310.9,238.6,306.3,239.3,301.9z"/>
	</g>
	<g id="_x23_6a6b6cff">
		<path class="st196" d="M34.3,88.8c2,1.8,1.8,5.3-0.1,7.3C34.2,94.3,34.2,90.6,34.3,88.8z"/>
	</g>
	<g id="_x23_245326ff">
		<path class="st197" d="M527.2,97.8c0.1-1.5,0.4-4.5,0.5-6c0.2,1.8,0.4,3.6,0.9,5.4c-0.1,1,1.5,4.3-0.4,3.7
			C527.9,99.9,527.5,98.8,527.2,97.8z"/>
	</g>
	<g id="_x23_c5c7c8ff">
		<path class="st198" d="M29.9,101.9c1.3-1.5,2.7-2.9,4.2-4.3c2.3,3.5,2.4,7.8,3.5,11.7c1.1,5.2,3.4,10.3,3.4,15.7
			c-2-0.6-4.1-1-6.2-0.9l-0.7,0C35.6,116.6,31.1,109.2,29.9,101.9z"/>
	</g>
	<g id="_x23_001a00a4">
		<path class="st199" d="M135.9,105.8c1.9-1.8,4.3-2,7.2-0.7C141.2,106.9,138.8,107.1,135.9,105.8z"/>
	</g>
	<g id="_x23_005800ff">
		<path class="st200" d="M461,118c3,0,6,0,9,0c-0.1,3.2-6.5,0.3-9,1L461,118z"/>
	</g>
	<g id="_x23_3b3c3cff">
		<path class="st201" d="M34.2,124l0.7,0c0.3,2,0.5,3.9,0.9,5.9C33.2,129.5,32.6,127.5,34.2,124z"/>
	</g>
	<g id="_x23_cccdcfff">
		<path class="st202" d="M540.1,138.2c0.9-2.2,2-5.4,4.9-5.3c0.8,2.9-0.6,5.6-3.9,5.2L540.1,138.2z"/>
	</g>
	<g id="_x23_bcbdbfff">
		<path class="st203" d="M522.6,138.6c0.6-1.9,1.8-5.7,4.3-3.7c0.2,1.3,0.4,2.7,0.7,4c-5.5,9.6-8.9,20.4-14.4,30.1
			c-32.2,62.1-91.4,108.9-158.8,127.4c-4.8,1.5-10,1.7-14.5,4.2c-2.3-0.3-4.6-0.6-7-0.7c1.3-1.9,3.1-3.2,5.4-3.5
			c35.6-7.4,69.4-22.8,98.7-44.3C475.3,223.2,506.2,183.9,522.6,138.6z"/>
	</g>
	<g id="_x23_00000040">
		<path class="st204" d="M239,137c34.3-0.1,68.7-0.1,103,0l0,1l-1,0c-34,0-68,0-101.9,0L239,137z"/>
		<path class="st204" d="M190,163c5.3-0.1,10.7-0.1,16,0l-0.2,1c-5.3-0.1-10.6,0-15.8,0L190,163z"/>
		<path class="st204" d="M318,197c2.7,0,8.2,0,10.9,0.1l0,1c-2.7,0-8.2,0-10.9,0L318,197z"/>
	</g>
	<g id="_x23_000000f7">
		<path class="st205" d="M239.1,138c34,0,67.9,0,101.9,0c0,1.3-0.1,2.6-0.2,3.9c-32.6,0.3-65.1-0.2-97.7,0.2L243,143
			c-6.4,27.1-13.8,53.9-20.2,81l-0.6-0.3c-6.4-18.2-13.2-36.3-19.2-54.7c-2.9-2.3-8.8-0.6-12.9-1c-0.1-1.3-0.1-2.7,0-4
			c5.3,0,10.6,0,15.8,0c5.7,13.6,10,27.9,15.4,41.7l0.7,0.3C227.4,183.4,233.7,160.8,239.1,138z"/>
		<path class="st205" d="M245,162c3.5-0.1,2.8-5.2,6-5c0,8.8,0.1,17.5,0,26.3c-0.5-0.1-1.4-0.4-1.8-0.5c-0.1-6.6-0.2-13.2-0.2-19.8
			c-0.4,0.2-1.2,0.7-1.7,1c-1.3,1.6-3.5,2.3-5.3,3.2C241.5,164.6,242.5,162.9,245,162z"/>
	</g>
	<g id="_x23_c9caccff">
		<path class="st206" d="M513.1,169c5.6-9.7,8.9-20.4,14.4-30.1c1.1,1,2.3,1.9,3.5,2.8c-2,0-2.3,1.8-3,3.3
			c-29.9,77.7-99.9,138.4-181.1,156.8c-1.8,0-3,1.5-3.3,3.2c-0.9-1.7-2.3-3.3-3.8-4.5c4.4-2.5,9.7-2.7,14.5-4.2
			C421.6,278,480.9,231.1,513.1,169z"/>
	</g>
	<g id="_x23_cdced0ff">
		<path class="st207" d="M39.9,143.6c1.4-0.9,2.7-1.8,4-2.8c3.2,6.6,5.4,13.7,9.1,20.1c32.9,70.5,100.2,123.4,176,140.1
			c-0.1,1.7-0.2,3.4-0.6,5.1c-0.2-0.5-0.5-1.5-0.6-1.9c-54.2-12.5-104.1-42.5-140.5-84.6c-17.6-20.8-32.1-44.3-42.6-69.4
			C43.6,147.8,43.2,144.1,39.9,143.6z"/>
		<path class="st207" d="M332.8,313.3c-5,1-5.9-9.4,1-5.2C336.3,309.6,333.9,311.7,332.8,313.3z"/>
	</g>
	<g id="_x23_d3d4d6ff">
		<path class="st208" d="M528.1,145.1c0.6-1.5,1-3.3,3-3.3c1.4,0.2,2.8,0.3,4.2,0.5c-2.3,0.9-2.6,3.5-3.5,5.4
			C502.6,222.4,436.8,280.8,360,303c-5.3,1.2-10.5,2.8-15.4,5c-0.3-1-0.7-1.9-1-2.9c0.3-1.7,1.5-3.2,3.3-3.2
			C428.2,283.5,498.2,222.8,528.1,145.1z"/>
	</g>
	<g id="_x23_d5d6d8ff">
		<path class="st209" d="M38,144.6c0.5-0.2,1.5-0.7,2-0.9c3.3,0.5,3.7,4.1,4.8,6.6c10.5,25.2,25,48.6,42.6,69.4
			c36.4,42,86.3,72.1,140.5,84.6c0.2,0.5,0.5,1.5,0.6,1.9l-0.2,1c-2.1-0.1-4.3-0.3-6.4-0.9c-21-5.6-41.6-13-60.6-23.5
			c-22-11.3-41.6-26.6-60-43C76.1,215.1,55.8,185.5,42,153C40.7,150.1,39.8,147.1,38,144.6z"/>
	</g>
	<g id="_x23_00000075">
		<path class="st210" d="M322.3,154.8c0.9-2.5,7.2-0.2,4.1,2C325.8,154.9,323.8,155,322.3,154.8z"/>
	</g>
	<g id="_x23_000000f1">
		<path class="st27" d="M321.3,155l1-0.2c1.5,0.3,3.6,0.1,4.1,2c-5,15.9-8.9,32-13.7,47.9c-0.9,2.4-0.5,6.5-5.7,3.3
			C311,190.1,317.4,172.9,321.3,155z"/>
	</g>
	<g id="_x23_0000007e">
		<path class="st211" d="M251,156.9l1,0.1c0,9,0.2,18,0,26.9l-1,0.2l0-0.9C251,174.4,251,165.7,251,156.9z"/>
	</g>
	<g id="_x23_000000f8">
		<path class="st205" d="M302.2,164.3c3.5-1.3,5-5.9,8.8-6.4c0,8.7,0,17.4,0,26.1c-0.5,0-1.5,0-2,0c-0.1-6.7,0.2-13.4-0.1-20.1
			l-0.9,0.3c-2.1,0.8-3.7,2.9-6.1,2.9C302,166.4,302.2,165,302.2,164.3z"/>
	</g>
	<g id="_x23_00000080">
		<path class="st212" d="M311,157.9l1,0.1c0.1,8.6,0.1,17.3,0,26l-1,0C311,175.3,311,166.6,311,157.9z"/>
		<path class="st212" d="M291,181.4c1.9-0.6,5.8-1.4,6.8,0.6C295.2,182.4,293,182.2,291,181.4z"/>
		<path class="st212" d="M291,184.7c1.5-1.5,3.8-1.7,6.8-0.6C296.8,185.9,292.9,185.2,291,184.7z"/>
	</g>
	<g id="_x23_000000be">
		<path class="st45" d="M247.3,163.8c0.4-0.2,1.3-0.7,1.7-1c0,6.6,0.1,13.2,0.2,19.8c0.4,0.1,1.4,0.4,1.8,0.5l0,0.9
			c-0.7,0-2.2-0.1-2.9-0.2C247.8,177.2,248.5,170.4,247.3,163.8z"/>
	</g>
	<g id="_x23_000000c0">
		<path class="st45" d="M190,168c4.2,0.5,10.1-1.3,12.9,1c-4.3,0-8.6,0.1-13-0.1L190,168z"/>
		<path class="st45" d="M328.2,184c0.4,0,1.3,0.1,1.7,0.1c-0.2,2.5-0.7,7.5-0.9,9.9c-0.1-3.1,0.3-6.2-0.6-9.2L328.2,184z"/>
	</g>
	<g id="_x23_0000003e">
		<path class="st213" d="M287.3,180.9c-0.3-2-1.1-5.4,0.5-6.7l0.4,0.6c-0.1,2-0.1,4.1-0.3,6.2L287.3,180.9z"/>
		<path class="st213" d="M287.3,185.2h0.6c0.3,2,0.3,4.1,0.4,6.1l-0.4,0.5C286.2,190.6,287,187.1,287.3,185.2z"/>
	</g>
	<g id="_x23_000000ba">
		<path class="st214" d="M287.8,174.1c5.1-1.9,3,4,3.2,7.2c-1-2.3,0-5.9-2.8-6.7L287.8,174.1z"/>
		<path class="st214" d="M288.2,191.3c2.8-0.8,1.9-4.4,2.8-6.7c0.1,3.5,1.6,8.9-3.2,7.2L288.2,191.3z"/>
	</g>
	<g id="_x23_000000fe">
		<path d="M288.2,174.7c2.8,0.8,1.8,4.4,2.8,6.7c1.9,0.8,4.2,1,6.8,0.6c0,0.5,0,1.6,0,2.1c-3-1.1-5.3-0.9-6.8,0.6
			c-0.9,2.3,0,5.9-2.8,6.7c-0.1-2.1-0.1-4.1-0.4-6.1c0.4-3.7-6.7,0.8-6.8-2.2c-1-3.8,6.7,0.9,6.8-2.1
			C288.1,178.8,288.1,176.7,288.2,174.7z"/>
	</g>
	<g id="_x23_000000ed">
		<path class="st215" d="M270.1,177.1c0.5,0,1.4-0.1,1.9-0.1c0,5.3,0,10.6,0.1,15.9l1,0.1c1.6,0.1,3.8-0.3,3,2.1c1.4,4.5-8.4-1-3,7
			c0.3,2-2.8,0.6-3.9,1c0-1.5-0.1-4.5-0.1-6l0-1c-2.7,0-8.2-0.1-11-0.1C258.7,188.3,266.8,183.7,270.1,177.1 M268.2,184l0.2,0.8
			c-2.1,2.5-3.9,5.3-5.5,8.2c-1.9,1.7,5.6,1.9,6,0.2l1-0.2C269.3,190.3,272.6,183.3,268.2,184z"/>
	</g>
	<g id="_x23_0000007d">
		<path class="st211" d="M330.2,177.7c-0.8-2.4,9.2,0.1,2.9,4.3c0,4,0,8,0,11.9l-0.9-0.1c0-5.2-0.1-10.4-0.2-15.6
			C331.4,178.1,330.6,177.9,330.2,177.7z"/>
	</g>
	<g id="_x23_0018009e">
		<path class="st216" d="M434.8,177.3c3.4-0.2,6.8-0.2,10.3-0.2l0,0.8C441.6,178.1,438.1,177.8,434.8,177.3z"/>
	</g>
	<g id="_x23_00100069">
		<path class="st217" d="M445,177.1c1.8,0,5.3,0.1,7.1,0.2c-2.1,1.5-4.4,1.7-7.1,0.7L445,177.1z"/>
	</g>
	<g id="_x23_000000f6">
		<path class="st218" d="M323.4,186.4c2.5-2.6,3.5-6.9,6.7-8.6c0.4,0.1,1.3,0.4,1.7,0.5c0.1,5.2,0.2,10.4,0.2,15.6l0.9,0.1
			c2.5-1.2,4.5,2.3,2.1,3c-5.7-1.6-0.4,7.5-6,6.2c-0.1-1.7-0.1-3.4-0.1-5.1l0-1c-2.7,0-8.2-0.1-10.9-0.1
			C317.3,192.6,321.5,189.8,323.4,186.4 M328.2,184l0.2,0.8c-1.9,3.2-4.5,6-6.5,9.2c1.8,0,5.3,0,7.1,0c0.2-2.5,0.7-7.5,0.9-9.9
			C329.5,184,328.6,184,328.2,184z"/>
	</g>
	<g id="_x23_0000007c">
		<path class="st211" d="M280,181c1.8-0.1,5.4-0.1,7.3-0.2l0.6,0c-0.1,3-7.9-1.6-6.8,2.1c0.1,2.9,7.2-1.5,6.8,2.2h-0.6
			c-1.8,0-5.4-0.2-7.2-0.2C280,183.6,280,182.3,280,181z"/>
	</g>
	<g id="_x23_00000085">
		<path class="st219" d="M268.2,184c4.4-0.7,1.1,6.4,1.7,9l-1,0.2c0-2.8,0.4-5.7-0.5-8.4L268.2,184z"/>
	</g>
	<g id="_x23_00000082">
		<path class="st220" d="M268.9,193.1c-0.4,1.7-7.8,1.5-6-0.2C264.9,192.9,266.9,192.9,268.9,193.1z"/>
	</g>
	<g id="_x23_00000070">
		<path class="st221" d="M329.1,203.1c5.6,1.3,0.3-7.8,6-6.2c-2.5,1.5-2.1,4.2-2.2,7C331.8,203.6,328.5,205,329.1,203.1z"/>
	</g>
	<g id="_x23_4e4f5080">
		<path class="st222" d="M274,296.5c2.2-0.8,4.5-1,6.9-0.5l0,0.7C278.9,297.7,276.1,297.4,274,296.5z"/>
		<path class="st222" d="M291.1,296.1c1.7,0,5.1,0,6.8,0l0,0.6c-2.1,0.8-4.7,0.8-6.8,0L291.1,296.1z"/>
	</g>
	<g id="_x23_28282942">
		<path class="st223" d="M280.9,296c3.4,0,6.8,0,10.2,0.1l0,0.6c-3.3,0.5-6.9,0.7-10.2,0L280.9,296z"/>
	</g>
	<g id="_x23_87898bdb">
		<path class="st224" d="M297.9,296c2.7,0,5.4,0,8.1,0c-0.9,2.2-5.7,0.7-8.1,0.6L297.9,296z"/>
	</g>
	<g id="_x23_3f4040ff">
		<path class="st225" d="M230.3,298.7c2.8,1.3,8-0.5,9,3.2c-0.6,4.4-0.7,9-2.3,13.2l-1-0.2c0.2-4.7,1.6-9.3,2-14
			c-1.7,0-5.2,0-6.9,0.1c-1.9,6.3-3.3,13.2-3.1,19.9c2.5,8,12.6,10.1,19.8,7.9c0.9,0.1,3.3-1.7,3,0.1c-7.1,3.8-17.5,2.3-22.8-4.1
			c-2.4-5.6-0.7-11.9,0.1-17.7l0.2-1c0.4-1.7,0.5-3.4,0.6-5.1C229.3,300.5,230,299.3,230.3,298.7z"/>
	</g>
	<g id="_x23_424343ff">
		<path class="st226" d="M317.8,302.7c4.8-1.7,10.2-1.2,15.1-2.8c2.3,0.1,4.7,0.4,7,0.7c1.6,1.2,2.9,2.7,3.8,4.5
			c0.3,1,0.6,1.9,1,2.9c0.5,2.5,0,5.1-1.4,7.2c-2.7,4-8.1,3.3-12.2,4.9c-0.3,3,0.3,5.9,0.7,8.9l0.1,0.8c-3.6,0.8-7.2,1.3-10.9,1.2
			C320,321.6,319.8,312,317.8,302.7 M328.4,302.6c-2.7,0.5-5.6,0.3-8.3,0.5c0,9,1.8,17.9,2.1,26.9c2.6-0.2,5.3-0.6,7.8-1.2
			c0.2-3.3-0.8-6.4-0.9-9.7c4.6-2.1,10.7-0.6,13.7-5.4c0.7-4.1,0.5-8.8-3-11.6C336,301.7,332.1,301.8,328.4,302.6z"/>
	</g>
	<g id="_x23_d7d8d9ff">
		<path class="st227" d="M231.2,301.1c1.7,0,5.2,0,6.9-0.1c-0.4,4.7-1.8,9.3-2,14c-0.1,3.1-1.2,6.9,2.1,8.5c1.9,0.6,6.8,1.9,7.5-1.2
			c1.7-5.3,1.9-11,3.2-16.4c2.4,0.2,4.7,0.7,7.1,1.2c-0.4,6.4-1.2,12.9-2.9,19.1c0.4-0.4,1.3-1.1,1.7-1.5c1.6-6.1,1.7-12.5,2.4-18.8
			c1.8,0.1,3.6,0.2,5.2,1c-0.4,1.1-0.8,2.2-1.1,3.4c-0.6,1.9-0.7,4.3,0.9,5.8c1.8,2.3,4.7,3.4,7.1,4.9c-2.7,1.1-8.9-1.4-10.3,1.2
			c-0.4,2.7,0.7,5.5,3,7l0.2,0.8c0.6,5.6-8.6-0.6-11.1,1.1c-0.1-0.5-0.2-1.5-0.2-2c0.2-1.9-2.1,0-3-0.1c-7.2,2.3-17.3,0.1-19.8-7.9
			C227.9,314.3,229.3,307.3,231.2,301.1z"/>
	</g>
	<g id="_x23_3d3e3eff">
		<path class="st228" d="M246.9,302.9c3.1-1.3,6.6-1,9.9-0.9c0.1,1.3,0.2,2.6,0.3,3.9c-0.7,6.3-0.8,12.7-2.4,18.8
			c-0.4,0.4-1.3,1.1-1.7,1.5c1.7-6.2,2.6-12.7,2.9-19.1c1.9-4.4-8.6-6.6-7.1-1.2c-1.4,5.4-1.5,11.1-3.2,16.4
			C245.4,315.8,247.8,309.4,246.9,302.9z"/>
	</g>
	<g id="_x23_d5d6d7ff">
		<path class="st229" d="M328.4,302.6c3.8-0.7,7.6-0.9,11.4-0.4c3.5,2.8,3.7,7.5,3,11.6c-3,4.8-9.2,3.3-13.7,5.4
			c0.1,3.2,1.1,6.4,0.9,9.7c-2.5,0.6-5.2,1-7.8,1.2c-0.3-9-2.1-17.9-2.1-26.9C322.7,302.9,325.6,303.1,328.4,302.6 M330.7,306.5
			c-5.1-0.5-4.6,12.5,2.5,7.5l-0.4-0.8C338.8,313.1,335.5,304.3,330.7,306.5z"/>
	</g>
	<g id="_x23_c3c5c6ff">
		<path class="st230" d="M248.9,305.9c-1.5-5.4,9-3.2,7.1,1.2C253.6,306.6,251.3,306.1,248.9,305.9z"/>
	</g>
	<g id="_x23_3c3d3dff">
		<path class="st231" d="M262.3,306.8c5.3-5.6,14-4.2,20.6-1.8c1.2,1.6,2.3,3.2,3.3,4.9c-0.2,1.5-0.1,3.5-2.3,3l0-0.7
			c1.3-4.4-2.9-7.2-6.7-7.5c-2.8-0.6-5.8-1.2-8.5-0.2c-3,0.3-4.9,2.8-6.1,5.3l-0.9,0.2l-0.5,0.1C261.6,309.1,261.9,308,262.3,306.8z
			"/>
	</g>
	<g id="_x23_8b8c8eff">
		<path class="st232" d="M290.3,303.1c2.7,0,8-0.1,10.7-0.1l0,1c-3.7,0-7.3,0-10.9,0L290.3,303.1z"/>
	</g>
	<g id="_x23_404141ff">
		<path class="st233" d="M301,303c3.8,0,7.5-0.1,11.3-0.2c1,0.3,2,0.6,2.9,1c-0.1,1.5-0.3,4.5-0.4,6c-4.9,0.2-9.9,0.7-14.8,1.3
			c-1.7,5,4.6,2.6,7.7,2.6c0.4,0.3,1.1,0.9,1.4,1.2c-3.4,0.1-6.7,0.3-10,0.1c-0.2-1.7-0.3-3.5-0.4-5.2c4.6-0.8,9.4-0.4,14-1
			c2-0.9,0.1-3.2,0-4.7c-4-0.7-7.8,1-11.7,0.9l0-1L301,303z"/>
	</g>
	<g id="_x23_d4d6d7ff">
		<path class="st234" d="M315.2,303.8c0.8-0.4,1.7-0.7,2.5-1.1c2,9.3,2.2,18.9,3.3,28.3c-1.4,0-3,0.2-4-1.1c0-1.5-0.1-4.4-0.2-5.8
			c-1.3,0.2-3.9,0.6-5.2,0.8c-2.7,0-8,0.1-10.7,0.1c-0.4-2.5-0.2-4.8,3-4.1c3.7,0.2,7.4-0.5,11-0.9c0.1-2.4-0.6-4.6-1.3-6.8
			c-1.5,0.1-4.5,0.4-6,0.6c-3.1,0-9.4,2.5-7.7-2.6c4.9-0.6,9.8-1.1,14.8-1.3C314.9,308.3,315.1,305.3,315.2,303.8z"/>
	</g>
	<g id="_x23_88898bff">
		<path class="st235" d="M268.7,304.6c2.8-1,5.7-0.5,8.5,0.2C274.4,304.7,271.5,304.7,268.7,304.6z"/>
	</g>
	<g id="_x23_323333ff">
		<path class="st236" d="M290.1,304c3.6,0,7.3-0.1,10.9,0l0,1c-3,0-6-0.1-9,0c-2.9,0.9-0.2,7.1-1,10l-1,0c0-1.7,0-3.3,0-5
			c0-1.7,0-3.4-0.1-5L290.1,304z"/>
	</g>
	<g id="_x23_c6c8c9ff">
		<path class="st237" d="M301,305c4,0.1,7.7-1.6,11.7-0.9c0.1,1.5,2,3.7,0,4.7c-4.7,0.6-9.4,0.2-14,1c-1.7,0.1-5,0.2-6.7,0.3
			c0-1.7,0-3.3,0-5C295,304.9,298,305,301,305z"/>
	</g>
	<g id="_x23_c7c8caff">
		<path class="st238" d="M262.6,309.9c1.2-2.5,3.1-5,6.1-5.3c2.8,0.1,5.7,0.1,8.5,0.2c3.9,0.3,8,3.1,6.7,7.5c-2-0.4-4-0.4-6-0.5
			c-1.5-1.4-2.5-4-5-3.8c-1.7-0.1-2.9,1.4-4.3,2.2C266.7,310,264.7,310,262.6,309.9z"/>
		<path class="st238" d="M282.9,305.1c1.8,0,5.2-0.1,7-0.1c0.1,1.7,0.1,3.4,0.1,5c-1.2,0-2.5,0-3.7,0
			C285.2,308.3,284.1,306.7,282.9,305.1z"/>
	</g>
	<g id="_x23_999a9bff">
		<path class="st239" d="M291,315c0.8-2.8-1.9-9.1,1-10c0,1.7,0,3.3,0,5c0,1.7,0,3.3,0,5L291,315z"/>
	</g>
	<g id="_x23_343434ff">
		<path class="st240" d="M330.7,306.5c4.8-2.2,8.1,6.6,2.1,6.8c1.1-1.6,3.5-3.6,1-5.2c-6.9-4.2-6,6.2-1,5.2l0.4,0.8
			C326.1,319,325.6,306,330.7,306.5z"/>
	</g>
	<g id="_x23_494949ff">
		<path class="st241" d="M268.7,310.1c1.4-0.7,2.6-2.3,4.3-2.2c2.4-0.3,3.5,2.3,5,3.8c-0.1,0.3-0.4,0.9-0.6,1.2
			c0.8,2.5,6.3,2,7.9,4.7c2.3,3,3,7.9,0,10.5c0.2-3.2,1.7-6.9-1-9.5C280.3,313.7,271.1,316.6,268.7,310.1 M271,310
			c-0.5,2.8,3.1,2.9,5.1,3C276.6,309.9,273.2,309.7,271,310z"/>
	</g>
	<g id="_x23_232323ff">
		<path class="st242" d="M261.2,310.2l0.5-0.1c0.3,1.9,0.8,3.9,1.1,5.8l-0.7,0.1C260.5,314.5,260.6,312.1,261.2,310.2z"/>
	</g>
	<g id="_x23_dadbdcff">
		<path class="st243" d="M261.8,310.1l0.9-0.2c2,0,4.1,0.1,6.1,0.2c2.3,6.5,11.6,3.6,15.5,8.6c2.7,2.6,1.2,6.3,1,9.5
			c-6.8,5.1-16,4.8-23.3,0.8c-0.3-3-5.1-9.4,3-6.1c2.4-0.5,3.5,1.8,4.9,3.2c1.8,3.7,8.5,2,8.1-2.1c0.2-1.5-0.5-2.3-2.1-2.4
			c-1.5-1.5-3.6-2.2-5.7-1.7c-2.4-1.5-4.9-2.8-7.5-4C262.5,314,262.1,312,261.8,310.1z"/>
		<path class="st243" d="M286.2,310c1.2,0,2.5,0,3.7,0c0,1.7,0,3.3,0,5c0,6,0,12,0,18.1c-2.5-0.4-8.1,1.7-6.8-1.9
			c0.7-1,1.4-1.9,2-2.9c3.1-2.6,2.3-7.6,0-10.5c-1.6-2.7-7.1-2.2-7.9-4.7c1.6,0,4.9,0,6.6,0C286.1,313.5,286,311.5,286.2,310z"/>
		<path class="st243" d="M269.3,320.9l0.9-0.2c1.6,0.6,3.2,1.3,5,1.4c0.7,0.6,1.3,1.3,1.9,2c-1.2,2.9-4.7,2.5-7.2,2.1
			c-0.3-1.4-0.6-2.8-0.9-4.2L269.3,320.9z"/>
	</g>
	<g id="_x23_d1d2d3ff">
		<path class="st244" d="M271,310c2.2-0.3,5.6-0.1,5.1,3C274.1,312.9,270.4,312.8,271,310z"/>
	</g>
	<g id="_x23_dbdcddff">
		<path class="st245" d="M292,310c1.7-0.1,5-0.2,6.7-0.3c0.1,1.7,0.2,3.5,0.4,5.2c3.3,0.3,6.7,0,10-0.1c2.5,0.3,7.1-2.7,3.8,3.9
			c-3.1,0.2-6.3-0.1-9.3,0.9c-1.6,0.2-3.1,0.3-4.7,0.5c0.1,2,0.7,3.8,1.3,5.7c3.9,0.1,7.8,0.1,11.8,0c2.6,0.5,7.4-1.1,4,5.1
			c-4.7,0.1-9.3,0-14,0c-3.1,0-6.3-0.4-9.2,0.7l-0.8,0.2c0-5.6,0-11.3,0-16.9C292,313.3,292,311.7,292,310z"/>
	</g>
	<g id="_x23_020202ff">
		<path class="st246" d="M277.4,313c0.1-0.3,0.4-0.9,0.6-1.2c2,0.1,4,0.1,6,0.5l0,0.7C282.3,313,279,313,277.4,313z"/>
	</g>
	<g id="_x23_5a5b5bff">
		<path class="st247" d="M307.7,313.7c1.5-0.1,4.5-0.4,6-0.6c0.7,2.2,1.4,4.4,1.3,6.8c-3.7,0.5-7.3,1.2-11,0.9l-0.3-1.1
			c3-1,6.2-0.7,9.3-0.9c3.3-6.7-1.3-3.7-3.8-3.9C308.8,314.5,308.1,314,307.7,313.7z"/>
	</g>
	<g id="_x23_2a2a2aff">
		<path class="st248" d="M236,315l1,0.2c0.3,2.7,0.9,5.5,1.2,8.3C234.9,321.9,235.9,318,236,315z"/>
	</g>
	<g id="_x23_707071ff">
		<path class="st249" d="M290,315l1,0l1,0c0,5.6,0,11.3,0,16.9c-0.3,0.2-1,0.6-1.3,0.8l-0.7,0.4C290,327,290,321,290,315z"/>
	</g>
	<g id="_x23_4c4c4dff">
		<path class="st250" d="M262.2,316l0.7-0.1c2.5,1.3,5.1,2.5,7.5,4l-0.1,0.7l-0.9,0.2C266.9,319.3,264,318.3,262.2,316z"/>
	</g>
	<g id="_x23_343535ff">
		<path class="st251" d="M270.3,319.9c2.1-0.4,4.1,0.3,5.7,1.7l-0.8,0.4c-1.8-0.1-3.4-0.8-5-1.4L270.3,319.9z"/>
	</g>
	<g id="_x23_acacadff">
		<path class="st252" d="M259,322c1.4-2.6,7.7-0.1,10.3-1.2l-0.3,1.1C265.6,321.9,262.3,322,259,322z"/>
	</g>
	<g id="_x23_383939ff">
		<path class="st253" d="M259,322c3.3,0,6.6-0.1,10-0.1c0.3,1.4,0.6,2.8,0.9,4.2c-1.4-1.4-2.5-3.8-4.9-3.2c-8.2-3.3-3.3,3-3,6.1
			C259.6,327.5,258.6,324.8,259,322z"/>
	</g>
	<g id="_x23_4c4c4cff">
		<path class="st254" d="M275.2,322l0.8-0.4c1.6,0,2.3,0.8,2.1,2.4c0.3,4.1-6.3,5.8-8.1,2.1c2.5,0.4,6,0.8,7.2-2.1
			C276.5,323.3,275.8,322.7,275.2,322z"/>
	</g>
	<g id="_x23_464647ff">
		<path class="st255" d="M311.7,324.8c1.3-0.2,3.9-0.6,5.2-0.8c0,1.5,0.1,4.4,0.2,5.8c0,0.5-0.1,1.5-0.1,2c-5-0.2-10,1.1-15,1.1l0-1
			l0-1c4.7,0,9.3,0,14,0c3.4-6.2-1.4-4.6-4-5.1L311.7,324.8z"/>
	</g>
	<g id="_x23_313232ff">
		<path class="st256" d="M262,329c7.2,4,16.4,4.4,23.3-0.8c-0.6,1-1.3,2-2,2.9c-6.4,2.7-15.5,3.7-21-1.3L262,329z"/>
	</g>
	<g id="_x23_9fa0a1ff">
		<path class="st257" d="M292.8,331.7c3-1.1,6.1-0.7,9.2-0.7l0,1C298.9,331.9,295.8,331.9,292.8,331.7z"/>
	</g>
	<g id="_x23_272727ff">
		<path class="st258" d="M290.7,332.7c0.3-0.2,1-0.6,1.3-0.8l0.8-0.2c3.1,0.2,6.1,0.2,9.2,0.3l0,1
			C298.2,333,294.5,333.2,290.7,332.7z"/>
	</g>
	<g id="_x23_5f6062a3">
		<path class="st259" d="M263,340c2.8,0,5.6,0.5,8.4,1H263L263,340z"/>
	</g>
	<g id="_x23_5d5e609f">
		<path class="st260" d="M300.5,341c2.6-1.5,5.6-1,8.5-1l-0.1,1H300.5z"/>
	</g>
</g>
</svg>
