<?xml version="1.0" encoding="UTF-8" ?>
<!DOCTYPE svg PUBLIC "-//W3C//DTD SVG 1.1//EN" "http://www.w3.org/Graphics/SVG/1.1/DTD/svg11.dtd">
<svg width="568pt" height="567pt" viewBox="0 0 568 567" version="1.1" xmlns="http://www.w3.org/2000/svg">
<g id="#ffffffff">
<path fill="#ffffff" opacity="1.00" d=" M 258.08 35.19 C 266.67 34.03 275.39 33.90 284.05 34.03 C 286.33 33.73 285.55 36.54 285.83 37.88 C 278.54 38.66 271.15 37.99 263.83 38.85 C 264.09 43.05 264.40 47.24 264.78 51.43 C 271.25 51.21 277.73 50.75 284.22 51.10 C 284.25 52.44 284.24 53.78 284.19 55.12 C 277.84 55.35 271.47 55.13 265.14 55.87 C 265.22 61.50 266.44 67.11 266.00 72.75 C 263.98 72.89 261.97 72.98 259.95 73.03 C 258.48 62.07 257.53 51.05 256.19 40.08 C 256.00 38.35 255.58 35.29 258.08 35.19 Z" />
<path fill="#ffffff" opacity="1.00" d=" M 321.43 38.24 C 321.65 35.45 324.92 35.98 326.86 36.38 C 334.97 38.01 343.23 39.34 351.05 42.14 C 350.80 43.44 350.48 44.74 349.82 45.89 C 342.69 44.18 335.60 42.27 328.36 41.07 C 327.69 44.85 326.97 48.63 326.27 52.42 C 332.26 54.03 338.58 54.56 344.34 56.98 C 343.97 58.24 343.53 59.47 342.97 60.66 C 337.15 59.27 331.36 57.68 325.41 56.94 C 324.66 61.35 323.80 65.73 323.02 70.13 C 329.32 71.83 336.02 72.35 341.98 75.10 C 341.63 76.20 341.32 77.31 341.05 78.43 C 334.51 77.55 328.21 75.33 321.65 74.41 C 319.63 73.95 315.85 73.96 316.38 70.92 C 317.94 60.02 319.65 49.12 321.43 38.24 Z" />
<path fill="#ffffff" opacity="1.00" d=" M 226.38 39.54 C 233.93 37.82 243.33 37.91 248.76 44.27 C 253.66 50.87 254.36 60.39 250.82 67.76 C 247.05 75.17 238.67 78.35 230.98 79.88 C 224.31 81.29 216.39 80.79 211.43 75.56 C 205.73 69.40 202.46 59.54 206.79 51.77 C 210.87 44.80 218.78 41.20 226.38 39.54 M 228.42 43.55 C 223.53 44.44 218.40 46.17 215.11 50.10 C 209.06 57.13 212.98 68.23 219.43 73.58 C 230.01 80.16 248.49 71.72 245.93 57.90 C 246.07 48.78 237.62 40.87 228.42 43.55 Z" />
<path fill="#ffffff" opacity="1.00" d=" M 358.33 44.47 C 368.68 47.09 380.90 50.42 386.73 60.28 C 392.57 71.49 382.51 86.88 370.02 86.74 C 362.31 86.86 355.26 83.25 348.09 80.91 C 345.65 80.42 346.48 77.68 346.97 76.04 C 349.90 66.59 352.84 57.14 355.74 47.68 C 356.25 46.44 356.59 44.41 358.33 44.47 M 362.45 50.11 C 359.42 59.44 356.26 68.73 353.04 78.00 C 358.95 80.10 365.23 83.38 371.65 81.49 C 378.30 78.89 382.56 71.09 381.69 64.12 C 379.65 55.43 370.07 52.24 362.45 50.11 Z" />
<path fill="#ffffff" opacity="1.00" d=" M 153.18 71.16 C 159.96 67.74 166.29 62.59 173.78 61.08 C 173.84 62.22 175.38 64.02 173.89 64.79 C 167.71 68.20 161.29 71.20 155.33 75.01 C 157.24 78.36 159.24 81.66 161.26 84.94 C 166.18 82.22 170.98 79.23 176.12 76.94 C 178.36 75.44 180.35 79.97 177.94 80.78 C 173.11 83.36 168.12 85.70 163.61 88.83 C 166.01 92.66 167.95 96.81 170.83 100.33 C 176.08 97.17 181.43 94.08 187.06 91.66 C 188.81 91.82 188.96 93.69 189.49 94.98 C 182.86 98.50 176.22 102.00 169.79 105.87 C 167.86 107.57 165.99 105.67 165.08 103.96 C 159.53 95.17 153.79 86.49 148.35 77.64 C 146.13 74.36 151.05 72.63 153.18 71.16 Z" />
<path fill="#ffffff" opacity="1.00" d=" M 399.14 61.65 C 401.51 62.15 403.71 63.25 405.42 65.00 C 401.49 72.48 397.05 79.69 393.10 87.16 C 387.56 97.33 404.52 108.79 411.90 99.92 C 417.24 93.06 421.96 85.73 427.18 78.76 C 429.38 79.67 431.33 81.06 432.87 82.88 C 428.00 89.65 422.91 96.26 417.85 102.89 C 406.86 116.48 380.05 100.40 387.26 84.30 C 391.08 76.68 395.17 69.20 399.14 61.65 Z" />
<path fill="#ffffff" opacity="1.00" d=" M 115.51 105.39 C 117.83 93.57 128.54 84.48 139.98 81.86 C 142.48 80.86 144.07 83.05 145.00 85.01 C 136.37 87.41 126.66 90.76 122.67 99.66 C 117.36 109.65 127.33 122.15 138.02 121.25 C 144.92 120.60 150.98 115.93 154.50 110.11 C 152.28 107.04 150.20 103.86 147.79 100.92 C 143.84 102.05 141.11 106.27 137.17 107.93 C 136.38 106.97 135.62 105.98 134.87 104.99 C 139.89 101.03 144.75 95.66 150.92 93.96 C 154.63 98.48 158.56 103.52 160.75 108.88 C 156.39 117.64 147.57 124.68 137.87 126.61 C 125.91 128.99 113.29 117.63 115.51 105.39 Z" />
<path fill="#ffffff" opacity="1.00" d=" M 126.69 172.69 C 162.28 121.23 224.41 89.31 287.00 91.00 C 347.59 91.32 406.61 123.22 441.14 172.85 C 458.71 197.71 469.76 226.90 474.14 256.97 C 474.16 257.54 474.21 258.68 474.23 259.25 C 470.23 258.39 466.48 256.70 462.57 255.58 C 448.24 253.47 435.52 262.08 421.62 263.61 C 411.47 265.19 401.27 267.06 391.00 267.22 C 381.26 264.47 371.67 261.02 361.52 260.06 C 361.65 253.56 361.17 247.03 361.75 240.55 C 370.51 240.74 379.29 240.57 388.05 240.67 C 396.37 241.27 400.81 232.60 407.87 229.84 C 411.15 228.88 410.56 224.11 409.26 221.84 C 403.02 219.55 398.29 214.70 392.86 211.08 C 382.54 210.25 372.10 210.83 361.74 210.81 C 361.41 207.23 361.51 203.63 361.27 200.04 C 367.75 196.19 374.35 192.54 381.01 189.03 C 389.38 185.71 388.63 174.99 393.69 168.71 C 396.75 165.92 394.39 160.08 390.08 161.02 C 381.63 161.93 372.25 155.94 364.80 161.79 C 357.27 166.41 349.66 170.87 342.08 175.40 C 340.09 173.49 338.12 171.56 336.14 169.64 C 341.25 160.30 346.83 151.25 351.85 141.85 C 352.29 134.88 350.09 127.97 350.03 120.97 C 350.47 117.66 346.00 115.74 343.52 117.50 C 338.09 121.64 330.77 122.30 325.28 126.26 C 320.18 134.22 315.74 142.63 310.78 150.70 C 309.34 154.91 303.79 152.22 301.22 150.77 C 300.71 140.23 301.49 129.63 300.88 119.10 C 297.31 113.77 292.73 109.12 289.31 103.66 C 288.09 100.88 283.86 100.60 282.24 103.14 C 278.54 108.50 274.47 113.65 270.96 119.13 C 270.10 129.85 270.95 140.68 270.55 151.45 C 267.65 151.95 264.77 152.54 261.92 153.29 C 255.91 144.58 251.16 135.09 246.16 125.80 C 240.68 122.11 233.83 121.28 228.20 117.85 C 226.19 116.30 223.63 117.08 221.36 117.39 C 221.23 125.61 219.19 133.72 219.10 141.90 C 223.88 151.26 229.90 159.96 235.15 169.08 C 233.25 171.21 231.35 173.36 229.50 175.53 C 221.21 170.88 213.09 165.96 204.97 161.03 C 202.93 159.85 200.69 158.50 198.25 159.22 C 191.37 160.67 184.37 160.97 177.38 161.36 C 176.14 170.33 183.52 177.82 185.72 186.32 C 195.52 191.01 204.64 196.94 214.12 202.22 C 212.96 204.93 212.03 207.73 211.36 210.61 C 202.24 210.81 193.11 210.67 183.99 210.67 C 174.82 209.78 170.17 220.61 161.43 221.62 C 160.67 224.16 160.40 226.83 161.45 229.34 C 169.88 230.65 174.01 241.18 182.95 240.66 C 193.45 240.66 203.95 240.57 214.45 240.68 C 214.57 247.00 214.47 253.32 214.47 259.64 C 203.94 260.60 193.88 263.74 183.85 266.86 C 172.81 267.28 161.84 264.75 150.93 263.21 C 139.34 261.79 128.89 255.23 117.08 255.14 C 108.60 254.00 101.41 260.75 93.20 260.73 C 96.77 229.21 108.44 198.63 126.69 172.69 Z" />
<path fill="#ffffff" opacity="1.00" d=" M 419.50 113.45 C 420.33 103.39 428.52 93.42 438.98 92.76 C 449.09 92.69 458.35 100.51 461.11 110.02 C 462.02 112.40 460.55 114.59 458.17 115.08 C 456.19 107.51 451.46 99.16 442.86 98.23 C 434.10 97.94 427.05 106.13 425.33 114.15 C 423.99 122.90 432.60 129.31 440.38 130.63 C 440.60 131.19 441.04 132.33 441.26 132.89 C 452.27 129.22 463.31 125.32 474.75 123.24 C 477.04 124.83 479.07 127.24 479.83 129.96 C 474.43 141.70 467.72 152.86 460.56 163.61 C 458.50 166.83 456.49 161.67 455.55 160.01 C 457.41 157.04 459.27 154.07 461.06 151.06 C 457.30 146.01 453.62 140.83 449.14 136.40 C 446.44 137.35 443.78 138.39 441.06 139.25 C 438.24 140.40 435.34 136.74 436.46 134.09 C 427.55 131.34 419.20 123.31 419.50 113.45 M 453.90 134.89 C 457.27 138.83 460.29 143.05 463.72 146.94 C 466.94 141.09 470.28 135.30 473.15 129.27 C 466.69 131.00 460.19 132.62 453.90 134.89 Z" />
<path fill="#ffffff" opacity="1.00" d=" M 88.10 128.03 C 93.39 121.32 99.08 114.92 105.15 108.91 C 106.70 109.30 107.72 110.36 108.23 111.85 C 103.31 117.05 98.28 122.18 93.94 127.89 C 96.90 130.34 99.77 132.90 102.88 135.17 C 106.79 130.62 110.55 125.90 115.01 121.87 C 116.15 122.63 117.15 123.57 117.84 124.78 C 113.98 129.19 109.86 133.39 106.24 138.02 C 109.74 140.90 113.12 143.97 116.84 146.58 C 120.57 142.07 124.40 137.62 128.60 133.55 C 130.10 131.73 133.24 134.99 131.55 136.53 C 126.76 141.76 122.01 147.04 117.48 152.52 C 116.28 154.25 114.20 152.82 112.98 151.91 C 104.77 145.49 96.48 139.17 88.32 132.70 C 86.48 131.68 86.82 129.35 88.10 128.03 Z" />
<path fill="#ffffff" opacity="1.00" d=" M 482.41 139.53 C 480.75 137.59 484.58 134.80 485.86 137.06 C 492.86 146.72 499.02 157.01 504.41 167.65 C 505.87 169.86 503.10 170.86 501.36 171.00 C 498.92 166.47 496.56 161.90 493.94 157.47 C 484.15 162.84 474.65 168.74 464.95 174.29 C 463.37 172.94 462.44 171.10 461.77 169.18 C 470.97 163.16 480.44 157.57 489.69 151.65 C 488.75 147.27 484.63 143.60 482.41 139.53 Z" />
<path fill="#ffffff" opacity="1.00" d=" M 69.80 155.90 C 69.84 153.80 71.46 150.05 73.82 150.15 C 83.35 155.52 92.15 162.19 101.79 167.38 C 104.94 162.39 108.08 157.32 112.07 152.94 C 113.07 153.81 115.62 154.83 114.44 156.49 C 110.47 161.90 106.78 167.50 103.10 173.11 C 101.76 175.55 99.08 173.43 97.40 172.58 C 88.26 166.92 78.77 161.81 69.80 155.90 Z" />
<path fill="#ffffff" opacity="1.00" d=" M 472.16 187.50 C 483.41 182.16 494.45 176.33 505.80 171.22 C 507.05 173.30 510.58 177.33 506.63 178.53 C 495.80 183.24 485.28 188.75 474.26 192.95 C 473.33 191.23 472.36 189.48 472.16 187.50 Z" />
<path fill="#ffffff" opacity="1.00" d=" M 97.22 174.97 C 98.74 173.97 100.12 175.85 101.02 176.87 C 97.13 183.29 94.02 190.13 90.63 196.82 C 78.53 194.00 67.56 187.10 55.88 182.74 C 56.24 180.45 56.73 177.26 59.01 176.24 C 69.17 180.47 78.95 185.64 89.00 190.15 C 91.75 185.10 94.00 179.75 97.22 174.97 Z" />
<path fill="#ffffff" opacity="1.00" d=" M 498.35 188.45 C 513.44 184.80 522.87 202.10 522.28 214.98 C 522.59 232.56 495.58 237.87 486.30 224.66 C 482.13 218.70 479.78 211.14 480.69 203.86 C 482.11 195.34 490.59 190.30 498.35 188.45 M 498.32 195.34 C 492.71 197.21 486.25 200.64 485.26 207.09 C 484.47 214.72 488.73 224.09 497.02 225.36 C 503.70 226.08 511.53 224.34 515.72 218.68 C 522.08 208.03 511.55 189.80 498.32 195.34 Z" />
<path fill="#ffffff" opacity="1.00" d=" M 59.42 192.55 C 68.42 191.62 78.28 196.40 82.41 204.62 C 85.96 212.93 83.38 222.59 79.09 230.14 C 72.78 240.69 56.74 240.11 48.16 232.83 C 41.58 226.71 41.92 216.51 44.58 208.59 C 46.73 201.48 51.46 193.78 59.42 192.55 M 59.34 199.34 C 47.01 201.84 42.34 222.72 54.23 228.87 C 60.90 232.10 70.68 233.28 75.68 226.60 C 79.55 220.81 81.58 212.20 76.73 206.34 C 72.45 201.54 65.73 198.90 59.34 199.34 Z" />
<path fill="#ffffff" opacity="1.00" d=" M 237.66 221.22 C 248.46 219.56 258.10 225.71 267.76 229.48 C 266.82 237.59 273.21 242.88 276.67 249.39 C 273.72 250.36 271.71 252.78 269.78 255.06 C 271.83 267.27 274.31 279.41 276.18 291.64 L 275.01 291.87 C 267.97 284.78 257.35 285.68 249.56 290.98 C 242.64 270.28 235.54 249.64 228.54 228.96 C 230.90 226.23 233.76 224.04 236.53 221.75 C 236.82 221.62 237.38 221.35 237.66 221.22 Z" />
<path fill="#ffffff" opacity="1.00" d=" M 309.31 228.21 C 318.48 225.28 327.33 219.45 337.36 221.22 C 337.64 221.36 338.19 221.62 338.47 221.75 C 341.23 224.04 344.11 226.23 346.46 228.97 C 339.45 249.63 332.36 270.27 325.45 290.96 C 319.18 287.52 311.17 284.21 304.57 288.81 C 305.74 277.46 308.48 266.34 310.22 255.07 C 307.93 252.18 305.19 249.37 301.34 248.89 C 305.40 242.60 312.17 236.50 309.31 228.21 Z" />
<path fill="#ffffff" opacity="1.00" d=" M 489.32 239.85 C 501.10 237.10 513.03 234.84 524.95 232.82 C 528.56 234.30 528.41 240.23 527.38 243.46 C 519.73 252.48 510.22 259.74 501.30 267.45 C 511.15 267.32 520.97 266.11 530.83 266.11 C 530.98 268.46 531.02 270.81 530.99 273.17 C 519.67 273.87 508.31 273.81 496.98 274.28 C 491.63 275.38 491.54 267.15 494.82 264.82 C 504.03 257.21 513.16 249.46 521.31 240.70 C 511.01 242.04 500.85 244.23 490.55 245.58 C 490.01 243.70 489.60 241.78 489.32 239.85 Z" />
<path fill="#ffffff" opacity="1.00" d=" M 40.93 236.88 C 42.15 234.83 44.42 235.22 46.28 236.03 C 42.92 242.56 37.90 249.54 40.58 257.42 C 43.68 268.12 58.91 270.18 66.91 263.91 C 73.08 258.37 72.58 248.91 69.61 241.84 C 69.64 239.38 72.36 240.65 73.66 241.27 C 77.30 248.37 76.51 257.19 73.26 264.29 C 66.91 277.82 43.88 277.93 37.82 264.10 C 34.09 255.39 35.17 244.47 40.93 236.88 Z" />
<path fill="#ffffff" opacity="1.00" d=" M 213.83 339.81 C 226.18 336.63 238.80 334.57 251.30 332.07 C 262.64 339.27 275.47 343.62 287.95 348.07 C 299.79 343.72 311.99 339.87 322.88 333.24 C 332.87 332.93 342.48 336.05 352.24 337.71 C 362.35 339.34 371.55 344.59 381.83 345.38 C 406.13 349.51 428.65 334.24 452.95 336.84 C 457.75 337.68 463.68 335.96 467.59 339.47 C 456.45 373.54 436.56 404.90 409.18 428.20 C 371.57 461.04 320.70 477.86 270.97 474.74 C 238.07 471.85 205.54 461.49 177.98 443.04 C 141.42 418.96 114.01 381.99 100.44 340.46 C 111.07 336.42 122.80 336.52 133.99 337.24 C 147.91 337.99 160.72 344.53 174.62 345.45 C 187.94 348.18 201.33 344.15 213.83 339.81 M 343.51 364.03 C 348.39 367.73 351.43 373.05 351.69 379.34 C 347.83 380.20 343.86 379.07 340.00 379.82 C 333.82 381.60 329.31 386.52 325.14 391.14 C 317.86 400.96 320.20 413.98 322.10 425.16 C 324.16 433.29 331.64 438.36 338.97 441.34 C 347.13 442.08 355.45 440.61 363.23 438.27 C 366.59 412.94 364.18 386.82 359.21 361.78 C 354.42 361.22 344.92 357.41 343.51 364.03 M 270.32 362.49 C 266.74 363.02 265.75 367.03 265.01 370.00 C 259.90 386.48 261.69 403.97 261.36 420.95 C 259.69 426.90 260.79 433.06 260.49 439.13 C 261.87 440.06 263.15 441.57 265.00 441.38 C 278.33 441.29 291.70 443.92 304.99 441.66 C 308.10 441.35 313.97 442.99 313.59 437.94 C 310.90 434.13 306.96 431.32 304.89 427.03 C 304.18 425.07 302.15 425.33 300.47 425.37 C 296.15 431.77 287.50 432.47 280.53 431.29 C 277.03 428.73 274.57 425.02 272.95 421.05 C 269.61 414.72 272.63 407.57 272.77 400.90 C 277.28 399.78 282.12 398.38 286.65 400.25 C 290.07 401.07 293.68 403.73 297.24 402.24 C 300.00 398.66 299.85 393.85 299.41 389.58 C 297.65 385.39 292.41 387.71 289.99 390.00 C 285.12 394.58 275.19 392.92 273.50 386.00 C 275.84 376.78 286.49 368.81 295.74 374.25 C 302.89 378.77 307.68 369.49 311.79 365.03 C 311.37 364.40 310.52 363.15 310.10 362.53 C 296.81 362.79 283.57 363.72 270.32 362.49 M 212.62 363.65 C 202.24 369.02 193.44 378.49 190.11 389.84 C 188.64 403.86 185.42 419.95 195.02 431.99 C 204.20 441.95 220.43 448.36 233.05 441.11 C 242.38 437.60 244.84 426.17 243.49 417.29 C 238.91 419.59 237.67 426.49 232.42 428.43 C 221.19 432.39 208.07 426.41 203.58 415.38 C 198.28 403.06 199.32 385.44 211.51 377.45 C 215.20 374.79 219.72 372.62 224.39 373.59 C 227.79 374.66 229.98 377.72 232.92 379.58 C 237.13 380.78 242.20 376.40 240.27 372.07 C 234.18 363.51 222.26 361.15 212.62 363.65 Z" />
<path fill="#ffffff" opacity="1.00" d=" M 494.61 364.52 C 487.26 363.11 490.15 349.79 497.18 351.13 C 495.17 353.75 490.23 357.68 494.35 360.72 C 499.78 361.95 501.79 352.73 507.62 354.42 C 513.85 356.10 512.55 364.30 509.28 368.22 C 507.49 373.28 505.67 378.41 502.82 383.04 C 496.00 380.48 489.77 376.61 483.13 373.65 C 485.17 369.91 485.72 362.94 490.12 362.08 C 489.60 365.35 487.87 368.21 486.54 371.18 C 488.67 372.51 490.95 373.58 493.24 374.60 C 495.30 372.39 495.22 366.48 498.94 367.25 C 498.32 370.04 496.83 372.50 495.79 375.12 C 497.01 377.23 500.21 377.60 502.23 378.93 C 503.59 376.65 504.68 374.22 505.75 371.80 C 505.43 370.92 505.12 370.04 504.82 369.17 C 507.88 366.84 511.96 361.29 507.64 358.28 C 502.31 357.09 500.33 365.88 494.61 364.52 Z" />
<path fill="#ffffff" opacity="1.00" d=" M 60.22 360.20 C 64.97 358.33 69.71 356.35 74.66 355.07 C 74.85 355.81 75.22 357.30 75.41 358.04 C 70.79 360.47 65.58 361.54 61.02 364.09 C 56.08 367.05 60.08 376.49 65.68 374.73 C 70.63 373.15 75.14 370.47 80.03 368.72 C 80.44 369.76 80.83 370.81 81.22 371.87 C 76.77 373.88 72.43 376.16 67.86 377.91 C 58.38 381.48 51.13 364.55 60.22 360.20 Z" />
<path fill="#ffffff" opacity="1.00" d=" M 62.19 382.49 C 68.23 379.80 74.14 376.82 80.18 374.14 C 82.71 372.49 84.41 376.61 83.44 378.49 C 80.39 383.83 76.77 388.85 73.91 394.31 C 78.81 391.98 83.52 389.26 88.22 386.55 C 89.42 387.19 90.00 388.36 90.14 389.68 C 84.19 392.77 78.51 396.38 72.54 399.44 C 70.25 400.86 68.85 397.14 69.41 395.42 C 72.19 389.54 76.12 384.29 79.35 378.66 C 73.80 380.67 68.85 384.05 63.24 385.91 C 62.88 384.76 62.53 383.63 62.19 382.49 Z" />
<path fill="#ffffff" opacity="1.00" d=" M 482.08 375.13 C 488.69 378.39 495.45 381.42 501.80 385.19 C 500.99 386.53 500.72 388.82 498.88 389.06 C 492.34 389.98 485.71 389.88 479.13 390.07 C 483.93 393.44 489.27 395.92 494.22 399.06 C 493.73 400.10 493.25 401.15 492.77 402.21 C 486.80 399.38 481.34 395.62 475.60 392.38 C 472.53 391.38 474.60 387.07 477.04 386.93 C 483.12 386.59 489.23 386.72 495.29 386.03 C 490.63 382.94 485.30 381.06 480.66 377.96 C 481.13 377.01 481.60 376.07 482.08 375.13 Z" />
<path fill="#ffffff" opacity="1.00" d=" M 341.27 387.20 C 345.47 385.17 349.97 388.56 351.82 392.26 C 354.74 396.66 352.83 402.12 353.91 406.99 C 354.61 412.75 355.82 419.66 351.20 424.17 C 348.44 428.11 343.00 426.59 338.94 426.35 C 332.87 423.57 332.51 415.78 331.73 410.00 C 332.27 401.97 333.11 391.17 341.27 387.20 Z" />
<path fill="#ffffff" opacity="1.00" d=" M 72.03 402.02 C 78.32 398.22 84.74 394.64 91.13 391.00 C 92.32 392.61 93.37 394.30 94.34 396.06 C 90.67 401.48 86.08 406.24 82.76 411.91 C 89.21 410.78 95.44 408.68 101.89 407.57 C 103.85 412.46 110.64 416.16 110.07 421.42 C 107.03 419.91 105.70 416.56 103.62 414.06 C 101.35 415.35 99.20 416.84 97.33 418.67 C 98.47 421.08 103.76 424.21 100.90 426.67 C 98.72 424.91 97.51 422.30 95.63 420.27 C 93.18 420.54 91.35 423.00 89.25 424.28 C 91.19 427.28 93.81 429.84 95.26 433.15 C 90.30 433.08 88.63 426.20 85.40 422.96 C 89.66 418.29 95.99 416.05 100.17 411.30 C 93.71 412.53 87.40 414.47 80.89 415.43 C 79.31 415.09 79.01 413.17 78.18 412.02 C 81.78 406.59 86.06 401.64 89.66 396.21 C 84.17 398.73 79.26 402.30 73.94 405.15 C 73.30 404.11 72.66 403.07 72.03 402.02 Z" />
<path fill="#ffffff" opacity="1.00" d=" M 472.14 392.79 C 478.70 396.19 484.84 400.34 491.20 404.09 C 490.72 405.13 490.25 406.17 489.78 407.22 C 485.76 405.53 482.32 402.80 478.53 400.71 C 480.71 405.27 478.80 409.93 476.05 413.72 C 478.23 415.08 480.35 416.54 482.41 418.08 C 481.76 419.13 481.02 420.14 480.18 421.06 C 476.71 418.63 473.25 416.19 469.76 413.78 C 472.08 418.45 469.45 423.03 466.74 426.80 C 468.85 428.31 470.92 429.89 472.74 431.76 C 472.24 432.39 471.24 433.63 470.74 434.26 C 464.75 430.27 459.16 425.61 453.69 420.94 C 455.30 416.23 459.56 411.05 465.15 410.99 C 464.28 409.98 463.42 408.96 462.57 407.95 C 465.21 403.65 468.02 398.21 473.82 398.09 C 472.83 397.27 471.84 396.46 470.87 395.65 C 471.28 394.69 471.71 393.74 472.14 392.79 M 466.06 406.80 C 468.67 408.66 471.33 410.45 474.02 412.18 C 476.49 409.63 478.32 404.76 474.50 402.49 C 470.81 400.06 467.62 403.79 466.06 406.80 M 457.20 419.53 C 459.76 421.38 462.22 423.35 464.82 425.15 C 467.14 422.53 469.54 417.81 465.58 415.41 C 462.06 412.69 458.49 416.33 457.20 419.53 Z" />
<path fill="#ffffff" opacity="1.00" d=" M 94.43 435.00 C 100.05 430.19 105.75 425.35 111.93 421.29 C 115.28 425.10 120.43 430.02 116.94 435.43 C 122.46 432.58 129.43 438.12 128.08 444.08 C 125.02 443.85 126.10 439.55 123.61 438.30 C 121.73 436.23 117.89 438.34 118.61 440.97 C 119.69 444.60 121.30 448.14 121.17 452.04 C 124.41 448.82 127.47 445.43 130.80 442.30 C 135.71 446.72 140.34 451.49 145.69 455.40 C 145.02 459.33 144.05 463.20 143.26 467.11 C 146.89 465.52 150.48 463.84 154.13 462.28 C 154.91 463.05 155.64 463.86 156.32 464.74 C 149.20 468.12 141.26 470.26 137.07 477.55 C 136.21 476.71 135.36 475.88 134.50 475.05 C 140.09 470.23 141.19 463.06 142.02 456.12 C 141.40 454.71 139.96 453.92 138.93 452.86 C 134.12 457.58 130.28 463.24 125.15 467.63 C 124.40 466.76 123.65 465.89 122.90 465.03 C 127.25 460.07 132.01 455.47 136.08 450.27 C 134.61 448.99 133.15 447.69 131.72 446.37 C 127.02 450.98 122.62 455.90 117.88 460.47 C 117.00 459.68 116.12 458.88 115.24 458.09 C 116.23 456.97 117.23 455.86 118.23 454.75 C 110.85 456.59 107.51 448.96 102.89 445.02 C 104.52 440.82 109.35 435.21 104.22 431.51 C 101.83 433.64 99.30 435.62 96.85 437.68 C 96.04 436.78 95.23 435.89 94.43 435.00 M 106.21 430.09 C 107.84 432.36 111.17 435.82 113.87 432.89 C 116.63 430.45 114.15 427.07 112.09 425.19 C 110.09 426.77 108.13 428.40 106.21 430.09 M 109.81 436.59 C 109.13 440.37 106.31 444.37 109.10 447.97 C 110.33 451.02 115.48 454.10 117.32 449.92 C 117.69 445.34 113.29 440.73 116.22 436.10 C 114.15 436.81 111.97 436.98 109.81 436.59 Z" />
<path fill="#ffffff" opacity="1.00" d=" M 449.72 424.30 C 450.30 423.81 451.45 422.82 452.03 422.32 C 457.66 426.94 463.46 431.38 469.02 436.09 C 465.56 440.14 462.61 445.45 458.12 448.12 C 452.49 443.73 447.42 438.63 442.06 433.89 C 442.72 433.04 443.38 432.20 444.05 431.35 C 449.44 435.13 453.98 440.00 459.07 444.17 C 461.35 442.23 463.21 439.87 464.92 437.43 C 459.90 433.03 453.98 429.45 449.72 424.30 Z" />
<path fill="#ffffff" opacity="1.00" d=" M 438.29 437.91 C 439.12 437.05 440.17 434.55 441.58 436.19 C 446.79 440.77 451.85 445.52 456.92 450.25 C 455.97 450.96 455.06 453.49 453.68 452.32 C 448.46 447.61 443.42 442.71 438.29 437.91 Z" />
<path fill="#ffffff" opacity="1.00" d=" M 434.58 441.90 C 435.33 441.03 436.10 440.18 436.88 439.34 C 442.27 444.25 447.44 449.42 452.77 454.40 C 450.03 460.35 446.19 452.35 443.20 450.47 C 440.63 452.97 438.10 455.51 435.55 458.03 C 437.70 460.41 439.88 462.78 442.13 465.07 C 441.18 465.75 440.54 467.59 439.30 467.46 C 436.17 464.71 433.65 461.34 430.70 458.42 C 431.77 463.39 428.57 467.47 424.82 470.24 C 426.22 472.30 427.77 474.27 429.43 476.14 C 428.62 477.07 427.79 477.99 426.94 478.89 C 422.19 473.43 417.40 467.92 413.27 461.99 C 416.07 457.80 421.56 453.05 427.20 454.95 C 425.60 453.24 423.75 450.38 427.01 449.17 C 429.35 451.46 431.46 453.99 433.95 456.14 C 436.47 453.78 439.03 451.45 441.38 448.92 C 439.20 446.50 436.87 444.22 434.58 441.90 M 416.94 461.07 C 418.86 463.62 420.94 466.06 423.09 468.43 C 426.22 466.60 429.70 462.14 426.05 459.00 C 423.19 455.60 419.30 458.84 416.94 461.07 Z" />
<path fill="#ffffff" opacity="1.00" d=" M 394.92 471.15 C 395.92 470.67 396.92 470.20 397.94 469.74 C 401.68 476.08 406.19 482.07 409.11 488.85 C 407.53 489.62 405.78 491.14 403.93 490.25 C 398.10 487.68 392.77 484.12 387.12 481.18 C 389.32 486.56 392.50 491.47 394.89 496.77 C 392.51 497.76 390.27 499.06 387.94 500.14 C 383.65 498.26 380.26 491.84 374.83 495.06 C 375.58 498.46 377.74 501.39 378.17 504.88 C 377.12 505.21 376.08 505.56 375.05 505.92 C 372.32 499.07 368.72 492.45 366.95 485.29 C 371.10 483.70 375.85 480.12 380.31 482.71 C 383.39 484.83 382.91 488.77 381.24 491.61 C 384.91 492.96 387.65 495.83 390.87 497.95 C 388.53 491.09 383.99 485.17 381.88 478.24 C 383.46 477.76 385.16 476.08 386.84 477.04 C 392.25 479.88 397.39 483.24 402.94 485.83 C 400.85 480.63 397.20 476.26 394.92 471.15 M 370.75 486.11 C 371.62 488.40 372.54 490.67 373.45 492.96 C 376.56 492.72 380.86 489.85 378.75 486.37 C 376.94 483.23 373.23 484.92 370.75 486.11 Z" />
<path fill="#ffffff" opacity="1.00" d=" M 155.25 487.89 C 153.21 480.27 160.62 469.73 169.10 472.84 C 174.42 474.16 177.99 479.15 177.20 484.65 C 178.51 482.73 179.00 479.95 181.02 478.70 C 184.41 480.85 190.36 481.15 191.38 485.49 C 188.11 485.02 185.36 483.06 182.30 481.96 C 181.21 484.20 180.16 486.46 179.19 488.76 C 181.65 490.52 185.92 490.68 186.94 493.85 C 183.66 494.46 180.98 491.92 178.06 490.86 C 176.65 493.80 175.27 496.77 173.76 499.67 C 172.84 499.35 171.91 499.05 170.99 498.75 C 171.40 496.11 172.88 493.82 173.83 491.37 C 168.55 497.29 158.22 494.89 155.25 487.89 M 164.36 475.39 C 160.59 477.52 158.48 481.79 157.96 485.97 C 158.44 490.15 162.93 492.98 166.94 492.14 C 170.82 490.31 173.25 486.15 173.79 481.99 C 174.25 477.30 168.59 473.22 164.36 475.39 Z" />
<path fill="#ffffff" opacity="1.00" d=" M 363.62 486.61 C 364.90 485.88 365.96 486.56 366.29 487.94 C 363.28 489.29 360.14 490.35 357.11 491.68 C 357.95 494.03 358.82 496.39 359.75 498.72 C 362.50 497.70 365.26 496.71 368.03 495.75 C 368.25 496.25 368.68 497.26 368.89 497.77 C 366.09 498.83 363.31 499.93 360.52 501.02 C 361.29 503.41 362.14 505.79 363.08 508.13 C 366.51 506.98 369.82 505.46 373.35 504.60 C 372.24 509.43 364.44 509.62 360.12 511.26 C 357.91 505.16 355.87 499.00 353.79 492.86 C 351.65 493.37 349.55 494.04 347.51 494.84 C 349.25 501.26 351.70 507.48 353.12 513.99 C 351.93 514.23 350.75 514.49 349.56 514.72 C 347.70 508.42 345.96 502.10 343.99 495.84 C 341.97 496.52 338.81 496.27 338.70 499.14 C 335.66 498.25 330.62 497.87 329.94 501.97 C 331.17 506.09 336.50 505.00 339.72 506.30 C 343.60 507.10 344.75 512.39 342.25 515.18 C 339.23 518.94 333.93 518.36 329.76 519.76 C 326.48 521.04 326.34 515.90 323.89 515.05 C 320.67 515.30 317.51 516.05 314.31 516.45 C 313.71 518.51 313.15 520.58 312.63 522.67 C 307.41 523.51 302.14 524.03 296.86 524.21 C 295.87 516.96 295.63 509.63 295.23 502.33 C 299.57 501.66 303.96 501.36 308.33 500.94 C 308.23 505.27 301.79 503.05 298.81 504.11 C 298.99 506.65 299.18 509.21 299.42 511.76 C 302.30 511.59 305.18 511.30 308.05 510.97 C 308.23 511.46 308.58 512.44 308.76 512.94 C 305.77 513.62 302.70 513.86 299.65 514.07 C 299.78 516.64 299.99 519.21 300.27 521.78 C 303.31 521.35 306.65 521.74 309.45 520.43 C 311.73 513.71 312.96 506.68 315.02 499.90 C 316.20 499.72 317.38 499.55 318.56 499.35 C 322.33 504.62 325.31 510.47 329.41 515.50 C 332.98 517.68 340.61 516.44 340.01 511.13 C 337.09 507.11 330.52 509.66 327.52 505.59 C 325.39 502.41 327.46 497.98 330.98 496.96 C 342.06 494.21 352.99 490.79 363.62 486.61 M 317.15 503.72 C 316.27 507.13 315.54 510.58 314.89 514.05 C 317.56 513.68 320.23 513.24 322.90 512.78 C 321.05 509.72 319.37 506.53 317.15 503.72 Z" />
<path fill="#ffffff" opacity="1.00" d=" M 203.70 496.98 C 204.26 489.15 218.23 491.04 218.06 498.17 C 214.85 496.87 210.77 491.78 207.69 496.07 C 207.15 500.72 213.23 502.58 215.61 505.99 C 217.11 492.43 238.90 494.30 239.65 507.25 C 239.95 504.55 240.24 501.84 241.14 499.27 C 242.19 499.46 243.25 499.66 244.31 499.86 C 243.74 504.92 242.54 509.89 242.06 514.97 C 241.91 520.74 251.33 522.79 253.77 517.68 C 255.45 512.40 254.90 506.73 256.20 501.37 C 263.76 502.25 271.38 502.34 278.97 502.83 C 278.98 506.16 279.00 509.50 279.08 512.83 C 282.73 512.58 286.39 512.47 290.06 512.43 C 289.95 509.06 289.38 505.63 290.14 502.29 C 290.82 502.29 292.19 502.28 292.87 502.27 C 293.50 509.70 294.47 517.26 293.86 524.69 C 292.78 524.58 291.71 524.47 290.63 524.37 C 290.41 521.18 290.23 517.98 290.16 514.78 C 286.44 514.66 282.71 514.82 279.00 515.08 C 279.03 518.32 279.01 521.57 278.90 524.81 C 277.70 524.77 276.50 524.73 275.30 524.70 C 274.97 518.05 275.74 511.41 275.44 504.76 C 273.24 504.74 271.04 504.75 268.84 504.77 C 268.57 511.27 268.09 517.77 267.97 524.28 C 266.65 524.53 265.32 524.49 264.03 524.15 C 264.31 517.53 265.29 510.92 265.02 504.30 C 263.09 504.23 261.17 504.14 259.25 504.03 C 258.70 508.59 258.73 513.25 257.76 517.76 C 254.01 526.46 237.72 523.65 237.92 513.71 C 233.23 522.21 218.28 520.21 215.43 511.23 C 210.52 516.15 199.67 513.96 198.08 507.12 C 201.29 507.06 202.88 510.76 206.03 511.17 C 208.60 512.32 212.56 510.54 211.70 507.34 C 209.51 503.54 203.68 502.02 203.70 496.98 M 224.34 499.42 C 220.17 501.72 218.28 507.29 219.33 511.77 C 221.89 518.57 233.51 518.42 234.71 510.72 C 237.92 504.14 231.13 496.62 224.34 499.42 Z" />
</g>
<g id="#000000ff">
<path fill="#000000" opacity="1.00" d=" M 266.38 14.50 C 357.13 8.74 450.39 51.46 502.48 126.47 C 530.96 163.36 546.63 209.01 552.05 255.02 C 553.33 273.63 553.36 292.32 552.27 310.93 C 547.27 365.82 525.05 419.16 488.67 460.67 C 458.79 495.67 419.60 522.64 376.36 538.37 C 336.45 555.29 292.04 557.03 249.39 553.54 C 229.05 550.64 208.43 546.96 189.61 538.44 C 138.15 519.97 92.97 485.12 61.31 440.64 C 31.72 398.71 15.22 348.18 12.30 297.06 C 9.54 228.16 32.94 157.72 79.10 106.13 C 125.94 52.11 195.18 19.01 266.38 14.50 M 267.35 24.46 C 238.17 26.28 209.24 32.87 182.29 44.24 C 125.04 68.00 77.00 113.03 49.59 168.63 C 33.75 199.91 25.18 234.48 22.45 269.34 C 19.98 314.59 29.57 360.53 49.87 401.06 C 77.75 457.59 127.17 502.98 185.68 526.33 C 215.61 538.26 247.75 544.90 280.00 545.01 C 335.39 545.96 390.83 528.22 435.62 495.68 C 501.95 448.18 544.07 367.84 543.00 286.00 C 544.70 211.61 510.86 137.82 455.01 88.99 C 404.20 43.88 335.16 20.17 267.35 24.46 Z" />
<path fill="#000000" opacity="1.00" d=" M 265.38 82.51 C 281.25 81.34 297.16 82.25 313.03 83.00 C 360.07 89.43 404.25 113.89 435.27 149.78 C 455.46 170.96 468.72 197.86 477.42 225.57 C 481.88 232.19 480.26 240.28 482.47 247.67 C 484.71 274.74 485.19 302.27 480.71 329.13 C 481.08 334.32 477.01 338.32 476.34 343.34 C 468.70 368.45 455.74 391.80 439.07 412.03 C 412.94 444.73 375.24 467.24 335.03 478.05 C 327.12 478.87 320.13 483.89 312.00 483.03 C 296.81 483.72 281.58 484.61 266.38 483.50 C 258.16 482.63 249.53 484.13 241.89 480.22 C 209.70 473.09 178.69 458.90 153.58 437.32 C 136.83 422.53 122.51 405.25 110.33 386.55 C 96.69 363.82 87.79 338.25 84.01 312.03 C 82.68 292.70 82.71 273.32 83.98 254.00 C 89.04 215.57 106.23 178.95 131.96 149.96 C 165.62 111.81 214.10 85.01 265.38 82.51 M 126.69 172.69 C 108.44 198.63 96.77 229.21 93.20 260.73 L 92.33 260.57 C 91.70 275.05 92.11 289.55 92.22 304.04 L 92.74 303.92 C 93.80 316.33 96.42 328.68 100.44 340.46 C 114.01 381.99 141.42 418.96 177.98 443.04 C 205.54 461.49 238.07 471.85 270.97 474.74 C 320.70 477.86 371.57 461.04 409.18 428.20 C 436.56 404.90 456.45 373.54 467.59 339.47 C 471.34 327.38 474.42 314.89 474.81 302.18 C 474.70 287.13 475.96 271.90 474.14 256.97 C 469.76 226.90 458.71 197.71 441.14 172.85 C 406.61 123.22 347.59 91.32 287.00 91.00 C 224.41 89.31 162.28 121.23 126.69 172.69 Z" />
<path fill="#000000" opacity="1.00" d=" M 282.24 103.14 C 283.86 100.60 288.09 100.88 289.31 103.66 C 292.73 109.12 297.31 113.77 300.88 119.10 C 301.49 129.63 300.71 140.23 301.22 150.77 C 303.79 152.22 309.34 154.91 310.78 150.70 C 315.74 142.63 320.18 134.22 325.28 126.26 C 330.77 122.30 338.09 121.64 343.52 117.50 C 346.00 115.74 350.47 117.66 350.03 120.97 C 350.09 127.97 352.29 134.88 351.85 141.85 C 346.83 151.25 341.25 160.30 336.14 169.64 C 338.12 171.56 340.09 173.49 342.08 175.40 C 349.66 170.87 357.27 166.41 364.80 161.79 C 372.25 155.94 381.63 161.93 390.08 161.02 C 394.39 160.08 396.75 165.92 393.69 168.71 C 388.63 174.99 389.38 185.71 381.01 189.03 C 374.35 192.54 367.75 196.19 361.27 200.04 C 361.51 203.63 361.41 207.23 361.74 210.81 C 372.10 210.83 382.54 210.25 392.86 211.08 C 398.29 214.70 403.02 219.55 409.26 221.84 C 410.56 224.11 411.15 228.88 407.87 229.84 C 400.81 232.60 396.37 241.27 388.05 240.67 C 379.29 240.57 370.51 240.74 361.75 240.55 C 361.17 247.03 361.65 253.56 361.52 260.06 C 361.38 273.84 357.42 287.24 351.34 299.52 C 342.56 311.33 335.55 324.94 322.88 333.24 C 311.99 339.87 299.79 343.72 287.95 348.07 C 275.47 343.62 262.64 339.27 251.30 332.07 C 239.79 323.50 232.74 310.88 224.83 299.25 C 218.09 287.20 214.78 273.41 214.47 259.64 C 214.47 253.32 214.57 247.00 214.45 240.68 C 203.95 240.57 193.45 240.66 182.95 240.66 C 174.01 241.18 169.88 230.65 161.45 229.34 C 160.40 226.83 160.67 224.16 161.43 221.62 C 170.17 220.61 174.82 209.78 183.99 210.67 C 193.11 210.67 202.24 210.81 211.36 210.61 C 212.03 207.73 212.96 204.93 214.12 202.22 C 204.64 196.94 195.52 191.01 185.72 186.32 C 183.52 177.82 176.14 170.33 177.38 161.36 C 184.37 160.97 191.37 160.67 198.25 159.22 C 200.69 158.50 202.93 159.85 204.97 161.03 C 213.09 165.96 221.21 170.88 229.50 175.53 C 231.35 173.36 233.25 171.21 235.15 169.08 C 229.90 159.96 223.88 151.26 219.10 141.90 C 219.19 133.72 221.23 125.61 221.36 117.39 C 223.63 117.08 226.19 116.30 228.20 117.85 C 233.83 121.28 240.68 122.11 246.16 125.80 C 251.16 135.09 255.91 144.58 261.92 153.29 C 264.77 152.54 267.65 151.95 270.55 151.45 C 270.95 140.68 270.10 129.85 270.96 119.13 C 274.47 113.65 278.54 108.50 282.24 103.14 M 273.68 120.94 C 273.41 132.05 273.89 143.17 273.46 154.27 C 269.02 155.32 264.65 156.62 260.25 157.79 C 254.23 148.32 249.16 138.26 243.19 128.77 C 237.26 125.31 230.60 123.24 224.44 120.21 C 224.70 126.89 222.99 133.44 222.55 140.07 C 227.81 150.28 234.16 159.91 239.59 170.04 C 236.36 173.28 233.24 176.61 229.96 179.80 C 219.92 174.21 210.11 168.23 200.10 162.60 C 193.43 163.56 186.75 164.62 180.00 164.73 C 183.46 170.67 185.28 177.39 188.64 183.36 C 197.39 188.62 206.29 193.79 215.27 198.66 C 262.17 197.98 309.12 198.81 356.02 198.24 C 363.63 195.35 370.21 190.24 377.45 186.53 C 386.49 183.13 386.64 171.96 391.21 164.67 C 384.44 164.80 377.74 162.92 371.06 162.87 C 360.94 168.18 351.32 174.43 341.22 179.77 C 338.45 176.26 334.61 173.53 332.16 169.87 C 336.71 159.67 343.50 150.47 348.46 140.43 C 348.43 133.63 346.84 126.89 346.41 120.09 C 340.59 123.75 333.73 125.33 327.90 128.87 C 321.98 138.37 316.94 148.44 310.79 157.80 C 306.59 156.17 301.80 155.81 297.85 153.86 C 297.07 142.76 297.95 131.53 297.45 120.39 C 293.92 114.66 289.11 109.79 285.81 103.89 C 282.05 109.77 277.22 114.95 273.68 120.94 M 288.25 200.79 C 264.71 202.21 241.03 200.99 217.43 201.43 C 217.54 221.24 217.54 241.05 217.44 260.87 C 221.86 260.97 226.34 261.38 230.72 260.56 C 231.86 261.93 232.57 263.51 232.45 265.33 L 232.09 264.14 C 227.34 263.87 222.59 264.02 217.84 264.02 C 218.26 280.46 225.06 296.10 235.01 309.00 C 244.03 325.14 260.36 336.12 277.93 341.04 C 281.53 341.77 284.34 344.56 287.99 345.10 C 303.62 339.13 320.58 334.07 332.12 321.08 C 345.29 304.70 357.94 285.88 358.16 264.02 C 353.08 264.02 347.99 263.86 342.91 264.14 L 342.55 265.34 C 342.40 263.51 343.13 261.93 344.27 260.56 C 348.99 261.40 353.80 260.96 358.56 260.87 C 358.46 241.05 358.45 221.24 358.57 201.43 C 335.63 200.98 312.61 202.23 289.74 200.78 C 289.55 200.38 289.18 199.58 289.00 199.19 C 288.81 199.59 288.44 200.39 288.25 200.79 M 163.54 225.92 C 169.58 229.07 174.39 234.05 180.18 237.52 C 191.61 237.79 203.07 237.59 214.52 237.61 C 214.50 229.79 214.44 221.96 214.55 214.13 C 203.42 213.22 192.14 213.80 180.96 213.81 C 174.75 217.19 169.70 222.39 163.54 225.92 M 361.48 214.26 C 361.53 222.03 361.47 229.80 361.52 237.57 C 371.51 237.55 381.56 237.95 391.52 237.39 C 396.76 233.84 401.66 229.80 406.71 225.98 C 399.59 221.23 393.56 212.10 384.00 213.68 C 376.51 214.04 368.89 212.99 361.48 214.26 Z" />
<path fill="#000000" opacity="1.00" d=" M 237.66 221.22 C 241.90 218.79 247.04 220.20 251.34 221.76 C 256.95 223.99 263.02 225.53 267.76 229.48 C 258.10 225.71 248.46 219.56 237.66 221.22 Z" />
<path fill="#000000" opacity="1.00" d=" M 309.31 228.21 C 317.67 223.91 327.84 217.72 337.36 221.22 C 327.33 219.45 318.48 225.28 309.31 228.21 Z" />
<path fill="#000000" opacity="1.00" d=" M 276.67 249.39 C 279.48 248.80 282.33 248.37 285.20 248.29 C 287.52 248.52 289.85 248.79 292.20 248.65 C 295.24 248.44 298.31 248.37 301.34 248.89 C 305.19 249.37 307.93 252.18 310.22 255.07 C 308.48 266.34 305.74 277.46 304.57 288.81 C 303.60 293.50 302.35 298.15 301.81 302.94 C 299.36 314.04 298.08 325.38 295.42 336.43 C 294.76 341.53 285.25 341.53 284.58 336.43 C 282.25 327.05 281.15 317.41 279.20 307.94 C 279.08 306.71 278.27 305.83 277.35 305.11 C 278.87 300.52 277.19 295.92 275.01 291.87 L 276.18 291.64 C 274.31 279.41 271.83 267.27 269.78 255.06 C 271.71 252.78 273.72 250.36 276.67 249.39 M 272.05 255.27 C 276.07 280.72 281.06 306.04 285.43 331.44 C 286.13 333.85 285.92 337.46 288.92 338.25 C 289.34 309.15 289.15 280.02 289.01 250.91 C 283.15 250.12 275.91 249.90 272.05 255.27 M 290.99 250.91 C 290.85 280.01 290.66 309.14 291.08 338.23 C 294.09 337.45 293.87 333.84 294.57 331.44 C 298.91 306.33 303.78 281.29 307.84 256.16 C 305.49 249.65 296.70 250.20 290.99 250.91 Z" />
<path fill="#000000" opacity="1.00" d=" M 45.54 297.74 C 46.48 292.81 49.26 288.22 53.12 285.09 C 58.74 287.30 59.76 294.69 62.16 299.71 C 67.73 300.47 73.32 300.95 78.94 301.22 C 79.94 307.58 72.44 310.18 69.63 314.98 C 69.71 320.89 72.93 326.65 71.40 332.53 C 65.19 333.86 61.58 326.41 55.60 326.46 C 48.63 326.61 43.86 332.72 37.20 334.03 C 36.02 328.43 38.55 322.97 38.51 317.39 C 35.96 313.05 31.67 310.07 28.87 305.92 C 27.69 304.10 29.19 301.52 31.18 301.11 C 35.88 299.65 40.82 299.12 45.54 297.74 M 53.34 286.86 C 51.11 290.89 48.73 294.82 47.11 299.15 C 42.10 302.00 34.70 300.70 30.43 304.25 C 32.89 308.65 37.81 311.95 40.62 316.41 C 40.73 321.38 39.17 326.21 38.64 331.14 C 44.16 328.86 49.06 324.97 54.98 323.78 C 60.46 324.74 64.78 328.82 69.87 330.89 C 69.58 325.25 67.69 319.73 67.80 314.11 C 70.65 310.27 74.56 307.33 77.26 303.38 C 71.92 302.76 66.56 302.34 61.22 301.71 C 58.35 296.89 56.80 291.34 53.34 286.86 Z" />
<path fill="#000000" opacity="1.00" d=" M 503.57 297.76 C 504.64 292.90 507.27 287.09 511.89 285.08 C 516.69 288.47 517.92 294.61 520.17 299.71 C 525.74 300.41 531.32 300.94 536.93 301.23 C 537.94 307.58 530.45 310.16 527.62 314.95 C 527.57 320.75 531.22 326.68 529.21 332.29 C 523.28 334.18 519.50 326.22 513.61 326.46 C 506.63 326.60 501.86 332.72 495.20 334.04 C 494.01 328.43 496.61 322.98 496.49 317.38 C 493.95 313.01 489.58 310.03 486.81 305.81 C 486.22 304.24 486.68 301.97 488.45 301.41 C 493.34 299.65 498.58 299.19 503.57 297.76 M 511.34 286.86 C 509.11 290.88 506.72 294.82 505.11 299.15 C 500.00 302.21 492.30 300.36 488.12 304.72 C 491.76 308.47 495.50 312.20 498.63 316.41 C 498.71 321.38 497.18 326.22 496.64 331.14 C 502.16 328.87 507.05 324.96 512.99 323.79 C 518.47 324.73 522.78 328.83 527.88 330.89 C 527.58 325.25 525.68 319.73 525.80 314.11 C 528.65 310.26 532.56 307.34 535.25 303.38 C 529.91 302.76 524.56 302.35 519.22 301.70 C 516.34 296.89 514.80 291.34 511.34 286.86 Z" />
</g>
<g id="#020088ff">
<path fill="#020088" opacity="1.00" d=" M 267.35 24.46 C 335.16 20.17 404.20 43.88 455.01 88.99 C 510.86 137.82 544.70 211.61 543.00 286.00 C 544.07 367.84 501.95 448.18 435.62 495.68 C 390.83 528.22 335.39 545.96 280.00 545.01 C 247.75 544.90 215.61 538.26 185.68 526.33 C 127.17 502.98 77.75 457.59 49.87 401.06 C 29.57 360.53 19.98 314.59 22.45 269.34 C 25.18 234.48 33.75 199.91 49.59 168.63 C 77.00 113.03 125.04 68.00 182.29 44.24 C 209.24 32.87 238.17 26.28 267.35 24.46 M 258.08 35.19 C 255.58 35.29 256.00 38.35 256.19 40.08 C 257.53 51.05 258.48 62.07 259.95 73.03 C 261.97 72.98 263.98 72.89 266.00 72.75 C 266.44 67.11 265.22 61.50 265.14 55.87 C 271.47 55.13 277.84 55.35 284.19 55.12 C 284.24 53.78 284.25 52.44 284.22 51.10 C 277.73 50.75 271.25 51.21 264.78 51.43 C 264.40 47.24 264.09 43.05 263.83 38.85 C 271.15 37.99 278.54 38.66 285.83 37.88 C 285.55 36.54 286.33 33.73 284.05 34.03 C 275.39 33.90 266.67 34.03 258.08 35.19 M 321.43 38.24 C 319.65 49.12 317.94 60.02 316.38 70.92 C 315.85 73.96 319.63 73.95 321.65 74.41 C 328.21 75.33 334.51 77.55 341.05 78.43 C 341.32 77.31 341.63 76.20 341.98 75.10 C 336.02 72.35 329.32 71.83 323.02 70.13 C 323.80 65.73 324.66 61.35 325.41 56.94 C 331.36 57.68 337.15 59.27 342.97 60.66 C 343.53 59.47 343.97 58.24 344.34 56.98 C 338.58 54.56 332.26 54.03 326.27 52.42 C 326.97 48.63 327.69 44.85 328.36 41.07 C 335.60 42.27 342.69 44.18 349.82 45.89 C 350.48 44.74 350.80 43.44 351.05 42.14 C 343.23 39.34 334.97 38.01 326.86 36.38 C 324.92 35.98 321.65 35.45 321.43 38.24 M 226.38 39.54 C 218.78 41.20 210.87 44.80 206.79 51.77 C 202.46 59.54 205.73 69.40 211.43 75.56 C 216.39 80.79 224.31 81.29 230.98 79.88 C 238.67 78.35 247.05 75.17 250.82 67.76 C 254.36 60.39 253.66 50.87 248.76 44.27 C 243.33 37.91 233.93 37.82 226.38 39.54 M 358.33 44.47 C 356.59 44.41 356.25 46.44 355.74 47.68 C 352.84 57.14 349.90 66.59 346.97 76.04 C 346.48 77.68 345.65 80.42 348.09 80.91 C 355.26 83.25 362.31 86.86 370.02 86.74 C 382.51 86.88 392.57 71.49 386.73 60.28 C 380.90 50.42 368.68 47.09 358.33 44.47 M 153.18 71.16 C 151.05 72.63 146.13 74.36 148.35 77.64 C 153.79 86.49 159.53 95.17 165.08 103.96 C 165.99 105.67 167.86 107.57 169.79 105.87 C 176.22 102.00 182.86 98.50 189.49 94.98 C 188.96 93.69 188.81 91.82 187.06 91.66 C 181.43 94.08 176.08 97.17 170.83 100.33 C 167.95 96.81 166.01 92.66 163.61 88.83 C 168.12 85.70 173.11 83.36 177.94 80.78 C 180.35 79.97 178.36 75.44 176.12 76.94 C 170.98 79.23 166.18 82.22 161.26 84.94 C 159.24 81.66 157.24 78.36 155.33 75.01 C 161.29 71.20 167.71 68.20 173.89 64.79 C 175.38 64.02 173.84 62.22 173.78 61.08 C 166.29 62.59 159.96 67.74 153.18 71.16 M 399.14 61.65 C 395.17 69.20 391.08 76.68 387.26 84.30 C 380.05 100.40 406.86 116.48 417.85 102.89 C 422.91 96.26 428.00 89.65 432.87 82.88 C 431.33 81.06 429.38 79.67 427.18 78.76 C 421.96 85.73 417.24 93.06 411.90 99.92 C 404.52 108.79 387.56 97.33 393.10 87.16 C 397.05 79.69 401.49 72.48 405.42 65.00 C 403.71 63.25 401.51 62.15 399.14 61.65 M 115.51 105.39 C 113.29 117.63 125.91 128.99 137.87 126.61 C 147.57 124.68 156.39 117.64 160.75 108.88 C 158.56 103.52 154.63 98.48 150.92 93.96 C 144.75 95.66 139.89 101.03 134.87 104.99 C 135.62 105.98 136.38 106.97 137.17 107.93 C 141.11 106.27 143.84 102.05 147.79 100.92 C 150.20 103.86 152.28 107.04 154.50 110.11 C 150.98 115.93 144.92 120.60 138.02 121.25 C 127.33 122.15 117.36 109.65 122.67 99.66 C 126.66 90.76 136.37 87.41 145.00 85.01 C 144.07 83.05 142.48 80.86 139.98 81.86 C 128.54 84.48 117.83 93.57 115.51 105.39 M 265.38 82.51 C 214.10 85.01 165.62 111.81 131.96 149.96 C 106.23 178.95 89.04 215.57 83.98 254.00 C 82.71 273.32 82.68 292.70 84.01 312.03 C 87.79 338.25 96.69 363.82 110.33 386.55 C 122.51 405.25 136.83 422.53 153.58 437.32 C 178.69 458.90 209.70 473.09 241.89 480.22 C 249.53 484.13 258.16 482.63 266.38 483.50 C 281.58 484.61 296.81 483.72 312.00 483.03 C 320.13 483.89 327.12 478.87 335.03 478.05 C 375.24 467.24 412.94 444.73 439.07 412.03 C 455.74 391.80 468.70 368.45 476.34 343.34 C 477.01 338.32 481.08 334.32 480.71 329.13 C 485.19 302.27 484.71 274.74 482.47 247.67 C 480.26 240.28 481.88 232.19 477.42 225.57 C 468.72 197.86 455.46 170.96 435.27 149.78 C 404.25 113.89 360.07 89.43 313.03 83.00 C 297.16 82.25 281.25 81.34 265.38 82.51 M 419.50 113.45 C 419.20 123.31 427.55 131.34 436.46 134.09 C 435.34 136.74 438.24 140.40 441.06 139.25 C 443.78 138.39 446.44 137.35 449.14 136.40 C 453.62 140.83 457.30 146.01 461.06 151.06 C 459.27 154.07 457.41 157.04 455.55 160.01 C 456.49 161.67 458.50 166.83 460.56 163.61 C 467.72 152.86 474.43 141.70 479.83 129.96 C 479.07 127.24 477.04 124.83 474.75 123.24 C 463.31 125.32 452.27 129.22 441.26 132.89 C 441.04 132.33 440.60 131.19 440.38 130.63 C 432.60 129.31 423.99 122.90 425.33 114.15 C 427.05 106.13 434.10 97.94 442.86 98.23 C 451.46 99.16 456.19 107.51 458.17 115.08 C 460.55 114.59 462.02 112.40 461.11 110.02 C 458.35 100.51 449.09 92.69 438.98 92.76 C 428.52 93.42 420.33 103.39 419.50 113.45 M 88.10 128.03 C 86.82 129.35 86.48 131.68 88.32 132.70 C 96.48 139.17 104.77 145.49 112.98 151.91 C 114.20 152.82 116.28 154.25 117.48 152.52 C 122.01 147.04 126.76 141.76 131.55 136.53 C 133.24 134.99 130.10 131.73 128.60 133.55 C 124.40 137.62 120.57 142.07 116.84 146.58 C 113.12 143.97 109.74 140.90 106.24 138.02 C 109.86 133.39 113.98 129.19 117.84 124.78 C 117.15 123.57 116.15 122.63 115.01 121.87 C 110.55 125.90 106.79 130.62 102.88 135.17 C 99.77 132.90 96.90 130.34 93.94 127.89 C 98.28 122.18 103.31 117.05 108.23 111.85 C 107.72 110.36 106.70 109.30 105.15 108.91 C 99.08 114.92 93.39 121.32 88.10 128.03 M 482.41 139.53 C 484.63 143.60 488.75 147.27 489.69 151.65 C 480.44 157.57 470.97 163.16 461.77 169.18 C 462.44 171.10 463.37 172.94 464.95 174.29 C 474.65 168.74 484.15 162.84 493.94 157.47 C 496.56 161.90 498.92 166.47 501.36 171.00 C 503.10 170.86 505.87 169.86 504.41 167.65 C 499.02 157.01 492.86 146.72 485.86 137.06 C 484.58 134.80 480.75 137.59 482.41 139.53 M 69.80 155.90 C 78.77 161.81 88.26 166.92 97.40 172.58 C 99.08 173.43 101.76 175.55 103.10 173.11 C 106.78 167.50 110.47 161.90 114.44 156.49 C 115.62 154.83 113.07 153.81 112.07 152.94 C 108.08 157.32 104.94 162.39 101.79 167.38 C 92.15 162.19 83.35 155.52 73.82 150.15 C 71.46 150.05 69.84 153.80 69.80 155.90 M 472.16 187.50 C 472.36 189.48 473.33 191.23 474.26 192.95 C 485.28 188.75 495.80 183.24 506.63 178.53 C 510.58 177.33 507.05 173.30 505.80 171.22 C 494.45 176.33 483.41 182.16 472.16 187.50 M 97.22 174.97 C 94.00 179.75 91.75 185.10 89.00 190.15 C 78.95 185.64 69.17 180.47 59.01 176.24 C 56.73 177.26 56.24 180.45 55.88 182.74 C 67.56 187.10 78.53 194.00 90.63 196.82 C 94.02 190.13 97.13 183.29 101.02 176.87 C 100.12 175.85 98.74 173.97 97.22 174.97 M 498.35 188.45 C 490.59 190.30 482.11 195.34 480.69 203.86 C 479.78 211.14 482.13 218.70 486.30 224.66 C 495.58 237.87 522.59 232.56 522.28 214.98 C 522.87 202.10 513.44 184.80 498.35 188.45 M 59.42 192.55 C 51.46 193.78 46.73 201.48 44.58 208.59 C 41.92 216.51 41.58 226.71 48.16 232.83 C 56.74 240.11 72.78 240.69 79.09 230.14 C 83.38 222.59 85.96 212.93 82.41 204.62 C 78.28 196.40 68.42 191.62 59.42 192.55 M 489.32 239.85 C 489.60 241.78 490.01 243.70 490.55 245.58 C 500.85 244.23 511.01 242.04 521.31 240.70 C 513.16 249.46 504.03 257.21 494.82 264.82 C 491.54 267.15 491.63 275.38 496.98 274.28 C 508.31 273.81 519.67 273.87 530.99 273.17 C 531.02 270.81 530.98 268.46 530.83 266.11 C 520.97 266.11 511.15 267.32 501.30 267.45 C 510.22 259.74 519.73 252.48 527.38 243.46 C 528.41 240.23 528.56 234.30 524.95 232.82 C 513.03 234.84 501.10 237.10 489.32 239.85 M 40.93 236.88 C 35.17 244.47 34.09 255.39 37.82 264.10 C 43.88 277.93 66.91 277.82 73.26 264.29 C 76.51 257.19 77.30 248.37 73.66 241.27 C 72.36 240.65 69.64 239.38 69.61 241.84 C 72.58 248.91 73.08 258.37 66.91 263.91 C 58.91 270.18 43.68 268.12 40.58 257.42 C 37.90 249.54 42.92 242.56 46.28 236.03 C 44.42 235.22 42.15 234.83 40.93 236.88 M 45.54 297.74 C 40.82 299.12 35.88 299.65 31.18 301.11 C 29.19 301.52 27.69 304.10 28.87 305.92 C 31.67 310.07 35.96 313.05 38.51 317.39 C 38.55 322.97 36.02 328.43 37.20 334.03 C 43.86 332.72 48.63 326.61 55.60 326.46 C 61.58 326.41 65.19 333.86 71.40 332.53 C 72.93 326.65 69.71 320.89 69.63 314.98 C 72.44 310.18 79.94 307.58 78.94 301.22 C 73.32 300.95 67.73 300.47 62.16 299.71 C 59.76 294.69 58.74 287.30 53.12 285.09 C 49.26 288.22 46.48 292.81 45.54 297.74 M 503.57 297.76 C 498.58 299.19 493.34 299.65 488.45 301.41 C 486.68 301.97 486.22 304.24 486.81 305.81 C 489.58 310.03 493.95 313.01 496.49 317.38 C 496.61 322.98 494.01 328.43 495.20 334.04 C 501.86 332.72 506.63 326.60 513.61 326.46 C 519.50 326.22 523.28 334.18 529.21 332.29 C 531.22 326.68 527.57 320.75 527.62 314.95 C 530.45 310.16 537.94 307.58 536.93 301.23 C 531.32 300.94 525.74 300.41 520.17 299.71 C 517.92 294.61 516.69 288.47 511.89 285.08 C 507.27 287.09 504.64 292.90 503.57 297.76 M 494.61 364.52 C 500.33 365.88 502.31 357.09 507.64 358.28 C 511.96 361.29 507.88 366.84 504.82 369.17 C 505.12 370.04 505.43 370.92 505.75 371.80 C 504.68 374.22 503.59 376.65 502.23 378.93 C 500.21 377.60 497.01 377.23 495.79 375.12 C 496.83 372.50 498.32 370.04 498.94 367.25 C 495.22 366.48 495.30 372.39 493.24 374.60 C 490.95 373.58 488.67 372.51 486.54 371.18 C 487.87 368.21 489.60 365.35 490.12 362.08 C 485.72 362.94 485.17 369.91 483.13 373.65 C 489.77 376.61 496.00 380.48 502.82 383.04 C 505.67 378.41 507.49 373.28 509.28 368.22 C 512.55 364.30 513.85 356.10 507.62 354.42 C 501.79 352.73 499.78 361.95 494.35 360.72 C 490.23 357.68 495.17 353.75 497.18 351.13 C 490.15 349.79 487.26 363.11 494.61 364.52 M 60.22 360.20 C 51.13 364.55 58.38 381.48 67.86 377.91 C 72.43 376.16 76.77 373.88 81.22 371.87 C 80.83 370.81 80.44 369.76 80.03 368.72 C 75.14 370.47 70.63 373.15 65.68 374.73 C 60.08 376.49 56.08 367.05 61.02 364.09 C 65.58 361.54 70.79 360.47 75.41 358.04 C 75.22 357.30 74.85 355.81 74.66 355.07 C 69.71 356.35 64.97 358.33 60.22 360.20 M 62.19 382.49 C 62.53 383.63 62.88 384.76 63.24 385.91 C 68.85 384.05 73.80 380.67 79.35 378.66 C 76.12 384.29 72.19 389.54 69.41 395.42 C 68.85 397.14 70.25 400.86 72.54 399.44 C 78.51 396.38 84.19 392.77 90.14 389.68 C 90.00 388.36 89.42 387.19 88.22 386.55 C 83.52 389.26 78.81 391.98 73.91 394.31 C 76.77 388.85 80.39 383.83 83.44 378.49 C 84.41 376.61 82.71 372.49 80.18 374.14 C 74.14 376.82 68.23 379.80 62.19 382.49 M 482.08 375.13 C 481.60 376.07 481.13 377.01 480.66 377.96 C 485.30 381.06 490.63 382.94 495.29 386.03 C 489.23 386.72 483.12 386.59 477.04 386.93 C 474.60 387.07 472.53 391.38 475.60 392.38 C 481.34 395.62 486.80 399.38 492.77 402.21 C 493.25 401.15 493.73 400.10 494.22 399.06 C 489.27 395.92 483.93 393.44 479.13 390.07 C 485.71 389.88 492.34 389.98 498.88 389.06 C 500.72 388.82 500.99 386.53 501.80 385.19 C 495.45 381.42 488.69 378.39 482.08 375.13 M 72.03 402.02 C 72.66 403.07 73.30 404.11 73.94 405.15 C 79.26 402.30 84.17 398.73 89.66 396.21 C 86.06 401.64 81.78 406.59 78.18 412.02 C 79.01 413.17 79.31 415.09 80.89 415.43 C 87.40 414.47 93.71 412.53 100.17 411.30 C 95.99 416.05 89.66 418.29 85.40 422.96 C 88.63 426.20 90.30 433.08 95.26 433.15 C 93.81 429.84 91.19 427.28 89.25 424.28 C 91.35 423.00 93.18 420.54 95.63 420.27 C 97.51 422.30 98.72 424.91 100.90 426.67 C 103.76 424.21 98.47 421.08 97.33 418.67 C 99.20 416.84 101.35 415.35 103.62 414.06 C 105.70 416.56 107.03 419.91 110.07 421.42 C 110.64 416.16 103.85 412.46 101.89 407.57 C 95.44 408.68 89.21 410.78 82.76 411.91 C 86.08 406.24 90.67 401.48 94.34 396.06 C 93.37 394.30 92.32 392.61 91.13 391.00 C 84.74 394.64 78.32 398.22 72.03 402.02 M 472.14 392.79 C 471.71 393.74 471.28 394.69 470.87 395.65 C 471.84 396.46 472.83 397.27 473.82 398.09 C 468.02 398.21 465.21 403.65 462.57 407.95 C 463.42 408.96 464.28 409.98 465.15 410.99 C 459.56 411.05 455.30 416.23 453.69 420.94 C 459.16 425.61 464.75 430.27 470.74 434.26 C 471.24 433.63 472.24 432.39 472.74 431.76 C 470.92 429.89 468.85 428.31 466.74 426.80 C 469.45 423.03 472.08 418.45 469.76 413.78 C 473.25 416.19 476.71 418.63 480.18 421.06 C 481.02 420.14 481.76 419.13 482.41 418.08 C 480.35 416.54 478.23 415.08 476.05 413.72 C 478.80 409.93 480.71 405.27 478.53 400.71 C 482.32 402.80 485.76 405.53 489.78 407.22 C 490.25 406.17 490.72 405.13 491.20 404.09 C 484.84 400.34 478.70 396.19 472.14 392.79 M 94.43 435.00 C 95.23 435.89 96.04 436.78 96.85 437.68 C 99.30 435.62 101.83 433.64 104.22 431.51 C 109.35 435.21 104.52 440.82 102.89 445.02 C 107.51 448.96 110.85 456.59 118.23 454.75 C 117.23 455.86 116.23 456.97 115.24 458.09 C 116.12 458.88 117.00 459.68 117.88 460.47 C 122.62 455.90 127.02 450.98 131.72 446.37 C 133.15 447.69 134.61 448.99 136.08 450.27 C 132.01 455.47 127.25 460.07 122.90 465.03 C 123.65 465.89 124.40 466.76 125.15 467.63 C 130.28 463.24 134.12 457.58 138.93 452.86 C 139.96 453.92 141.40 454.71 142.02 456.12 C 141.19 463.06 140.09 470.23 134.50 475.05 C 135.36 475.88 136.21 476.71 137.07 477.55 C 141.26 470.26 149.20 468.12 156.32 464.74 C 155.64 463.86 154.91 463.05 154.13 462.28 C 150.48 463.84 146.89 465.52 143.26 467.11 C 144.05 463.20 145.02 459.33 145.69 455.40 C 140.34 451.49 135.71 446.72 130.80 442.30 C 127.47 445.43 124.41 448.82 121.17 452.04 C 121.30 448.14 119.69 444.60 118.61 440.97 C 117.89 438.34 121.73 436.23 123.61 438.30 C 126.10 439.55 125.02 443.85 128.08 444.08 C 129.43 438.12 122.46 432.58 116.94 435.43 C 120.43 430.02 115.28 425.10 111.93 421.29 C 105.75 425.35 100.05 430.19 94.43 435.00 M 449.72 424.30 C 453.98 429.45 459.90 433.03 464.92 437.43 C 463.21 439.87 461.35 442.23 459.07 444.17 C 453.98 440.00 449.44 435.13 444.05 431.35 C 443.38 432.20 442.72 433.04 442.06 433.89 C 447.42 438.63 452.49 443.73 458.12 448.12 C 462.61 445.45 465.56 440.14 469.02 436.09 C 463.46 431.38 457.66 426.94 452.03 422.32 C 451.45 422.82 450.30 423.81 449.72 424.30 M 438.29 437.91 C 443.42 442.71 448.46 447.61 453.68 452.32 C 455.06 453.49 455.97 450.96 456.92 450.25 C 451.85 445.52 446.79 440.77 441.58 436.19 C 440.17 434.55 439.12 437.05 438.29 437.91 M 434.58 441.90 C 436.87 444.22 439.20 446.50 441.38 448.92 C 439.03 451.45 436.47 453.78 433.95 456.14 C 431.46 453.99 429.35 451.46 427.01 449.17 C 423.75 450.38 425.60 453.24 427.20 454.95 C 421.56 453.05 416.07 457.80 413.27 461.99 C 417.40 467.92 422.19 473.43 426.94 478.89 C 427.79 477.99 428.62 477.07 429.43 476.14 C 427.77 474.27 426.22 472.30 424.82 470.24 C 428.57 467.47 431.77 463.39 430.70 458.42 C 433.65 461.34 436.17 464.71 439.30 467.46 C 440.54 467.59 441.18 465.75 442.13 465.07 C 439.88 462.78 437.70 460.41 435.55 458.03 C 438.10 455.51 440.63 452.97 443.20 450.47 C 446.19 452.35 450.03 460.35 452.77 454.40 C 447.44 449.42 442.27 444.25 436.88 439.34 C 436.10 440.18 435.33 441.03 434.58 441.90 M 394.92 471.15 C 397.20 476.26 400.85 480.63 402.94 485.83 C 397.39 483.24 392.25 479.88 386.84 477.04 C 385.16 476.08 383.46 477.76 381.88 478.24 C 383.99 485.17 388.53 491.09 390.87 497.95 C 387.65 495.83 384.91 492.96 381.24 491.61 C 382.91 488.77 383.39 484.83 380.31 482.71 C 375.85 480.12 371.10 483.70 366.95 485.29 C 368.72 492.45 372.32 499.07 375.05 505.92 C 376.08 505.56 377.12 505.21 378.17 504.88 C 377.74 501.39 375.58 498.46 374.83 495.06 C 380.26 491.84 383.65 498.26 387.94 500.14 C 390.27 499.06 392.51 497.76 394.89 496.77 C 392.50 491.47 389.32 486.56 387.12 481.18 C 392.77 484.12 398.10 487.68 403.93 490.25 C 405.78 491.14 407.53 489.62 409.11 488.85 C 406.19 482.07 401.68 476.08 397.94 469.74 C 396.92 470.20 395.92 470.67 394.92 471.15 M 155.25 487.89 C 158.22 494.89 168.55 497.29 173.83 491.37 C 172.88 493.82 171.40 496.11 170.99 498.75 C 171.91 499.05 172.84 499.35 173.76 499.67 C 175.27 496.77 176.65 493.80 178.06 490.86 C 180.98 491.92 183.66 494.46 186.94 493.85 C 185.92 490.68 181.65 490.52 179.19 488.76 C 180.16 486.46 181.21 484.20 182.30 481.96 C 185.36 483.06 188.11 485.02 191.38 485.49 C 190.36 481.15 184.41 480.85 181.02 478.70 C 179.00 479.95 178.51 482.73 177.20 484.65 C 177.99 479.15 174.42 474.16 169.10 472.84 C 160.62 469.73 153.21 480.27 155.25 487.89 M 363.62 486.61 C 352.99 490.79 342.06 494.21 330.98 496.96 C 327.46 497.98 325.39 502.41 327.52 505.59 C 330.52 509.66 337.09 507.11 340.01 511.13 C 340.61 516.44 332.98 517.68 329.41 515.50 C 325.31 510.47 322.33 504.62 318.56 499.35 C 317.38 499.55 316.20 499.72 315.02 499.90 C 312.96 506.68 311.73 513.71 309.45 520.43 C 306.65 521.74 303.31 521.35 300.27 521.78 C 299.99 519.21 299.78 516.64 299.65 514.07 C 302.70 513.86 305.77 513.62 308.76 512.94 C 308.58 512.44 308.23 511.46 308.05 510.97 C 305.18 511.30 302.30 511.59 299.42 511.76 C 299.18 509.21 298.99 506.65 298.81 504.11 C 301.79 503.05 308.23 505.27 308.33 500.94 C 303.96 501.36 299.57 501.66 295.23 502.33 C 295.63 509.63 295.87 516.96 296.86 524.21 C 302.14 524.03 307.41 523.51 312.63 522.67 C 313.15 520.58 313.71 518.51 314.31 516.45 C 317.51 516.05 320.67 515.30 323.89 515.05 C 326.34 515.90 326.48 521.04 329.76 519.76 C 333.93 518.36 339.23 518.94 342.25 515.18 C 344.75 512.39 343.60 507.10 339.72 506.30 C 336.50 505.00 331.17 506.09 329.94 501.97 C 330.62 497.87 335.66 498.25 338.70 499.14 C 338.81 496.27 341.97 496.52 343.99 495.84 C 345.96 502.10 347.70 508.42 349.56 514.72 C 350.75 514.49 351.93 514.23 353.12 513.99 C 351.70 507.48 349.25 501.26 347.51 494.84 C 349.55 494.04 351.65 493.37 353.79 492.86 C 355.87 499.00 357.91 505.16 360.12 511.26 C 364.44 509.62 372.24 509.43 373.35 504.60 C 369.82 505.46 366.51 506.98 363.08 508.13 C 362.14 505.79 361.29 503.41 360.52 501.02 C 363.31 499.93 366.09 498.83 368.89 497.77 C 368.68 497.26 368.25 496.25 368.03 495.75 C 365.26 496.71 362.50 497.70 359.75 498.72 C 358.82 496.39 357.95 494.03 357.11 491.68 C 360.14 490.35 363.28 489.29 366.29 487.94 C 365.96 486.56 364.90 485.88 363.62 486.61 M 203.70 496.98 C 203.68 502.02 209.51 503.54 211.70 507.34 C 212.56 510.54 208.60 512.32 206.03 511.17 C 202.88 510.76 201.29 507.06 198.08 507.12 C 199.67 513.96 210.52 516.15 215.43 511.23 C 218.28 520.21 233.23 522.21 237.92 513.71 C 237.72 523.65 254.01 526.46 257.76 517.76 C 258.73 513.25 258.70 508.59 259.25 504.03 C 261.17 504.14 263.09 504.23 265.02 504.30 C 265.29 510.92 264.31 517.53 264.03 524.15 C 265.32 524.49 266.65 524.53 267.97 524.28 C 268.09 517.77 268.57 511.27 268.84 504.77 C 271.04 504.75 273.24 504.74 275.44 504.76 C 275.74 511.41 274.97 518.05 275.30 524.70 C 276.50 524.73 277.70 524.77 278.90 524.81 C 279.01 521.57 279.03 518.32 279.00 515.08 C 282.71 514.82 286.44 514.66 290.16 514.78 C 290.23 517.98 290.41 521.18 290.63 524.37 C 291.71 524.47 292.78 524.58 293.86 524.69 C 294.47 517.26 293.50 509.70 292.87 502.27 C 292.19 502.28 290.82 502.29 290.14 502.29 C 289.38 505.63 289.95 509.06 290.06 512.43 C 286.39 512.47 282.73 512.58 279.08 512.83 C 279.00 509.50 278.98 506.16 278.97 502.83 C 271.38 502.34 263.76 502.25 256.20 501.37 C 254.90 506.73 255.45 512.40 253.77 517.68 C 251.33 522.79 241.91 520.74 242.06 514.97 C 242.54 509.89 243.74 504.92 244.31 499.86 C 243.25 499.66 242.19 499.46 241.14 499.27 C 240.24 501.84 239.95 504.55 239.65 507.25 C 238.90 494.30 217.11 492.43 215.61 505.99 C 213.23 502.58 207.15 500.72 207.69 496.07 C 210.77 491.78 214.85 496.87 218.06 498.17 C 218.23 491.04 204.26 489.15 203.70 496.98 Z" />
<path fill="#020088" opacity="1.00" d=" M 228.42 43.55 C 237.62 40.87 246.07 48.78 245.93 57.90 C 248.49 71.72 230.01 80.16 219.43 73.58 C 212.98 68.23 209.06 57.13 215.11 50.10 C 218.40 46.17 223.53 44.44 228.42 43.55 Z" />
<path fill="#020088" opacity="1.00" d=" M 362.45 50.11 C 370.07 52.24 379.65 55.43 381.69 64.12 C 382.56 71.09 378.30 78.89 371.65 81.49 C 365.23 83.38 358.95 80.10 353.04 78.00 C 356.26 68.73 359.42 59.44 362.45 50.11 Z" />
<path fill="#020088" opacity="1.00" d=" M 453.90 134.89 C 460.19 132.62 466.69 131.00 473.15 129.27 C 470.28 135.30 466.94 141.09 463.72 146.94 C 460.29 143.05 457.27 138.83 453.90 134.89 Z" />
<path fill="#020088" opacity="1.00" d=" M 498.32 195.34 C 511.55 189.80 522.08 208.03 515.72 218.68 C 511.53 224.34 503.70 226.08 497.02 225.36 C 488.73 224.09 484.47 214.72 485.26 207.09 C 486.25 200.64 492.71 197.21 498.32 195.34 Z" />
<path fill="#020088" opacity="1.00" d=" M 59.34 199.34 C 65.73 198.90 72.45 201.54 76.73 206.34 C 81.58 212.20 79.55 220.81 75.68 226.60 C 70.68 233.28 60.90 232.10 54.23 228.87 C 42.34 222.72 47.01 201.84 59.34 199.34 Z" />
<path fill="#020088" opacity="1.00" d=" M 93.20 260.73 C 101.41 260.75 108.60 254.00 117.08 255.14 C 128.89 255.23 139.34 261.79 150.93 263.21 C 161.84 264.75 172.81 267.28 183.85 266.86 C 193.88 263.74 203.94 260.60 214.47 259.64 C 214.78 273.41 218.09 287.20 224.83 299.25 C 211.71 301.45 199.59 307.84 186.13 308.33 C 173.23 308.41 160.55 305.27 148.21 301.75 C 129.96 296.81 110.67 298.53 92.74 303.92 L 92.22 304.04 C 92.11 289.55 91.70 275.05 92.33 260.57 L 93.20 260.73 Z" />
<path fill="#020088" opacity="1.00" d=" M 421.62 263.61 C 435.52 262.08 448.24 253.47 462.57 255.58 C 466.48 256.70 470.23 258.39 474.23 259.25 C 474.21 258.68 474.16 257.54 474.14 256.97 C 475.96 271.90 474.70 287.13 474.81 302.18 C 459.39 297.68 442.82 297.57 427.22 301.22 C 411.91 305.30 395.93 310.16 379.99 307.14 C 370.12 305.89 361.17 301.04 351.34 299.52 C 357.42 287.24 361.38 273.84 361.52 260.06 C 371.67 261.02 381.26 264.47 391.00 267.22 C 401.27 267.06 411.47 265.19 421.62 263.61 Z" />
<path fill="#020088" opacity="1.00" d=" M 343.51 364.03 C 344.92 357.41 354.42 361.22 359.21 361.78 C 364.18 386.82 366.59 412.94 363.23 438.27 C 355.45 440.61 347.13 442.08 338.97 441.34 C 331.64 438.36 324.16 433.29 322.10 425.16 C 320.20 413.98 317.86 400.96 325.14 391.14 C 329.31 386.52 333.82 381.60 340.00 379.82 C 343.86 379.07 347.83 380.20 351.69 379.34 C 351.43 373.05 348.39 367.73 343.51 364.03 M 341.27 387.20 C 333.11 391.17 332.27 401.97 331.73 410.00 C 332.51 415.78 332.87 423.57 338.94 426.35 C 343.00 426.59 348.44 428.11 351.20 424.17 C 355.82 419.66 354.61 412.75 353.91 406.99 C 352.83 402.12 354.74 396.66 351.82 392.26 C 349.97 388.56 345.47 385.17 341.27 387.20 Z" />
<path fill="#020088" opacity="1.00" d=" M 270.32 362.49 C 283.57 363.72 296.81 362.79 310.10 362.53 C 310.52 363.15 311.37 364.40 311.79 365.03 C 307.68 369.49 302.89 378.77 295.74 374.25 C 286.49 368.81 275.84 376.78 273.50 386.00 C 275.19 392.92 285.12 394.58 289.99 390.00 C 292.41 387.71 297.65 385.39 299.41 389.58 C 299.85 393.85 300.00 398.66 297.24 402.24 C 293.68 403.73 290.07 401.07 286.65 400.25 C 282.12 398.38 277.28 399.78 272.77 400.90 C 272.63 407.57 269.61 414.72 272.95 421.05 C 274.57 425.02 277.03 428.73 280.53 431.29 C 287.50 432.47 296.15 431.77 300.47 425.37 C 302.15 425.33 304.18 425.07 304.89 427.03 C 306.96 431.32 310.90 434.13 313.59 437.94 C 313.97 442.99 308.10 441.35 304.99 441.66 C 291.70 443.92 278.33 441.29 265.00 441.38 C 263.15 441.57 261.87 440.06 260.49 439.13 C 260.79 433.06 259.69 426.90 261.36 420.95 C 261.69 403.97 259.90 386.48 265.01 370.00 C 265.75 367.03 266.74 363.02 270.32 362.49 Z" />
<path fill="#020088" opacity="1.00" d=" M 212.62 363.65 C 222.26 361.15 234.18 363.51 240.27 372.07 C 242.20 376.40 237.13 380.78 232.92 379.58 C 229.98 377.72 227.79 374.66 224.39 373.59 C 219.72 372.62 215.20 374.79 211.51 377.45 C 199.32 385.44 198.28 403.06 203.58 415.38 C 208.07 426.41 221.19 432.39 232.42 428.43 C 237.67 426.49 238.91 419.59 243.49 417.29 C 244.84 426.17 242.38 437.60 233.05 441.11 C 220.43 448.36 204.20 441.95 195.02 431.99 C 185.42 419.95 188.64 403.86 190.11 389.84 C 193.44 378.49 202.24 369.02 212.62 363.65 Z" />
<path fill="#020088" opacity="1.00" d=" M 466.06 406.80 C 467.62 403.79 470.81 400.06 474.50 402.49 C 478.32 404.76 476.49 409.63 474.02 412.18 C 471.33 410.45 468.67 408.66 466.06 406.80 Z" />
<path fill="#020088" opacity="1.00" d=" M 457.20 419.53 C 458.49 416.33 462.06 412.69 465.58 415.41 C 469.54 417.81 467.14 422.53 464.82 425.15 C 462.22 423.35 459.76 421.38 457.20 419.53 Z" />
<path fill="#020088" opacity="1.00" d=" M 106.21 430.09 C 108.13 428.40 110.09 426.77 112.09 425.19 C 114.15 427.07 116.63 430.45 113.87 432.89 C 111.17 435.82 107.84 432.36 106.21 430.09 Z" />
<path fill="#020088" opacity="1.00" d=" M 109.81 436.59 C 111.97 436.98 114.15 436.81 116.22 436.10 C 113.29 440.73 117.69 445.34 117.32 449.92 C 115.48 454.10 110.33 451.02 109.10 447.97 C 106.31 444.37 109.13 440.37 109.81 436.59 Z" />
<path fill="#020088" opacity="1.00" d=" M 416.94 461.07 C 419.30 458.84 423.19 455.60 426.05 459.00 C 429.70 462.14 426.22 466.60 423.09 468.43 C 420.94 466.06 418.86 463.62 416.94 461.07 Z" />
<path fill="#020088" opacity="1.00" d=" M 164.36 475.39 C 168.59 473.22 174.25 477.30 173.79 481.99 C 173.25 486.15 170.82 490.31 166.94 492.14 C 162.93 492.98 158.44 490.15 157.96 485.97 C 158.48 481.79 160.59 477.52 164.36 475.39 Z" />
<path fill="#020088" opacity="1.00" d=" M 370.75 486.11 C 373.23 484.92 376.94 483.23 378.75 486.37 C 380.86 489.85 376.56 492.72 373.45 492.96 C 372.54 490.67 371.62 488.40 370.75 486.11 Z" />
<path fill="#020088" opacity="1.00" d=" M 224.34 499.42 C 231.13 496.62 237.92 504.14 234.71 510.72 C 233.51 518.42 221.89 518.57 219.33 511.77 C 218.28 507.29 220.17 501.72 224.34 499.42 Z" />
<path fill="#020088" opacity="1.00" d=" M 317.15 503.72 C 319.37 506.53 321.05 509.72 322.90 512.78 C 320.23 513.24 317.56 513.68 314.89 514.05 C 315.54 510.58 316.27 507.13 317.15 503.72 Z" />
</g>
<g id="#fcff12ff">
<path fill="#fcff12" opacity="1.00" d=" M 273.68 120.94 C 277.22 114.95 282.05 109.77 285.81 103.89 C 289.11 109.79 293.92 114.66 297.45 120.39 C 297.95 131.53 297.07 142.76 297.85 153.86 C 301.80 155.81 306.59 156.17 310.79 157.80 C 316.94 148.44 321.98 138.37 327.90 128.87 C 333.73 125.33 340.59 123.75 346.41 120.09 C 346.84 126.89 348.43 133.63 348.46 140.43 C 343.50 150.47 336.71 159.67 332.16 169.87 C 334.61 173.53 338.45 176.26 341.22 179.77 C 351.32 174.43 360.94 168.18 371.06 162.87 C 377.74 162.92 384.44 164.80 391.21 164.67 C 386.64 171.96 386.49 183.13 377.45 186.53 C 370.21 190.24 363.63 195.35 356.02 198.24 C 309.12 198.81 262.17 197.98 215.27 198.66 C 206.29 193.79 197.39 188.62 188.64 183.36 C 185.28 177.39 183.46 170.67 180.00 164.73 C 186.75 164.62 193.43 163.56 200.10 162.60 C 210.11 168.23 219.92 174.21 229.96 179.80 C 233.24 176.61 236.36 173.28 239.59 170.04 C 234.16 159.91 227.81 150.28 222.55 140.07 C 222.99 133.44 224.70 126.89 224.44 120.21 C 230.60 123.24 237.26 125.31 243.19 128.77 C 249.16 138.26 254.23 148.32 260.25 157.79 C 264.65 156.62 269.02 155.32 273.46 154.27 C 273.89 143.17 273.41 132.05 273.68 120.94 Z" />
<path fill="#fcff12" opacity="1.00" d=" M 217.43 201.43 C 241.03 200.99 264.71 202.21 288.25 200.79 C 285.48 207.69 278.80 211.71 274.88 217.83 C 272.16 221.50 270.60 225.89 267.76 229.48 C 263.02 225.53 256.95 223.99 251.34 221.76 C 247.04 220.20 241.90 218.79 237.66 221.22 C 237.38 221.35 236.82 221.62 236.53 221.75 C 228.43 224.08 224.59 232.55 222.72 240.08 C 224.73 247.09 227.53 253.99 230.72 260.56 C 226.34 261.38 221.86 260.97 217.44 260.87 C 217.54 241.05 217.54 221.24 217.43 201.43 Z" />
<path fill="#fcff12" opacity="1.00" d=" M 289.74 200.78 C 312.61 202.23 335.63 200.98 358.57 201.43 C 358.45 221.24 358.46 241.05 358.56 260.87 C 353.80 260.96 348.99 261.40 344.27 260.56 C 347.47 253.99 350.26 247.08 352.28 240.07 C 350.41 232.55 346.56 224.08 338.47 221.75 C 338.19 221.62 337.64 221.36 337.36 221.22 C 327.84 217.72 317.67 223.91 309.31 228.21 C 307.26 224.46 305.08 220.78 302.69 217.24 C 298.79 211.41 292.40 207.46 289.74 200.78 Z" />
<path fill="#fcff12" opacity="1.00" d=" M 163.54 225.92 C 169.70 222.39 174.75 217.19 180.96 213.81 C 192.14 213.80 203.42 213.22 214.55 214.13 C 214.44 221.96 214.50 229.79 214.52 237.61 C 203.07 237.59 191.61 237.79 180.18 237.52 C 174.39 234.05 169.58 229.07 163.54 225.92 Z" />
<path fill="#fcff12" opacity="1.00" d=" M 361.48 214.26 C 368.89 212.99 376.51 214.04 384.00 213.68 C 393.56 212.10 399.59 221.23 406.71 225.98 C 401.66 229.80 396.76 233.84 391.52 237.39 C 381.56 237.95 371.51 237.55 361.52 237.57 C 361.47 229.80 361.53 222.03 361.48 214.26 Z" />
<path fill="#fcff12" opacity="1.00" d=" M 217.84 264.02 C 222.59 264.02 227.34 263.87 232.09 264.14 L 232.45 265.33 C 236.28 276.62 241.12 287.54 245.27 298.72 C 246.43 301.12 247.23 304.28 249.73 305.61 C 254.36 304.22 258.25 300.92 263.04 299.99 C 268.20 300.27 272.70 303.16 277.35 305.11 C 278.27 305.83 279.08 306.71 279.20 307.94 C 281.15 317.41 282.25 327.05 284.58 336.43 C 285.25 341.53 294.76 341.53 295.42 336.43 C 298.08 325.38 299.36 314.04 301.81 302.94 C 305.83 301.72 310.11 298.85 314.37 300.64 C 318.13 302.23 321.71 304.21 325.44 305.89 C 329.22 301.94 330.41 296.45 332.50 291.57 C 335.78 282.80 339.64 274.24 342.55 265.34 L 342.91 264.14 C 347.99 263.86 353.08 264.02 358.16 264.02 C 357.94 285.88 345.29 304.70 332.12 321.08 C 320.58 334.07 303.62 339.13 287.99 345.10 C 284.34 344.56 281.53 341.77 277.93 341.04 C 260.36 336.12 244.03 325.14 235.01 309.00 C 225.06 296.10 218.26 280.46 217.84 264.02 Z" />
<path fill="#fcff12" opacity="1.00" d=" M 53.34 286.86 C 56.80 291.34 58.35 296.89 61.22 301.71 C 66.56 302.34 71.92 302.76 77.26 303.38 C 74.56 307.33 70.65 310.27 67.80 314.11 C 67.69 319.73 69.58 325.25 69.87 330.89 C 64.78 328.82 60.46 324.74 54.98 323.78 C 49.06 324.97 44.16 328.86 38.64 331.14 C 39.17 326.21 40.73 321.38 40.62 316.41 C 37.81 311.95 32.89 308.65 30.43 304.25 C 34.70 300.70 42.10 302.00 47.11 299.15 C 48.73 294.82 51.11 290.89 53.34 286.86 Z" />
<path fill="#fcff12" opacity="1.00" d=" M 511.34 286.86 C 514.80 291.34 516.34 296.89 519.22 301.70 C 524.56 302.35 529.91 302.76 535.25 303.38 C 532.56 307.34 528.65 310.26 525.80 314.11 C 525.68 319.73 527.58 325.25 527.88 330.89 C 522.78 328.83 518.47 324.73 512.99 323.79 C 507.05 324.96 502.16 328.87 496.64 331.14 C 497.18 326.22 498.71 321.38 498.63 316.41 C 495.50 312.20 491.76 308.47 488.12 304.72 C 492.30 300.36 500.00 302.21 505.11 299.15 C 506.72 294.82 509.11 290.88 511.34 286.86 Z" />
</g>
<g id="#e20304ff">
<path fill="#e20304" opacity="1.00" d=" M 288.25 200.79 C 288.44 200.39 288.81 199.59 289.00 199.19 C 289.18 199.58 289.55 200.38 289.74 200.78 C 292.40 207.46 298.79 211.41 302.69 217.24 C 305.08 220.78 307.26 224.46 309.31 228.21 C 312.17 236.50 305.40 242.60 301.34 248.89 C 298.31 248.37 295.24 248.44 292.20 248.65 C 290.19 243.79 283.89 240.20 285.47 234.39 C 287.10 230.08 291.20 227.43 293.64 223.64 C 285.87 222.99 278.65 228.75 276.56 236.03 C 276.20 241.60 281.91 244.65 285.20 248.29 C 282.33 248.37 279.48 248.80 276.67 249.39 C 273.21 242.88 266.82 237.59 267.76 229.48 C 270.60 225.89 272.16 221.50 274.88 217.83 C 278.80 211.71 285.48 207.69 288.25 200.79 Z" />
<path fill="#e20304" opacity="1.00" d=" M 92.74 303.92 C 110.67 298.53 129.96 296.81 148.21 301.75 C 160.55 305.27 173.23 308.41 186.13 308.33 C 199.59 307.84 211.71 301.45 224.83 299.25 C 232.74 310.88 239.79 323.50 251.30 332.07 C 238.80 334.57 226.18 336.63 213.83 339.81 C 201.33 344.15 187.94 348.18 174.62 345.45 C 160.72 344.53 147.91 337.99 133.99 337.24 C 122.80 336.52 111.07 336.42 100.44 340.46 C 96.42 328.68 93.80 316.33 92.74 303.92 Z" />
<path fill="#e20304" opacity="1.00" d=" M 427.22 301.22 C 442.82 297.57 459.39 297.68 474.81 302.18 C 474.42 314.89 471.34 327.38 467.59 339.47 C 463.68 335.96 457.75 337.68 452.95 336.84 C 428.65 334.24 406.13 349.51 381.83 345.38 C 371.55 344.59 362.35 339.34 352.24 337.71 C 342.48 336.05 332.87 332.93 322.88 333.24 C 335.55 324.94 342.56 311.33 351.34 299.52 C 361.17 301.04 370.12 305.89 379.99 307.14 C 395.93 310.16 411.91 305.30 427.22 301.22 Z" />
</g>
<g id="#6c0701ff">
<path fill="#6c0701" opacity="1.00" d=" M 222.72 240.08 C 224.59 232.55 228.43 224.08 236.53 221.75 C 233.76 224.04 230.90 226.23 228.54 228.96 C 235.54 249.64 242.64 270.28 249.56 290.98 C 257.35 285.68 267.97 284.78 275.01 291.87 C 277.19 295.92 278.87 300.52 277.35 305.11 C 272.70 303.16 268.20 300.27 263.04 299.99 C 258.25 300.92 254.36 304.22 249.73 305.61 C 247.23 304.28 246.43 301.12 245.27 298.72 C 241.12 287.54 236.28 276.62 232.45 265.33 C 232.57 263.51 231.86 261.93 230.72 260.56 C 227.53 253.99 224.73 247.09 222.72 240.08 Z" />
<path fill="#6c0701" opacity="1.00" d=" M 338.47 221.75 C 346.56 224.08 350.41 232.55 352.28 240.07 C 350.26 247.08 347.47 253.99 344.27 260.56 C 343.13 261.93 342.40 263.51 342.55 265.34 C 339.64 274.24 335.78 282.80 332.50 291.57 C 330.41 296.45 329.22 301.94 325.44 305.89 C 321.71 304.21 318.13 302.23 314.37 300.64 C 310.11 298.85 305.83 301.72 301.81 302.94 C 302.35 298.15 303.60 293.50 304.57 288.81 C 311.17 284.21 319.18 287.52 325.45 290.96 C 332.36 270.27 339.45 249.63 346.46 228.97 C 344.11 226.23 341.23 224.04 338.47 221.75 Z" />
<path fill="#6c0701" opacity="1.00" d=" M 272.05 255.27 C 275.91 249.90 283.15 250.12 289.01 250.91 C 289.15 280.02 289.34 309.15 288.92 338.25 C 285.92 337.46 286.13 333.85 285.43 331.44 C 281.06 306.04 276.07 280.72 272.05 255.27 Z" />
<path fill="#6c0701" opacity="1.00" d=" M 290.99 250.91 C 296.70 250.20 305.49 249.65 307.84 256.16 C 303.78 281.29 298.91 306.33 294.57 331.44 C 293.87 333.84 294.09 337.45 291.08 338.23 C 290.66 309.14 290.85 280.01 290.99 250.91 Z" />
</g>
<g id="#e7b57cff">
<path fill="#e7b57c" opacity="1.00" d=" M 276.56 236.03 C 278.65 228.75 285.87 222.99 293.64 223.64 C 291.20 227.43 287.10 230.08 285.47 234.39 C 283.89 240.20 290.19 243.79 292.20 248.65 C 289.85 248.79 287.52 248.52 285.20 248.29 C 281.91 244.65 276.20 241.60 276.56 236.03 Z" />
</g>
</svg>
